<svg xmlns="http://www.w3.org/2000/svg" xmlns:xlink="http://www.w3.org/1999/xlink" width="500" zoomAndPan="magnify" viewBox="0 0 375 374.999991" height="500" preserveAspectRatio="xMidYMid meet" version="1.0"><defs><clipPath id="1caa881ff1"><path d="M 8.898438 8.234375 L 178 8.234375 L 178 177 L 8.898438 177 Z M 8.898438 8.234375 " clip-rule="nonzero"/></clipPath><clipPath id="ae3ea5622e"><path d="M 197 8.234375 L 365.898438 8.234375 L 365.898438 177 L 197 177 Z M 197 8.234375 " clip-rule="nonzero"/></clipPath><clipPath id="18744916cc"><path d="M 8.898438 198 L 178 198 L 178 366.734375 L 8.898438 366.734375 Z M 8.898438 198 " clip-rule="nonzero"/></clipPath><clipPath id="61bbb1afe8"><path d="M 197 198 L 365.898438 198 L 365.898438 366.734375 L 197 366.734375 Z M 197 198 " clip-rule="nonzero"/></clipPath></defs><g clip-path="url(#1caa881ff1)"><path fill="#000000" d="M 133.921875 176.574219 L 52.144531 176.574219 C 28.300781 176.574219 8.898438 157.175781 8.898438 133.332031 L 8.898438 51.554688 C 8.898438 27.710938 28.300781 8.3125 52.144531 8.3125 L 133.917969 8.3125 C 157.761719 8.3125 177.164062 27.710938 177.164062 51.554688 L 177.164062 133.332031 C 177.164062 157.175781 157.761719 176.574219 133.917969 176.574219 Z M 133.921875 176.574219 " fill-opacity="1" fill-rule="nonzero"/></g><g clip-path="url(#ae3ea5622e)"><path fill="#000000" d="M 322.855469 176.574219 L 241.078125 176.574219 C 217.234375 176.574219 197.835938 157.175781 197.835938 133.332031 L 197.835938 51.554688 C 197.835938 27.710938 217.234375 8.3125 241.078125 8.3125 L 322.855469 8.3125 C 346.699219 8.3125 366.097656 27.710938 366.097656 51.554688 L 366.097656 133.332031 C 366.097656 157.175781 346.699219 176.574219 322.855469 176.574219 Z M 322.855469 176.574219 " fill-opacity="1" fill-rule="nonzero"/></g><g clip-path="url(#18744916cc)"><path fill="#000000" d="M 133.921875 366.679688 L 52.144531 366.679688 C 28.300781 366.679688 8.898438 347.277344 8.898438 323.4375 L 8.898438 241.660156 C 8.898438 217.816406 28.300781 198.417969 52.144531 198.417969 L 133.917969 198.417969 C 157.761719 198.417969 177.164062 217.816406 177.164062 241.660156 L 177.164062 323.4375 C 177.164062 347.277344 157.761719 366.679688 133.917969 366.679688 Z M 133.921875 366.679688 " fill-opacity="1" fill-rule="nonzero"/></g><g clip-path="url(#61bbb1afe8)"><path fill="#000000" d="M 322.855469 366.679688 L 241.078125 366.679688 C 217.234375 366.679688 197.835938 347.277344 197.835938 323.4375 L 197.835938 241.660156 C 197.835938 217.816406 217.234375 198.417969 241.078125 198.417969 L 322.855469 198.417969 C 346.699219 198.417969 366.097656 217.816406 366.097656 241.660156 L 366.097656 323.4375 C 366.097656 347.277344 346.699219 366.679688 322.855469 366.679688 Z M 322.855469 366.679688 " fill-opacity="1" fill-rule="nonzero"/></g><path fill="#ffffff" d="M 118.851562 83.894531 L 101.9375 83.722656 L 102.109375 66.804688 C 102.160156 61.9375 98.253906 57.949219 93.382812 57.902344 C 88.515625 57.851562 84.527344 61.757812 84.476562 66.625 L 84.304688 83.542969 L 67.390625 83.367188 C 67.347656 83.367188 67.308594 83.367188 67.265625 83.367188 C 62.453125 83.382812 58.535156 87.265625 58.484375 92.09375 C 58.433594 96.964844 62.339844 100.949219 67.207031 101 L 84.125 101.171875 L 83.953125 118.089844 C 83.902344 122.957031 87.808594 126.945312 92.675781 126.996094 C 92.71875 126.996094 92.757812 126.996094 92.800781 126.996094 C 97.613281 126.976562 101.53125 123.097656 101.582031 118.269531 L 101.753906 101.355469 L 118.671875 101.527344 C 118.714844 101.527344 118.753906 101.527344 118.796875 101.527344 C 123.605469 101.507812 127.527344 97.628906 127.578125 92.800781 C 127.628906 87.933594 123.722656 83.945312 118.851562 83.894531 Z M 118.851562 83.894531 " fill-opacity="1" fill-rule="nonzero"/><path fill="#ffffff" d="M 105.5 282.570312 L 117.484375 270.628906 C 120.933594 267.195312 120.941406 261.613281 117.503906 258.164062 C 114.066406 254.714844 108.484375 254.703125 105.035156 258.140625 L 93.054688 270.082031 L 81.113281 258.097656 C 81.085938 258.070312 81.054688 258.039062 81.027344 258.011719 C 77.582031 254.648438 72.066406 254.671875 68.648438 258.078125 C 65.199219 261.511719 65.191406 267.09375 68.625 270.542969 L 80.566406 282.527344 L 68.582031 294.46875 C 65.132812 297.902344 65.125 303.484375 68.5625 306.933594 C 68.589844 306.964844 68.621094 306.992188 68.648438 307.023438 C 72.09375 310.382812 77.609375 310.363281 81.027344 306.957031 L 93.011719 295.015625 L 104.953125 307 C 104.980469 307.027344 105.011719 307.058594 105.039062 307.085938 C 108.484375 310.449219 114 310.425781 117.417969 307.019531 C 120.867188 303.582031 120.875 298.003906 117.441406 294.554688 Z M 105.5 282.570312 " fill-opacity="1" fill-rule="nonzero"/><path fill="#ffffff" d="M 305.226562 101.222656 C 305.183594 101.222656 305.144531 101.222656 305.101562 101.222656 L 253.640625 101.132812 C 248.769531 101.125 244.832031 97.171875 244.839844 92.300781 C 244.847656 87.476562 248.734375 83.558594 253.546875 83.5 C 253.589844 83.5 253.628906 83.5 253.671875 83.5 L 305.132812 83.589844 C 310.003906 83.597656 313.941406 87.550781 313.933594 92.421875 C 313.925781 97.246094 310.039062 101.164062 305.226562 101.222656 Z M 305.226562 101.222656 " fill-opacity="1" fill-rule="nonzero"/><path fill="#ffffff" d="M 305.300781 290.242188 C 305.265625 290.242188 305.226562 290.242188 305.191406 290.242188 L 258.738281 290.09375 C 254.339844 290.078125 250.78125 286.121094 250.785156 281.253906 C 250.785156 276.425781 254.289062 272.519531 258.632812 272.464844 C 258.667969 272.464844 258.707031 272.464844 258.742188 272.464844 L 305.195312 272.613281 C 309.589844 272.625 313.152344 276.585938 313.148438 281.453125 C 313.148438 286.28125 309.644531 290.1875 305.300781 290.242188 Z M 305.300781 290.242188 " fill-opacity="1" fill-rule="nonzero"/><path fill="#ffffff" d="M 294.070312 254.359375 C 294.070312 255.15625 293.992188 255.941406 293.835938 256.722656 C 293.679688 257.5 293.453125 258.257812 293.148438 258.992188 C 292.84375 259.726562 292.472656 260.421875 292.03125 261.082031 C 291.589844 261.746094 291.085938 262.355469 290.523438 262.917969 C 289.960938 263.480469 289.351562 263.980469 288.691406 264.421875 C 288.03125 264.863281 287.332031 265.238281 286.597656 265.542969 C 285.863281 265.84375 285.105469 266.074219 284.328125 266.230469 C 283.546875 266.386719 282.761719 266.460938 281.964844 266.460938 C 281.171875 266.460938 280.386719 266.386719 279.605469 266.230469 C 278.824219 266.074219 278.070312 265.84375 277.335938 265.542969 C 276.601562 265.238281 275.902344 264.863281 275.242188 264.421875 C 274.582031 263.980469 273.96875 263.480469 273.410156 262.917969 C 272.847656 262.355469 272.34375 261.746094 271.902344 261.082031 C 271.460938 260.421875 271.089844 259.726562 270.785156 258.992188 C 270.480469 258.257812 270.25 257.5 270.097656 256.722656 C 269.941406 255.941406 269.863281 255.15625 269.863281 254.359375 C 269.863281 253.566406 269.941406 252.777344 270.097656 252 C 270.25 251.21875 270.480469 250.460938 270.785156 249.730469 C 271.089844 248.996094 271.460938 248.296875 271.902344 247.636719 C 272.34375 246.976562 272.847656 246.363281 273.410156 245.800781 C 273.96875 245.242188 274.582031 244.738281 275.242188 244.296875 C 275.902344 243.855469 276.601562 243.484375 277.335938 243.179688 C 278.070312 242.875 278.824219 242.644531 279.605469 242.488281 C 280.386719 242.335938 281.171875 242.257812 281.964844 242.257812 C 282.761719 242.257812 283.546875 242.335938 284.328125 242.488281 C 285.105469 242.644531 285.863281 242.875 286.597656 243.179688 C 287.332031 243.484375 288.03125 243.855469 288.691406 244.296875 C 289.351562 244.738281 289.960938 245.242188 290.523438 245.800781 C 291.085938 246.363281 291.589844 246.976562 292.03125 247.636719 C 292.472656 248.296875 292.84375 248.996094 293.148438 249.730469 C 293.453125 250.460938 293.679688 251.21875 293.835938 252 C 293.992188 252.777344 294.070312 253.566406 294.070312 254.359375 Z M 294.070312 254.359375 " fill-opacity="1" fill-rule="nonzero"/><path fill="#ffffff" d="M 294.070312 310.738281 C 294.070312 311.53125 293.992188 312.320312 293.835938 313.097656 C 293.679688 313.878906 293.453125 314.636719 293.148438 315.367188 C 292.84375 316.101562 292.472656 316.800781 292.03125 317.460938 C 291.589844 318.121094 291.085938 318.734375 290.523438 319.296875 C 289.960938 319.855469 289.351562 320.359375 288.691406 320.800781 C 288.03125 321.242188 287.332031 321.613281 286.597656 321.917969 C 285.863281 322.222656 285.105469 322.453125 284.328125 322.609375 C 283.546875 322.761719 282.761719 322.839844 281.964844 322.839844 C 281.171875 322.839844 280.386719 322.761719 279.605469 322.609375 C 278.824219 322.453125 278.070312 322.222656 277.335938 321.917969 C 276.601562 321.613281 275.902344 321.242188 275.242188 320.800781 C 274.582031 320.359375 273.96875 319.855469 273.410156 319.296875 C 272.847656 318.734375 272.34375 318.121094 271.902344 317.460938 C 271.460938 316.800781 271.089844 316.101562 270.785156 315.367188 C 270.480469 314.636719 270.25 313.878906 270.097656 313.097656 C 269.941406 312.320312 269.863281 311.53125 269.863281 310.738281 C 269.863281 309.941406 269.941406 309.15625 270.097656 308.375 C 270.25 307.597656 270.480469 306.839844 270.785156 306.105469 C 271.089844 305.371094 271.460938 304.675781 271.902344 304.011719 C 272.34375 303.351562 272.847656 302.742188 273.410156 302.179688 C 273.96875 301.617188 274.582031 301.117188 275.242188 300.675781 C 275.902344 300.234375 276.601562 299.859375 277.335938 299.554688 C 278.070312 299.253906 278.824219 299.023438 279.605469 298.867188 C 280.386719 298.710938 281.171875 298.636719 281.964844 298.636719 C 282.761719 298.636719 283.546875 298.710938 284.328125 298.867188 C 285.105469 299.023438 285.863281 299.253906 286.597656 299.554688 C 287.332031 299.859375 288.03125 300.234375 288.691406 300.675781 C 289.351562 301.117188 289.960938 301.617188 290.523438 302.179688 C 291.085938 302.742188 291.589844 303.351562 292.03125 304.015625 C 292.472656 304.675781 292.84375 305.371094 293.148438 306.105469 C 293.453125 306.839844 293.679688 307.597656 293.835938 308.375 C 293.992188 309.15625 294.070312 309.941406 294.070312 310.738281 Z M 294.070312 310.738281 " fill-opacity="1" fill-rule="nonzero"/></svg>