<svg xmlns="http://www.w3.org/2000/svg" xmlns:xlink="http://www.w3.org/1999/xlink" width="500" zoomAndPan="magnify" viewBox="0 0 375 374.999991" height="500" preserveAspectRatio="xMidYMid meet" version="1.0"><path fill="#00f48e" d="M 328.128906 198.792969 C 303.109375 172.542969 350.25 123.660156 338.53125 88.335938 C 322.75 40.777344 194.386719 0.0078125 107.984375 51.777344 C 35.628906 95.132812 10.5 192.722656 42.113281 232.167969 C 54.78125 247.972656 71.589844 248.246094 95.847656 275.875 C 121.878906 305.515625 116.078125 320.625 132.25 335.476562 C 175.316406 375.011719 308.261719 352.222656 343.730469 286.207031 C 352.28125 270.289062 364.496094 234.492188 347.199219 213.097656 C 340.328125 204.601562 334.800781 205.789062 328.128906 198.792969 " fill-opacity="1" fill-rule="nonzero"/><path fill="#000000" d="M 197.546875 195.398438 L 105.679688 140.914062 C 97.378906 135.988281 86.691406 138.179688 81.011719 145.980469 C 66.144531 166.40625 40.777344 206.609375 41.355469 242.488281 L 169.898438 292 L 197.546875 195.398438 " fill-opacity="1" fill-rule="nonzero"/><path fill="#000000" d="M 196.851562 195.675781 L 169.507812 291.214844 L 41.941406 242.082031 C 41.558594 206.574219 66.53125 166.878906 81.488281 146.328125 C 87.015625 138.734375 97.289062 136.621094 105.378906 141.417969 Z M 169.898438 292.589844 C 169.988281 292.589844 170.078125 292.570312 170.164062 292.527344 C 170.3125 292.453125 170.421875 292.320312 170.464844 292.160156 L 198.117188 195.5625 C 198.1875 195.300781 198.078125 195.027344 197.847656 194.890625 L 105.980469 140.402344 C 97.363281 135.292969 86.421875 137.539062 80.53125 145.632812 C 65.429688 166.378906 40.183594 206.546875 40.761719 242.496094 C 40.769531 242.738281 40.917969 242.953125 41.144531 243.039062 L 169.6875 292.550781 C 169.757812 292.578125 169.828125 292.589844 169.898438 292.589844 " fill-opacity="1" fill-rule="nonzero"/><path fill="#ffffff" d="M 55.214844 232.382812 C 55.460938 232.382812 55.695312 232.222656 55.777344 231.976562 C 68.78125 192.453125 86.140625 163.460938 93 152.832031 C 94.738281 150.136719 98.28125 149.277344 101.066406 150.875 L 175.75 194.101562 C 176.03125 194.265625 176.398438 194.167969 176.558594 193.886719 C 176.722656 193.601562 176.625 193.242188 176.34375 193.078125 L 101.65625 149.851562 C 98.328125 147.9375 94.089844 148.964844 92.003906 152.191406 C 85.121094 162.859375 67.699219 191.953125 54.652344 231.605469 C 54.550781 231.914062 54.71875 232.25 55.03125 232.351562 C 55.09375 232.371094 55.15625 232.382812 55.214844 232.382812 " fill-opacity="1" fill-rule="nonzero"/><path fill="#ffffff" d="M 160.308594 260.214844 C 161.742188 257.207031 156.660156 254.554688 157.652344 249.332031 C 158.941406 242.550781 168.292969 242.816406 172.253906 233.667969 C 172.851562 232.28125 174.945312 227.453125 173.050781 223.046875 C 170.957031 218.171875 165.882812 218.238281 165.085938 214.816406 C 164.117188 210.667969 170.789062 207.214844 176.503906 201.011719 C 177.898438 199.492188 190.824219 185.097656 187.917969 171.011719 C 185.554688 159.566406 173.089844 150.050781 160.308594 149.507812 C 144.414062 148.832031 130.585938 162.132812 128.183594 174.464844 C 125.726562 187.070312 135.253906 198.433594 129.101562 205.167969 C 126.726562 207.769531 124.742188 206.6875 121.914062 208.988281 C 112.277344 216.835938 114.320312 246.476562 131.105469 258.089844 C 141.941406 265.59375 158.042969 264.964844 160.308594 260.214844 " fill-opacity="1" fill-rule="nonzero"/><path fill="#000000" d="M 152.246094 259.367188 C 152.386719 259.367188 152.53125 259.316406 152.644531 259.210938 C 152.886719 258.988281 152.902344 258.617188 152.679688 258.375 C 137.972656 242.328125 138.75 223.851562 141.992188 211.183594 C 145.523438 197.386719 152.65625 187.273438 152.726562 187.167969 C 152.917969 186.902344 152.855469 186.535156 152.589844 186.34375 C 152.324219 186.15625 151.953125 186.214844 151.765625 186.484375 C 151.691406 186.585938 144.449219 196.855469 140.855469 210.851562 C 137.53125 223.816406 136.730469 242.726562 151.808594 259.175781 C 151.925781 259.300781 152.085938 259.367188 152.246094 259.367188 " fill-opacity="1" fill-rule="nonzero"/><path fill="#ffffff" d="M 135.351562 255.964844 C 136.640625 252.972656 125.773438 249.015625 124.996094 240.566406 C 124.332031 233.34375 131.75 230.453125 130.308594 224.636719 C 128.65625 217.992188 118.167969 218.535156 116.765625 212.160156 C 115.648438 207.070312 121.984375 205.121094 123.671875 196.230469 C 124.738281 190.578125 124.046875 181.484375 118.09375 178.179688 C 114.800781 176.351562 109.609375 176.136719 106.679688 178.710938 C 102.601562 182.289062 105.804688 188.699219 101.101562 192.78125 C 98.503906 195.035156 96.894531 193.625 94.730469 195.699219 C 90.433594 199.816406 91.824219 210.097656 95.527344 217.207031 C 98.667969 223.238281 102.394531 224.917969 102.164062 229.683594 C 101.980469 233.445312 99.589844 233.871094 99.242188 237.117188 C 98.40625 244.976562 111.222656 253.847656 122.871094 256.496094 C 127.230469 257.488281 134.359375 258.273438 135.351562 255.964844 " fill-opacity="1" fill-rule="nonzero"/><path fill="#000000" d="M 129.460938 254.789062 C 129.667969 254.789062 129.871094 254.679688 129.976562 254.488281 C 130.136719 254.203125 130.035156 253.84375 129.75 253.683594 C 116.03125 245.988281 109.257812 233.097656 109.613281 215.367188 C 109.882812 202.097656 114.273438 190.972656 114.316406 190.863281 C 114.4375 190.558594 114.289062 190.214844 113.984375 190.09375 C 113.683594 189.972656 113.335938 190.117188 113.21875 190.421875 C 113.171875 190.535156 108.703125 201.859375 108.429688 215.34375 C 108.066406 233.285156 115.238281 246.898438 129.171875 254.714844 C 129.265625 254.765625 129.363281 254.789062 129.460938 254.789062 " fill-opacity="1" fill-rule="nonzero"/><path fill="#ffffff" d="M 244.429688 276.792969 C 237.886719 259.085938 221.492188 219.621094 197.546875 195.398438 L 170.789062 246.804688 C 168.703125 250.808594 164.417969 253.164062 159.917969 252.773438 L 41.355469 242.488281 L 90.441406 342.5 C 93.542969 348.820312 100.777344 351.949219 107.507812 349.882812 C 136.054688 341.121094 209.089844 317.203125 239.820312 293.046875 C 244.71875 289.195312 246.589844 282.636719 244.429688 276.792969 " fill-opacity="1" fill-rule="nonzero"/><path fill="#000000" d="M 244.429688 276.792969 L 244.425781 276.792969 Z M 197.695312 196.394531 C 221.535156 220.878906 237.910156 260.855469 243.875 276.996094 C 245.949219 282.609375 244.171875 288.875 239.457031 292.578125 C 208.964844 316.546875 136.902344 340.242188 107.332031 349.316406 C 100.84375 351.308594 93.960938 348.332031 90.972656 342.238281 L 42.347656 243.167969 L 159.867188 253.363281 C 164.617188 253.773438 169.113281 251.308594 171.3125 247.078125 Z M 103.257812 351.117188 C 104.722656 351.117188 106.210938 350.898438 107.683594 350.449219 C 137.3125 341.355469 209.539062 317.601562 240.1875 293.511719 C 245.308594 289.484375 247.234375 282.683594 244.984375 276.589844 C 238.945312 260.246094 222.277344 219.574219 197.96875 194.984375 C 197.835938 194.847656 197.644531 194.785156 197.457031 194.816406 C 197.273438 194.84375 197.109375 194.957031 197.023438 195.125 L 170.265625 246.53125 C 168.285156 250.335938 164.234375 252.554688 159.96875 252.1875 L 41.40625 241.898438 C 41.191406 241.882812 40.988281 241.976562 40.867188 242.152344 C 40.746094 242.328125 40.730469 242.558594 40.820312 242.75 L 89.910156 342.757812 C 92.480469 348 97.699219 351.117188 103.257812 351.117188 " fill-opacity="1" fill-rule="nonzero"/><path fill="#000000" d="M 114.261719 337.21875 C 114.472656 337.21875 114.671875 337.109375 114.78125 336.914062 L 155.046875 264.816406 C 155.207031 264.53125 155.105469 264.171875 154.816406 264.011719 C 154.535156 263.855469 154.171875 263.957031 154.015625 264.242188 L 113.746094 336.339844 C 113.589844 336.625 113.691406 336.984375 113.976562 337.144531 C 114.066406 337.195312 114.164062 337.21875 114.261719 337.21875 " fill-opacity="1" fill-rule="nonzero"/><path fill="#000000" d="M 232.679688 277.660156 C 232.925781 277.660156 233.152344 277.511719 233.238281 277.269531 C 233.347656 276.960938 233.1875 276.621094 232.882812 276.511719 L 181.507812 258.066406 C 181.199219 257.957031 180.859375 258.117188 180.75 258.421875 C 180.640625 258.730469 180.796875 259.070312 181.105469 259.179688 L 232.480469 277.625 C 232.546875 277.648438 232.617188 277.660156 232.679688 277.660156 " fill-opacity="1" fill-rule="nonzero"/><path fill="#000000" d="M 191.632812 90.164062 C 191.730469 90.074219 191.824219 89.980469 191.917969 89.890625 C 191.949219 89.863281 191.996094 89.90625 191.964844 89.9375 C 191.875 90.03125 191.785156 90.125 191.691406 90.222656 C 191.65625 90.261719 191.597656 90.199219 191.632812 90.164062 " fill-opacity="1" fill-rule="nonzero"/><path fill="#000000" d="M 339.515625 190.25 C 339.519531 190.25 339.527344 190.25 339.53125 190.25 C 339.859375 190.238281 340.117188 189.96875 340.105469 189.640625 C 339.65625 174.648438 336.410156 160.03125 330.464844 146.203125 C 330.335938 145.902344 329.988281 145.761719 329.6875 145.894531 C 329.386719 146.023438 329.246094 146.371094 329.375 146.671875 C 335.265625 160.363281 338.476562 174.832031 338.921875 189.675781 C 338.933594 189.996094 339.195312 190.25 339.515625 190.25 " fill-opacity="1" fill-rule="nonzero"/><path fill="#000000" d="M 262.382812 80.101562 C 262.605469 80.101562 262.816406 79.976562 262.917969 79.765625 C 263.058594 79.472656 262.933594 79.117188 262.640625 78.976562 C 248.921875 72.433594 234.195312 68.113281 218.875 66.128906 C 213.347656 65.417969 207.746094 65.011719 202.222656 64.929688 C 202.21875 64.929688 202.214844 64.929688 202.214844 64.929688 C 201.890625 64.929688 201.628906 65.1875 201.621094 65.511719 C 201.617188 65.835938 201.878906 66.105469 202.203125 66.109375 C 207.6875 66.195312 213.242188 66.597656 218.722656 67.304688 C 233.921875 69.273438 248.527344 73.558594 262.128906 80.042969 C 262.210938 80.082031 262.300781 80.101562 262.382812 80.101562 " fill-opacity="1" fill-rule="nonzero"/><path fill="#000000" d="M 327.199219 212.507812 C 327.476562 212.507812 327.722656 212.3125 327.78125 212.03125 C 329.042969 205.796875 329.683594 199.394531 329.683594 193 C 329.683594 175.660156 324.90625 158.472656 315.863281 143.292969 C 315.695312 143.015625 315.332031 142.921875 315.050781 143.089844 C 314.769531 143.257812 314.679688 143.621094 314.84375 143.898438 C 323.78125 158.894531 328.5 175.871094 328.5 193 C 328.5 199.316406 327.867188 205.640625 326.621094 211.796875 C 326.554688 212.117188 326.761719 212.429688 327.082031 212.492188 C 327.121094 212.503906 327.160156 212.507812 327.199219 212.507812 " fill-opacity="1" fill-rule="nonzero"/><path fill="#000000" d="M 320.984375 186.457031 C 321.121094 186.457031 321.257812 186.410156 321.371094 186.3125 C 321.457031 186.238281 323.472656 184.480469 323.101562 182.058594 C 322.980469 181.269531 322.371094 180.570312 321.722656 179.828125 C 321.089844 179.101562 320.433594 178.351562 320.285156 177.566406 C 320.171875 176.96875 320.5625 176.109375 320.941406 175.277344 C 321.445312 174.164062 321.964844 173.011719 321.695312 171.882812 C 321.480469 170.988281 320.546875 170.359375 319.648438 169.753906 C 318.984375 169.3125 318.234375 168.804688 318.105469 168.367188 C 317.933594 167.789062 318.339844 166.957031 318.695312 166.21875 C 318.984375 165.625 319.234375 165.109375 319.25 164.628906 C 319.257812 164.300781 319 164.03125 318.675781 164.023438 C 318.34375 164.011719 318.074219 164.269531 318.066406 164.597656 C 318.058594 164.820312 317.832031 165.289062 317.632812 165.703125 C 317.203125 166.585938 316.667969 167.6875 316.972656 168.703125 C 317.222656 169.550781 318.121094 170.152344 318.988281 170.738281 C 319.667969 171.195312 320.4375 171.710938 320.542969 172.160156 C 320.722656 172.894531 320.285156 173.855469 319.863281 174.789062 C 319.410156 175.789062 318.941406 176.820312 319.125 177.789062 C 319.332031 178.886719 320.128906 179.800781 320.832031 180.601562 C 321.339844 181.1875 321.863281 181.789062 321.933594 182.238281 C 322.199219 184.003906 320.613281 185.402344 320.597656 185.417969 C 320.351562 185.628906 320.324219 186.003906 320.539062 186.25 C 320.65625 186.386719 320.820312 186.457031 320.984375 186.457031 " fill-opacity="1" fill-rule="nonzero"/><path fill="#000000" d="M 315.613281 154.730469 C 316.75 154.730469 317.71875 155.605469 317.820312 156.757812 C 317.871094 157.347656 317.6875 157.925781 317.304688 158.375 C 316.921875 158.828125 316.386719 159.105469 315.796875 159.15625 C 314.585938 159.257812 313.507812 158.351562 313.402344 157.136719 C 313.300781 155.917969 314.207031 154.84375 315.421875 154.738281 C 315.488281 154.734375 315.550781 154.730469 315.613281 154.730469 Z M 315.609375 160.347656 C 315.703125 160.347656 315.800781 160.34375 315.898438 160.335938 C 316.804688 160.257812 317.625 159.832031 318.210938 159.140625 C 318.792969 158.445312 319.074219 157.5625 318.996094 156.660156 C 318.839844 154.792969 317.1875 153.40625 315.324219 153.558594 C 313.453125 153.71875 312.066406 155.367188 312.222656 157.234375 C 312.375 159.003906 313.863281 160.347656 315.609375 160.347656 " fill-opacity="1" fill-rule="nonzero"/><path fill="#000000" d="M 248.476562 64.007812 C 248.996094 64.007812 249.492188 64.1875 249.890625 64.523438 C 250.347656 64.902344 250.628906 65.433594 250.679688 66.023438 C 250.734375 66.613281 250.554688 67.1875 250.175781 67.644531 C 249.796875 68.097656 249.265625 68.378906 248.675781 68.433594 C 247.449219 68.542969 246.378906 67.644531 246.265625 66.425781 C 246.15625 65.207031 247.054688 64.128906 248.273438 64.015625 C 248.339844 64.011719 248.410156 64.007812 248.476562 64.007812 Z M 248.472656 69.625 C 248.574219 69.625 248.675781 69.621094 248.78125 69.609375 C 249.683594 69.527344 250.503906 69.097656 251.085938 68.402344 C 251.667969 67.703125 251.941406 66.820312 251.859375 65.917969 C 251.777344 65.015625 251.347656 64.195312 250.648438 63.613281 C 249.953125 63.03125 249.070312 62.757812 248.164062 62.839844 C 246.300781 63.007812 244.917969 64.667969 245.089844 66.53125 C 245.25 68.296875 246.734375 69.625 248.472656 69.625 " fill-opacity="1" fill-rule="nonzero"/><path fill="#000000" d="M 240.042969 62.242188 C 240.273438 63.011719 240.613281 64.199219 240.929688 65.472656 L 237.421875 64.636719 Z M 241.730469 66.863281 C 241.882812 66.863281 242.035156 66.804688 242.144531 66.691406 C 242.292969 66.550781 242.351562 66.339844 242.304688 66.140625 C 241.71875 63.5625 240.902344 61.019531 240.894531 60.992188 C 240.832031 60.800781 240.679688 60.65625 240.484375 60.605469 C 240.292969 60.554688 240.082031 60.601562 239.933594 60.738281 L 235.800781 64.515625 C 235.640625 64.660156 235.574219 64.886719 235.628906 65.097656 C 235.683594 65.3125 235.851562 65.476562 236.0625 65.527344 L 241.59375 66.847656 C 241.636719 66.855469 241.683594 66.863281 241.730469 66.863281 " fill-opacity="1" fill-rule="nonzero"/><path fill="#000000" d="M 207.289062 73.945312 C 207.359375 73.945312 207.429688 73.941406 207.503906 73.933594 C 208.378906 73.84375 209.136719 73.070312 209.871094 72.328125 C 210.449219 71.746094 211.097656 71.082031 211.558594 71.058594 C 212.320312 71.023438 213.175781 71.628906 214.015625 72.214844 C 214.914062 72.847656 215.84375 73.5 216.824219 73.5 C 216.824219 73.5 216.824219 73.5 216.828125 73.5 C 217.945312 73.496094 218.988281 72.882812 219.910156 72.34375 C 220.574219 71.953125 221.265625 71.542969 221.71875 71.5625 C 223.503906 71.625 224.585938 73.445312 224.597656 73.464844 C 224.761719 73.742188 225.125 73.839844 225.402344 73.675781 C 225.6875 73.511719 225.78125 73.152344 225.621094 72.871094 C 225.5625 72.773438 224.207031 70.46875 221.761719 70.378906 C 220.976562 70.355469 220.160156 70.824219 219.308594 71.324219 C 218.480469 71.808594 217.621094 72.316406 216.824219 72.316406 C 216.214844 72.316406 215.441406 71.773438 214.695312 71.25 C 213.691406 70.546875 212.65625 69.820312 211.5 69.878906 C 210.578125 69.925781 209.792969 70.722656 209.03125 71.496094 C 208.46875 72.066406 207.835938 72.707031 207.378906 72.753906 C 206.777344 72.820312 206.035156 72.265625 205.378906 71.777344 C 204.847656 71.382812 204.386719 71.042969 203.917969 70.9375 C 203.59375 70.871094 203.285156 71.074219 203.214844 71.390625 C 203.144531 71.710938 203.347656 72.027344 203.667969 72.09375 C 203.886719 72.140625 204.304688 72.453125 204.675781 72.726562 C 205.410156 73.273438 206.3125 73.945312 207.289062 73.945312 " fill-opacity="1" fill-rule="nonzero"/><path fill="#ffffff" d="M 182.90625 50.535156 L 182.90625 64.121094 C 182.90625 65.375 181.878906 66.386719 180.625 66.359375 C 176.292969 66.269531 166.492188 66.546875 157.621094 70.179688 C 156.339844 70.703125 154.894531 69.960938 154.585938 68.613281 L 151.015625 53.078125 C 150.75 51.914062 151.445312 50.742188 152.59375 50.421875 C 156.273438 49.40625 165.132812 47.636719 180.765625 48.300781 C 181.960938 48.347656 182.90625 49.335938 182.90625 50.535156 " fill-opacity="1" fill-rule="nonzero"/><path fill="#ffffff" d="M 196.3125 54.382812 L 196.3125 67.972656 C 196.3125 69.222656 195.289062 70.234375 194.035156 70.210938 C 189.699219 70.121094 179.902344 70.394531 171.027344 74.027344 C 169.746094 74.550781 168.304688 73.8125 167.992188 72.460938 L 164.425781 56.925781 C 164.160156 55.761719 164.851562 54.589844 166.003906 54.269531 C 169.683594 53.253906 178.542969 51.484375 194.171875 52.148438 C 195.367188 52.195312 196.3125 53.1875 196.3125 54.382812 " fill-opacity="1" fill-rule="nonzero"/><path fill="#000000" d="M 192.679688 69.605469 C 187.5 69.605469 178.828125 70.195312 170.804688 73.480469 C 170.355469 73.664062 169.847656 73.640625 169.414062 73.417969 C 168.988281 73.199219 168.679688 72.800781 168.570312 72.328125 L 165.003906 56.792969 C 164.804688 55.933594 165.316406 55.074219 166.160156 54.839844 C 170.011719 53.773438 178.765625 52.085938 194.144531 52.734375 C 195.03125 52.773438 195.722656 53.496094 195.722656 54.382812 L 195.722656 67.96875 C 195.722656 68.417969 195.546875 68.835938 195.226562 69.148438 C 194.910156 69.460938 194.492188 69.621094 194.046875 69.617188 C 193.625 69.609375 193.167969 69.605469 192.679688 69.605469 Z M 170.171875 74.789062 C 170.539062 74.789062 170.90625 74.714844 171.25 74.574219 C 180.15625 70.929688 190.144531 70.71875 194.023438 70.800781 C 194.789062 70.816406 195.507812 70.527344 196.054688 69.992188 C 196.601562 69.457031 196.90625 68.738281 196.90625 67.96875 L 196.90625 54.382812 C 196.90625 52.859375 195.714844 51.621094 194.195312 51.554688 C 178.65625 50.894531 169.765625 52.617188 165.847656 53.699219 C 164.386719 54.101562 163.511719 55.578125 163.851562 57.058594 L 167.417969 72.59375 C 167.601562 73.402344 168.132812 74.085938 168.871094 74.472656 C 169.277344 74.679688 169.726562 74.789062 170.171875 74.789062 " fill-opacity="1" fill-rule="nonzero"/><path fill="#000000" d="M 180.859375 64.316406 C 182.261719 64.316406 183.648438 63.859375 184.8125 62.964844 L 194.464844 55.589844 C 194.726562 55.390625 194.773438 55.019531 194.578125 54.761719 C 194.378906 54.5 194.007812 54.449219 193.746094 54.648438 L 184.09375 62.027344 C 182.492188 63.25 180.378906 63.476562 178.578125 62.609375 L 167.1875 57.15625 C 166.894531 57.015625 166.542969 57.140625 166.398438 57.4375 C 166.257812 57.730469 166.382812 58.082031 166.679688 58.226562 L 178.066406 63.679688 C 178.960938 64.105469 179.914062 64.316406 180.859375 64.316406 " fill-opacity="1" fill-rule="nonzero"/><path fill="#000000" d="M 169.492188 142.714844 L 132 173.507812 C 129.253906 175.765625 125.570312 175.820312 123.773438 173.632812 L 120.816406 170.03125 C 119.019531 167.84375 119.785156 164.242188 122.535156 161.984375 L 160.027344 131.191406 L 169.492188 142.714844 " fill-opacity="1" fill-rule="nonzero"/><path fill="#000000" d="M 72.484375 68.914062 C 67.097656 78.292969 67.378906 88.566406 73.113281 91.859375 C 78.847656 95.152344 87.859375 90.21875 93.246094 80.839844 C 98.632812 71.457031 98.351562 61.183594 92.617188 57.894531 C 86.882812 54.601562 77.871094 59.535156 72.484375 68.914062 " fill-opacity="1" fill-rule="nonzero"/><path fill="#000000" d="M 187.871094 125.121094 L 178.386719 141.636719 C 176.925781 144.179688 172.496094 144.378906 168.488281 142.078125 L 183.265625 116.347656 C 187.269531 118.648438 189.332031 122.574219 187.871094 125.121094 " fill-opacity="1" fill-rule="nonzero"/><path fill="#ffffff" d="M 111.09375 39.105469 L 117.519531 42.796875 L 185.910156 117.871094 L 171.136719 143.597656 L 71.824219 122.375 L 65.398438 118.6875 L 111.09375 39.105469 " fill-opacity="1" fill-rule="nonzero"/><path fill="#000000" d="M 185.183594 117.945312 L 170.839844 142.929688 L 72.035156 121.8125 L 66.207031 118.464844 L 111.3125 39.914062 L 117.144531 43.257812 Z M 171.136719 144.1875 C 171.34375 144.1875 171.542969 144.078125 171.648438 143.890625 L 186.421875 118.164062 C 186.550781 117.9375 186.523438 117.660156 186.347656 117.46875 L 117.953125 42.394531 C 117.914062 42.347656 117.863281 42.308594 117.8125 42.28125 L 111.390625 38.589844 C 111.253906 38.511719 111.089844 38.492188 110.941406 38.535156 C 110.789062 38.574219 110.660156 38.675781 110.582031 38.8125 L 64.882812 118.390625 C 64.722656 118.675781 64.820312 119.035156 65.105469 119.195312 L 71.53125 122.886719 C 71.582031 122.917969 71.640625 122.941406 71.699219 122.953125 L 171.011719 144.175781 C 171.050781 144.183594 171.09375 144.1875 171.136719 144.1875 " fill-opacity="1" fill-rule="nonzero"/><path fill="#000000" d="M 61.652344 81.671875 L 48.507812 86.390625 C 45.882812 87.335938 42.953125 86.449219 41.285156 84.210938 L 33.679688 73.976562 L 61.652344 81.671875 " fill-opacity="1" fill-rule="nonzero"/><path fill="#000000" d="M 34.746094 55.515625 L 47.050781 54.835938 L 46.929688 57.707031 C 46.78125 61.273438 49.1875 64.445312 52.660156 65.265625 L 64.914062 68.15625 L 60.324219 63.875 C 57.644531 61.375 56.871094 57.4375 58.410156 54.113281 L 59.71875 51.277344 C 61.128906 48.230469 59.578125 44.628906 56.390625 43.5625 L 38.460938 37.570312 L 34.746094 55.515625 " fill-opacity="1" fill-rule="nonzero"/><path fill="#000000" d="M 69.535156 36.199219 L 70.980469 58.097656 L 71.921875 57.214844 C 73.25 55.96875 74.175781 54.347656 74.574219 52.570312 L 78.054688 37.027344 C 78.304688 35.917969 77.53125 34.835938 76.402344 34.707031 L 71.660156 34.167969 C 70.476562 34.035156 69.453125 35.007812 69.535156 36.199219 " fill-opacity="1" fill-rule="nonzero"/><path fill="#000000" d="M 184.941406 117.976562 L 170.742188 142.710938 L 72.109375 121.628906 L 66.480469 118.394531 L 111.386719 40.183594 L 117.023438 43.417969 Z M 171.136719 144.390625 C 171.417969 144.390625 171.679688 144.242188 171.820312 143.992188 L 186.597656 118.261719 C 186.765625 117.964844 186.726562 117.59375 186.496094 117.335938 L 118.101562 42.265625 C 118.046875 42.203125 117.984375 42.152344 117.910156 42.109375 L 111.492188 38.421875 C 111.308594 38.320312 111.09375 38.292969 110.890625 38.347656 C 110.6875 38.398438 110.515625 38.535156 110.410156 38.714844 L 64.71875 118.292969 C 64.5 118.671875 64.628906 119.152344 65.007812 119.371094 L 71.433594 123.058594 C 71.503906 123.101562 71.582031 123.128906 71.660156 123.148438 L 170.972656 144.371094 C 171.027344 144.382812 171.082031 144.390625 171.136719 144.390625 " fill-opacity="1" fill-rule="nonzero"/><path fill="#000000" d="M 62.019531 121.558594 L 67.382812 124.636719 C 69.699219 125.964844 72.648438 124.957031 73.675781 122.492188 C 85.203125 94.90625 100.136719 68.839844 118.570312 44.332031 C 120.175781 42.203125 119.558594 39.152344 117.242188 37.824219 L 111.882812 34.746094 C 109.964844 33.644531 107.527344 34.125 106.175781 35.878906 C 86.90625 60.824219 71.546875 87.550781 60.113281 116.070312 C 59.292969 118.117188 60.105469 120.460938 62.019531 121.558594 " fill-opacity="1" fill-rule="nonzero"/><path fill="#000000" d="M 184.839844 313.304688 C 185.144531 313.304688 185.402344 313.074219 185.429688 312.765625 C 185.457031 312.4375 185.214844 312.152344 184.890625 312.125 C 176.5625 311.40625 168.347656 309.585938 160.476562 306.703125 C 154.546875 304.53125 148.824219 301.761719 143.472656 298.472656 C 143.191406 298.304688 142.828125 298.390625 142.660156 298.667969 C 142.488281 298.945312 142.574219 299.308594 142.851562 299.480469 C 148.273438 302.8125 154.066406 305.613281 160.070312 307.8125 C 168.039062 310.730469 176.355469 312.578125 184.789062 313.300781 C 184.808594 313.304688 184.824219 313.304688 184.839844 313.304688 " fill-opacity="1" fill-rule="nonzero"/><path fill="#000000" d="M 186.1875 308.84375 C 186.40625 308.84375 186.617188 308.722656 186.71875 308.515625 C 186.863281 308.222656 186.742188 307.863281 186.449219 307.71875 C 186.25 307.621094 185.917969 307.21875 185.628906 306.863281 C 185.003906 306.105469 184.226562 305.160156 183.175781 305.011719 C 182.300781 304.886719 181.378906 305.449219 180.488281 305.996094 C 179.785156 306.421875 178.992188 306.902344 178.542969 306.816406 C 177.804688 306.671875 177.113281 305.871094 176.441406 305.101562 C 175.722656 304.269531 174.976562 303.414062 174.019531 303.175781 C 172.9375 302.90625 171.773438 303.25 170.75 303.554688 C 170.011719 303.769531 169.246094 303.996094 168.804688 303.871094 C 167.089844 303.378906 166.480469 301.351562 166.472656 301.332031 C 166.382812 301.019531 166.054688 300.839844 165.742188 300.929688 C 165.429688 301.019531 165.246094 301.34375 165.335938 301.660156 C 165.367188 301.769531 166.128906 304.335938 168.480469 305.007812 C 169.246094 305.230469 170.140625 304.964844 171.085938 304.6875 C 172.007812 304.414062 172.964844 304.132812 173.738281 304.324219 C 174.328125 304.472656 174.949219 305.1875 175.546875 305.875 C 176.347656 306.800781 177.175781 307.753906 178.316406 307.976562 C 179.21875 308.15625 180.175781 307.570312 181.105469 307.003906 C 181.785156 306.589844 182.554688 306.121094 183.007812 306.183594 C 183.605469 306.269531 184.195312 306.984375 184.714844 307.613281 C 185.132812 308.128906 185.5 308.570312 185.925781 308.78125 C 186.011719 308.824219 186.101562 308.84375 186.1875 308.84375 " fill-opacity="1" fill-rule="nonzero"/><path fill="#000000" d="M 194.425781 306.464844 C 194.679688 306.464844 194.933594 306.507812 195.179688 306.597656 C 195.734375 306.796875 196.179688 307.203125 196.433594 307.738281 C 196.683594 308.273438 196.714844 308.875 196.511719 309.433594 C 196.097656 310.582031 194.824219 311.183594 193.675781 310.769531 C 193.117188 310.566406 192.671875 310.160156 192.421875 309.625 C 192.167969 309.089844 192.140625 308.488281 192.339844 307.929688 C 192.542969 307.375 192.949219 306.929688 193.484375 306.675781 C 193.785156 306.535156 194.101562 306.464844 194.425781 306.464844 Z M 194.421875 312.082031 C 195.816406 312.082031 197.128906 311.21875 197.625 309.835938 C 197.933594 308.980469 197.890625 308.058594 197.503906 307.234375 C 197.117188 306.414062 196.433594 305.792969 195.578125 305.484375 C 194.726562 305.175781 193.804688 305.21875 192.980469 305.605469 C 192.160156 305.996094 191.539062 306.675781 191.230469 307.53125 C 190.921875 308.386719 190.964844 309.308594 191.351562 310.128906 C 191.738281 310.953125 192.421875 311.574219 193.277344 311.882812 C 193.65625 312.015625 194.042969 312.082031 194.421875 312.082031 " fill-opacity="1" fill-rule="nonzero"/><path fill="#000000" d="M 316.46875 334.410156 L 318.054688 336.511719 C 319.9375 338.996094 319.542969 342.519531 317.160156 344.53125 L 311.632812 349.191406 C 307.570312 352.617188 302.433594 354.492188 297.125 354.492188 L 282.953125 354.703125 C 281.152344 354.726562 280.390625 352.414062 281.855469 351.367188 C 286.453125 348.070312 290.792969 344.835938 291.914062 342.023438 L 316.46875 334.410156 " fill-opacity="1" fill-rule="nonzero"/><path fill="#000000" d="M 256.507812 340.003906 C 256.507812 340.003906 253.519531 351.957031 250.355469 352.480469 C 247.191406 353.003906 211.839844 346.078125 213.097656 343.648438 C 214.164062 341.59375 230.308594 339.4375 232.085938 334.792969 C 233.140625 332.03125 256.507812 340.003906 256.507812 340.003906 " fill-opacity="1" fill-rule="nonzero"/><path fill="#ffffff" d="M 267 178.503906 C 267 178.503906 286.503906 188.492188 299.421875 210.640625 C 312.339844 232.789062 336.332031 330.949219 336.332031 330.949219 C 336.332031 330.949219 316.492188 343.640625 286.140625 344.558594 C 286.140625 344.558594 278.988281 284.695312 268.917969 253.773438 C 268.917969 253.773438 268.363281 310.875 260.972656 340.945312 C 260.972656 340.945312 230.902344 338.582031 220.414062 334.792969 C 220.414062 334.792969 244.007812 210.097656 246.976562 183.109375 L 267 178.503906 " fill-opacity="1" fill-rule="nonzero"/><path fill="#000000" d="M 335.65625 330.667969 C 332.859375 332.339844 314 342.992188 286.664062 343.949219 C 285.914062 337.886719 278.945312 282.65625 269.480469 253.589844 C 269.390625 253.316406 269.113281 253.144531 268.828125 253.1875 C 268.542969 253.234375 268.328125 253.476562 268.328125 253.769531 C 268.320312 254.335938 267.695312 310.523438 260.515625 340.316406 C 256.605469 339.988281 231.015625 337.761719 221.089844 334.402344 C 222.71875 325.78125 244.492188 210.242188 247.515625 183.589844 L 266.917969 179.128906 C 268.945312 180.226562 286.90625 190.355469 298.910156 210.9375 C 311.210938 232.023438 333.925781 323.644531 335.65625 330.667969 Z M 286.140625 345.148438 C 286.144531 345.148438 286.152344 345.148438 286.160156 345.148438 C 316.324219 344.238281 336.453125 331.574219 336.652344 331.445312 C 336.863281 331.308594 336.96875 331.054688 336.90625 330.808594 C 336.667969 329.824219 312.746094 232.308594 299.933594 210.34375 C 287.074219 188.300781 267.464844 178.078125 267.269531 177.976562 C 267.144531 177.914062 267.003906 177.894531 266.867188 177.929688 L 246.84375 182.53125 C 246.597656 182.589844 246.414062 182.792969 246.386719 183.042969 C 243.457031 209.703125 220.070312 333.4375 219.835938 334.683594 C 219.78125 334.96875 219.941406 335.25 220.214844 335.351562 C 230.65625 339.121094 259.695312 341.4375 260.925781 341.535156 C 261.207031 341.554688 261.476562 341.367188 261.546875 341.085938 C 267.789062 315.695312 269.171875 270.585938 269.445312 257.453125 C 278.816406 288.792969 285.484375 344.050781 285.554688 344.625 C 285.589844 344.925781 285.84375 345.148438 286.140625 345.148438 " fill-opacity="1" fill-rule="nonzero"/><path fill="#ffffff" d="M 251.773438 220.277344 L 256.671875 220.277344 C 256.671875 220.277344 265.429688 237.742188 269.164062 254.542969 L 251.773438 220.277344 " fill-opacity="1" fill-rule="nonzero"/><path fill="#000000" d="M 269.164062 255.132812 C 269.207031 255.132812 269.25 255.128906 269.292969 255.117188 C 269.613281 255.050781 269.8125 254.734375 269.742188 254.414062 C 266.035156 237.734375 257.289062 220.1875 257.199219 220.011719 C 257.097656 219.8125 256.894531 219.6875 256.671875 219.6875 L 251.773438 219.6875 C 251.449219 219.6875 251.183594 219.953125 251.183594 220.277344 C 251.183594 220.605469 251.449219 220.871094 251.773438 220.871094 L 256.304688 220.871094 C 257.511719 223.339844 265.1875 239.382812 268.585938 254.671875 C 268.648438 254.945312 268.894531 255.132812 269.164062 255.132812 " fill-opacity="1" fill-rule="nonzero"/><path fill="#000000" d="M 316.46875 335.003906 C 316.507812 335.003906 316.546875 335 316.589844 334.992188 C 316.910156 334.925781 317.113281 334.613281 317.046875 334.292969 C 317.027344 334.191406 314.941406 324.226562 311.988281 310.53125 C 311.917969 310.210938 311.601562 310.007812 311.285156 310.078125 C 310.964844 310.144531 310.765625 310.460938 310.832031 310.78125 C 313.78125 324.472656 315.867188 334.433594 315.890625 334.535156 C 315.949219 334.8125 316.195312 335.003906 316.46875 335.003906 " fill-opacity="1" fill-rule="nonzero"/><path fill="#000000" d="M 309.414062 302.019531 C 309.453125 302.019531 309.496094 302.019531 309.539062 302.007812 C 309.859375 301.9375 310.058594 301.625 309.992188 301.304688 L 309.476562 298.949219 C 309.40625 298.628906 309.09375 298.425781 308.773438 298.496094 C 308.453125 298.566406 308.253906 298.878906 308.320312 299.199219 L 308.835938 301.554688 C 308.894531 301.832031 309.140625 302.019531 309.414062 302.019531 " fill-opacity="1" fill-rule="nonzero"/><path fill="#000000" d="M 308.117188 296.09375 C 308.160156 296.09375 308.203125 296.089844 308.246094 296.078125 C 308.5625 296.007812 308.765625 295.691406 308.695312 295.375 C 304.507812 276.25 298.703125 250.421875 294.84375 236.011719 C 287.402344 208.214844 271.445312 190.757812 271.285156 190.585938 C 271.0625 190.34375 270.6875 190.332031 270.449219 190.550781 C 270.210938 190.773438 270.195312 191.148438 270.417969 191.386719 C 270.574219 191.558594 286.339844 208.816406 293.703125 236.316406 C 297.554688 250.707031 303.355469 276.511719 307.542969 295.625 C 307.601562 295.902344 307.847656 296.09375 308.117188 296.09375 " fill-opacity="1" fill-rule="nonzero"/><path fill="#000000" d="M 277.777344 206.824219 C 277.980469 206.824219 278.183594 206.820312 278.390625 206.8125 C 278.71875 206.804688 278.976562 206.53125 278.964844 206.207031 C 278.957031 205.878906 278.695312 205.613281 278.359375 205.628906 C 263.808594 206.027344 262.261719 191.546875 262.199219 190.929688 C 262.167969 190.605469 261.875 190.367188 261.554688 190.398438 C 261.230469 190.429688 260.992188 190.714844 261.023438 191.042969 C 261.039062 191.203125 262.699219 206.824219 277.777344 206.824219 " fill-opacity="1" fill-rule="nonzero"/><path fill="#000000" d="M 251.199219 128.417969 C 252.550781 129.4375 256.613281 132.515625 260.238281 131.292969 C 263.226562 130.285156 263.730469 127.097656 265.71875 127.273438 C 267.660156 127.441406 267.519531 130.496094 269.902344 131.902344 C 273.574219 134.066406 277.503906 128.945312 284.0625 129.304688 C 288.902344 129.570312 289.226562 132.496094 294.804688 134.273438 C 300.320312 136.03125 310.039062 136.371094 315.207031 130.304688 C 320.699219 123.863281 318.792969 112.851562 313.320312 106.800781 C 306.503906 99.265625 295.160156 100.53125 294.648438 100.597656 C 288.601562 101.363281 286.9375 104.375 282.675781 103.285156 C 277.535156 101.972656 278.203125 97.136719 272.1875 94 C 267.0625 91.328125 259.664062 91.234375 254.769531 94.417969 C 251.4375 96.585938 251.527344 98.800781 248.734375 99.367188 C 244.3125 100.261719 242.25 95.09375 237.351562 95.46875 C 233.667969 95.75 229.855469 99.300781 229.164062 103.652344 C 228.707031 106.554688 229.574219 110.242188 232.089844 112.132812 C 235.277344 114.535156 238.464844 112.0625 241.882812 114.722656 C 243.007812 115.59375 242.746094 115.925781 245.324219 120.234375 C 247.992188 124.679688 249.28125 126.960938 251.199219 128.417969 " fill-opacity="1" fill-rule="nonzero"/><path fill="#ffffff" d="M 242.507812 164.179688 C 242.460938 164.105469 224.476562 139.355469 222.730469 138.082031 C 220.984375 136.8125 217.679688 139.472656 216.441406 140.78125 C 215.199219 142.089844 211.699219 146.3125 211.699219 146.3125 C 211.699219 146.3125 213.070312 147.347656 213.828125 146.332031 C 214.582031 145.3125 218.492188 142.597656 218.492188 142.597656 L 216.191406 146.070312 C 216.191406 146.070312 218.265625 146.890625 219.78125 146.101562 C 219.78125 146.101562 220.285156 150.035156 224.671875 149.929688 C 224.671875 149.929688 227.585938 168.289062 231.472656 170.703125 C 235.355469 173.117188 247.980469 172.765625 242.507812 164.179688 " fill-opacity="1" fill-rule="nonzero"/><path fill="#000000" d="M 242.507812 164.179688 L 242.503906 164.179688 Z M 242.015625 164.507812 C 243.507812 166.855469 243.671875 168.644531 242.503906 169.824219 C 240.324219 172.03125 234.140625 171.664062 231.785156 170.203125 C 228.785156 168.339844 226.054688 154.867188 225.257812 149.835938 C 225.210938 149.542969 224.945312 149.324219 224.660156 149.335938 C 224.605469 149.339844 224.554688 149.339844 224.503906 149.339844 C 220.859375 149.339844 220.386719 146.160156 220.367188 146.023438 C 220.339844 145.832031 220.222656 145.664062 220.054688 145.574219 C 219.882812 145.488281 219.679688 145.484375 219.507812 145.574219 C 218.753906 145.964844 217.785156 145.867188 217.132812 145.722656 L 218.984375 142.925781 C 219.140625 142.6875 219.109375 142.375 218.90625 142.175781 C 218.703125 141.976562 218.386719 141.953125 218.152344 142.113281 C 217.746094 142.398438 214.144531 144.914062 213.351562 145.980469 C 213.234375 146.136719 213.121094 146.171875 213.035156 146.183594 C 212.902344 146.199219 212.757812 146.175781 212.621094 146.128906 C 213.617188 144.9375 215.925781 142.183594 216.871094 141.1875 C 218.375 139.605469 221.164062 137.671875 222.378906 138.558594 C 223.964844 139.710938 241.179688 163.324219 242.015625 164.507812 Z M 237.191406 172.570312 C 239.59375 172.570312 242.003906 172.011719 243.34375 170.65625 C 244.453125 169.539062 245.292969 167.449219 243.007812 163.859375 C 242.832031 163.589844 224.953125 138.96875 223.078125 137.605469 C 220.480469 135.71875 216.058594 140.328125 216.011719 140.375 C 214.773438 141.683594 211.386719 145.761719 211.242188 145.933594 C 211.140625 146.058594 211.09375 146.21875 211.113281 146.382812 C 211.128906 146.539062 211.214844 146.6875 211.34375 146.785156 C 211.4375 146.855469 212.292969 147.484375 213.203125 147.351562 C 213.644531 147.289062 214.023438 147.058594 214.300781 146.683594 C 214.554688 146.339844 215.296875 145.710938 216.167969 145.035156 L 215.699219 145.742188 C 215.601562 145.890625 215.578125 146.078125 215.628906 146.246094 C 215.683594 146.417969 215.808594 146.554688 215.972656 146.617188 C 216.058594 146.652344 217.78125 147.320312 219.371094 146.890625 C 219.757812 148.082031 220.917969 150.367188 224.167969 150.515625 C 224.726562 153.878906 227.402344 168.871094 231.160156 171.207031 C 232.503906 172.039062 234.84375 172.570312 237.191406 172.570312 " fill-opacity="1" fill-rule="nonzero"/><path fill="#000000" d="M 223.347656 143.648438 C 223.519531 143.648438 223.691406 143.570312 223.804688 143.425781 C 224.011719 143.171875 223.972656 142.800781 223.71875 142.597656 L 221.128906 140.496094 C 220.921875 140.328125 220.628906 140.320312 220.414062 140.476562 L 218.144531 142.121094 C 217.878906 142.3125 217.820312 142.683594 218.011719 142.945312 C 218.203125 143.210938 218.574219 143.269531 218.839844 143.078125 L 220.738281 141.699219 L 222.976562 143.515625 C 223.085938 143.601562 223.214844 143.648438 223.347656 143.648438 " fill-opacity="1" fill-rule="nonzero"/><path fill="#000000" d="M 257.777344 129.066406 C 263.65625 128.625 268.214844 133.382812 271.835938 137.152344 C 272.726562 138.082031 273.398438 138.871094 273.988281 139.710938 C 281.347656 150.171875 284.492188 161.457031 284.492188 161.457031 C 286.894531 171.542969 288.617188 178.761719 284.476562 183.5 C 279.890625 188.746094 270.238281 188.527344 267.425781 188.464844 C 263.269531 188.371094 263.355469 187.53125 259.890625 187.539062 C 249.335938 187.566406 243.023438 195.382812 241.140625 193.695312 C 239.574219 192.292969 245.070312 187.859375 244.5 180.265625 C 244.070312 174.5625 240.476562 170.46875 240.171875 164.519531 C 240.121094 163.519531 240.121094 162.1875 239.683594 160.28125 C 239 157.292969 237.898438 156.222656 238.257812 152.25 C 238.980469 144.246094 244.34375 138.707031 246.867188 136.097656 C 250.355469 132.496094 253.359375 129.394531 257.777344 129.066406 " fill-opacity="1" fill-rule="nonzero"/><path fill="#000000" d="M 220.414062 162.476562 C 220.226562 162.128906 207.054688 144.488281 204.324219 140.828125 C 204.023438 140.425781 203.511719 140.246094 203.027344 140.367188 L 195.03125 142.363281 C 194.164062 142.578125 193.800781 143.613281 194.34375 144.324219 L 208.71875 163.117188 L 220.414062 162.476562 " fill-opacity="1" fill-rule="nonzero"/><path fill="#ffffff" d="M 269.976562 144.625 C 269.535156 142.609375 267.019531 132.011719 261.925781 131.457031 C 258.355469 131.070312 255.117188 135.796875 253.722656 137.828125 C 247.082031 147.515625 251.621094 154.753906 245.363281 162.390625 C 244.574219 163.351562 240.414062 168.429688 234.328125 168.488281 C 229.230469 168.539062 223.480469 165.066406 221.714844 160.421875 C 220.519531 157.273438 221.511719 154.519531 219.195312 152.671875 C 218.148438 151.835938 217.578125 152.113281 214.9375 150.589844 C 212.640625 149.269531 211.609375 148.222656 211.269531 148.496094 C 210.621094 149.015625 214.011719 153.054688 213.03125 154.292969 C 211.792969 155.851562 204.960938 151.34375 204.003906 152.609375 C 203.320312 153.523438 205.816406 157.210938 209.335938 159.160156 C 211.828125 160.542969 214.273438 160.742188 215.734375 160.734375 C 217.257812 164.699219 221.761719 174.789062 232.617188 181.4375 C 236.925781 184.074219 244.234375 188.550781 252.039062 186.757812 C 266.683594 183.394531 273.390625 160.210938 269.976562 144.625 " fill-opacity="1" fill-rule="nonzero"/><path fill="#000000" d="M 269.976562 144.625 L 269.972656 144.625 Z M 261.507812 132.027344 C 261.625 132.027344 261.742188 132.03125 261.863281 132.046875 C 266.5 132.546875 268.953125 142.71875 269.398438 144.75 C 271.09375 152.5 270.285156 161.960938 267.226562 170.066406 C 263.871094 178.960938 258.429688 184.683594 251.910156 186.179688 C 244.335938 187.921875 237.195312 183.546875 232.929688 180.933594 C 222.917969 174.800781 218.203125 165.515625 216.289062 160.523438 C 216.199219 160.292969 215.980469 160.144531 215.734375 160.144531 C 215.703125 160.144531 215.675781 160.144531 215.644531 160.144531 C 213.441406 160.144531 211.414062 159.640625 209.621094 158.644531 C 206.261719 156.78125 204.367188 153.632812 204.480469 152.984375 C 204.945312 152.839844 206.769531 153.554688 207.875 153.984375 C 210.289062 154.929688 212.570312 155.824219 213.492188 154.664062 C 214.296875 153.652344 213.394531 151.960938 212.523438 150.332031 C 212.378906 150.058594 212.207031 149.738281 212.066406 149.453125 C 212.171875 149.523438 212.285156 149.597656 212.390625 149.671875 C 212.9375 150.042969 213.6875 150.554688 214.644531 151.105469 C 216.066406 151.921875 216.917969 152.242188 217.539062 152.472656 C 218.078125 152.671875 218.402344 152.796875 218.828125 153.136719 C 220.0625 154.121094 220.214844 155.417969 220.40625 157.058594 C 220.535156 158.132812 220.675781 159.351562 221.164062 160.628906 C 222.949219 165.34375 228.851562 169.125 234.332031 169.078125 C 239.875 169.027344 243.90625 165.101562 245.820312 162.765625 C 249.039062 158.839844 249.496094 155.042969 249.976562 151.023438 C 250.457031 147.039062 250.953125 142.917969 254.210938 138.160156 C 255.488281 136.296875 258.417969 132.027344 261.507812 132.027344 Z M 248.335938 187.765625 C 249.589844 187.765625 250.875 187.632812 252.171875 187.335938 C 259.09375 185.746094 264.832031 179.761719 268.332031 170.484375 C 271.46875 162.171875 272.296875 152.460938 270.554688 144.496094 C 269.886719 141.445312 267.296875 131.445312 261.992188 130.867188 C 258.074219 130.441406 254.683594 135.382812 253.234375 137.492188 C 249.8125 142.488281 249.277344 146.949219 248.804688 150.882812 C 248.339844 154.726562 247.902344 158.355469 244.902344 162.019531 C 243.125 164.195312 239.378906 167.847656 234.320312 167.898438 C 229.300781 167.964844 223.894531 164.496094 222.269531 160.210938 C 221.835938 159.066406 221.707031 157.976562 221.582031 156.917969 C 221.375 155.160156 221.179688 153.496094 219.566406 152.210938 C 218.992188 151.753906 218.53125 151.582031 217.953125 151.367188 C 217.339844 151.136719 216.570312 150.851562 215.234375 150.078125 C 214.316406 149.550781 213.617188 149.074219 213.054688 148.695312 C 212.015625 147.988281 211.441406 147.597656 210.898438 148.035156 C 210.238281 148.566406 210.734375 149.488281 211.480469 150.886719 C 211.9375 151.742188 212.886719 153.523438 212.566406 153.925781 C 212.1875 154.40625 209.664062 153.414062 208.304688 152.886719 C 206.042969 151.996094 204.253906 151.296875 203.53125 152.253906 C 203.304688 152.558594 203.246094 152.960938 203.351562 153.453125 C 203.707031 155.132812 206.082031 158.035156 209.046875 159.679688 C 210.933594 160.722656 213.046875 161.277344 215.328125 161.324219 C 217.390625 166.535156 222.25 175.78125 232.3125 181.941406 C 236.019531 184.214844 241.816406 187.765625 248.335938 187.765625 " fill-opacity="1" fill-rule="nonzero"/><path fill="#ffffff" d="M 235.488281 107.527344 C 235.242188 108.726562 234.957031 109.238281 234.824219 110.292969 C 234.558594 112.441406 236.289062 116.75 234.824219 119.105469 C 235.519531 120.414062 236.527344 119.816406 237.378906 120.171875 C 237.570312 120.929688 239.238281 123.855469 240.070312 125.796875 C 240.363281 126.476562 241.121094 126.839844 241.828125 126.625 C 243.019531 126.265625 244.226562 125.6875 245.425781 124.859375 C 245.425781 124.859375 248.566406 130.582031 246.316406 139.886719 C 246.316406 139.886719 255.6875 132.507812 258.171875 130.074219 C 259.644531 128.632812 259.085938 129.191406 256.925781 126.863281 C 254.769531 124.535156 251.257812 116.261719 251.257812 116.261719 C 251.378906 116.058594 252.949219 113.363281 251.679688 111.292969 C 251.210938 110.535156 250.175781 109.5625 249.371094 109.824219 C 248.578125 110.085938 248.054688 111.511719 248.460938 113.324219 C 248.070312 113.128906 247.628906 112.832031 247.136719 112.476562 C 246.460938 111.988281 245.757812 111.375 245.644531 110.871094 C 238.753906 113.890625 239.414062 104.300781 235.488281 107.527344 " fill-opacity="1" fill-rule="nonzero"/><path fill="#000000" d="M 258.347656 129.046875 C 258.234375 129.1875 257.996094 129.417969 257.769531 129.644531 C 255.875 131.496094 249.894531 136.292969 247.238281 138.402344 C 248.816406 129.945312 246.070312 124.800781 245.945312 124.574219 C 245.867188 124.425781 245.726562 124.324219 245.5625 124.285156 C 245.402344 124.246094 245.230469 124.277344 245.089844 124.371094 C 243.980469 125.140625 242.824219 125.707031 241.65625 126.058594 C 241.238281 126.1875 240.789062 125.976562 240.617188 125.566406 C 240.214844 124.625 239.621094 123.464844 239.097656 122.4375 C 238.574219 121.417969 238.039062 120.359375 237.953125 120.027344 C 237.90625 119.84375 237.777344 119.695312 237.605469 119.625 C 237.226562 119.464844 236.847656 119.453125 236.515625 119.4375 C 236.058594 119.417969 235.769531 119.40625 235.511719 119.085938 C 236.324219 117.429688 235.976562 115.199219 235.664062 113.21875 C 235.488281 112.113281 235.324219 111.070312 235.414062 110.371094 C 235.484375 109.820312 235.597656 109.425781 235.730469 108.96875 C 235.824219 108.65625 235.925781 108.304688 236.023438 107.863281 C 236.433594 107.554688 236.78125 107.417969 237.058594 107.453125 C 237.585938 107.523438 238.101562 108.25 238.652344 109.019531 C 239.804688 110.632812 241.523438 113.042969 245.359375 111.628906 C 245.640625 112.03125 246.109375 112.464844 246.792969 112.957031 C 247.226562 113.269531 247.730469 113.621094 248.195312 113.855469 C 248.398438 113.957031 248.644531 113.933594 248.824219 113.792969 C 249.003906 113.652344 249.085938 113.417969 249.039062 113.195312 C 248.671875 111.5625 249.171875 110.515625 249.554688 110.390625 C 249.917969 110.269531 250.722656 110.871094 251.175781 111.605469 C 252.269531 113.390625 250.8125 115.855469 250.753906 115.957031 C 250.652344 116.121094 250.640625 116.320312 250.714844 116.496094 C 250.859375 116.835938 254.289062 124.890625 256.492188 127.265625 C 257.109375 127.929688 257.59375 128.363281 257.949219 128.679688 C 258.09375 128.808594 258.253906 128.949219 258.347656 129.046875 Z M 246.316406 140.480469 C 246.445312 140.480469 246.574219 140.4375 246.683594 140.351562 C 247.066406 140.050781 256.105469 132.925781 258.585938 130.5 C 259.261719 129.835938 259.597656 129.507812 259.585938 129.011719 C 259.574219 128.542969 259.242188 128.246094 258.734375 127.792969 C 258.398438 127.496094 257.9375 127.085938 257.359375 126.460938 C 255.511719 124.460938 252.535156 117.71875 251.917969 116.296875 C 252.359375 115.457031 253.425781 113.015625 252.183594 110.988281 C 251.628906 110.082031 250.371094 108.875 249.183594 109.265625 C 248.261719 109.570312 247.714844 110.730469 247.730469 112.175781 C 247.644531 112.117188 247.5625 112.054688 247.484375 111.996094 C 246.347656 111.179688 246.234375 110.785156 246.222656 110.742188 C 246.1875 110.570312 246.070312 110.425781 245.914062 110.34375 C 245.757812 110.265625 245.570312 110.257812 245.410156 110.332031 C 242.082031 111.789062 240.828125 110.03125 239.613281 108.332031 C 238.914062 107.347656 238.25 106.417969 237.214844 106.28125 C 236.554688 106.195312 235.867188 106.453125 235.113281 107.074219 C 235.011719 107.160156 234.9375 107.28125 234.910156 107.414062 C 234.808594 107.90625 234.703125 108.277344 234.597656 108.636719 C 234.453125 109.121094 234.320312 109.578125 234.242188 110.222656 C 234.132812 111.089844 234.308594 112.210938 234.496094 113.402344 C 234.796875 115.316406 235.136719 117.488281 234.324219 118.796875 C 234.214844 118.972656 234.203125 119.199219 234.304688 119.386719 C 234.925781 120.554688 235.816406 120.589844 236.46875 120.617188 C 236.632812 120.625 236.78125 120.632812 236.917969 120.652344 C 237.113281 121.140625 237.496094 121.902344 238.042969 122.976562 C 238.558594 123.984375 239.140625 125.128906 239.527344 126.03125 C 239.941406 126.992188 241.003906 127.492188 242 127.191406 C 243.078125 126.867188 244.144531 126.375 245.175781 125.730469 C 245.863281 127.390625 247.503906 132.460938 245.742188 139.75 C 245.683594 139.996094 245.785156 140.25 245.996094 140.386719 C 246.09375 140.449219 246.207031 140.480469 246.316406 140.480469 " fill-opacity="1" fill-rule="nonzero"/><path fill="#ffffff" d="M 249.535156 120.417969 C 249.535156 120.417969 248.5625 123.171875 245.625 124.730469 L 249.535156 120.417969 " fill-opacity="1" fill-rule="nonzero"/><path fill="#000000" d="M 245.628906 125.324219 C 245.722656 125.324219 245.816406 125.300781 245.90625 125.253906 C 249.007812 123.609375 250.050781 120.734375 250.09375 120.613281 C 250.203125 120.304688 250.039062 119.96875 249.730469 119.859375 C 249.421875 119.753906 249.085938 119.914062 248.976562 120.222656 C 248.964844 120.25 248.03125 122.789062 245.351562 124.207031 C 245.0625 124.359375 244.953125 124.71875 245.105469 125.007812 C 245.210938 125.207031 245.417969 125.324219 245.628906 125.324219 " fill-opacity="1" fill-rule="nonzero"/></svg>