<svg xmlns="http://www.w3.org/2000/svg" xmlns:xlink="http://www.w3.org/1999/xlink" width="500" zoomAndPan="magnify" viewBox="0 0 375 374.999991" height="500" preserveAspectRatio="xMidYMid meet" version="1.0"><defs><clipPath id="318af27b30"><path d="M 32.023438 5.65625 L 343.273438 5.65625 L 343.273438 369.40625 L 32.023438 369.40625 Z M 32.023438 5.65625 " clip-rule="nonzero"/></clipPath></defs><g clip-path="url(#318af27b30)"><path fill="#000000" d="M 343.101562 138.675781 C 341.128906 65.023438 272.148438 5.65625 187.621094 5.65625 C 103.097656 5.65625 34.113281 65.023438 32.144531 138.675781 L 32.09375 138.675781 L 32.09375 369.417969 L 343.152344 369.417969 L 343.152344 138.675781 Z M 343.101562 138.675781 " fill-opacity="1" fill-rule="nonzero"/></g><path fill="#ffffff" d="M 65.625 186.386719 L 309.621094 186.386719 C 310.460938 186.386719 311.304688 186.425781 312.140625 186.507812 C 312.980469 186.59375 313.8125 186.714844 314.640625 186.878906 C 315.464844 187.042969 316.28125 187.25 317.089844 187.492188 C 317.894531 187.738281 318.6875 188.019531 319.464844 188.34375 C 320.246094 188.664062 321.003906 189.023438 321.75 189.421875 C 322.492188 189.816406 323.214844 190.25 323.914062 190.71875 C 324.613281 191.1875 325.289062 191.6875 325.941406 192.222656 C 326.59375 192.753906 327.21875 193.320312 327.8125 193.914062 C 328.410156 194.511719 328.972656 195.132812 329.507812 195.785156 C 330.042969 196.4375 330.542969 197.109375 331.011719 197.8125 C 331.480469 198.511719 331.914062 199.234375 332.3125 199.976562 C 332.707031 200.71875 333.066406 201.476562 333.390625 202.253906 C 333.710938 203.035156 333.996094 203.824219 334.242188 204.632812 C 334.484375 205.4375 334.691406 206.253906 334.855469 207.078125 C 335.019531 207.902344 335.140625 208.734375 335.226562 209.574219 C 335.308594 210.410156 335.347656 211.25 335.347656 212.09375 C 335.347656 212.9375 335.308594 213.777344 335.226562 214.613281 C 335.140625 215.453125 335.019531 216.285156 334.855469 217.109375 C 334.691406 217.933594 334.484375 218.75 334.242188 219.554688 C 333.996094 220.363281 333.710938 221.152344 333.390625 221.933594 C 333.066406 222.710938 332.707031 223.46875 332.3125 224.210938 C 331.914062 224.957031 331.480469 225.675781 331.011719 226.375 C 330.542969 227.078125 330.042969 227.753906 329.507812 228.402344 C 328.972656 229.054688 328.410156 229.675781 327.8125 230.273438 C 327.21875 230.867188 326.59375 231.433594 325.941406 231.964844 C 325.289062 232.5 324.613281 233 323.914062 233.46875 C 323.214844 233.9375 322.492188 234.371094 321.75 234.765625 C 321.003906 235.164062 320.246094 235.523438 319.464844 235.84375 C 318.6875 236.167969 317.894531 236.449219 317.089844 236.695312 C 316.28125 236.941406 315.464844 237.144531 314.640625 237.308594 C 313.8125 237.472656 312.980469 237.597656 312.140625 237.679688 C 311.304688 237.761719 310.460938 237.800781 309.621094 237.800781 L 65.625 237.800781 C 64.78125 237.800781 63.941406 237.761719 63.101562 237.679688 C 62.265625 237.597656 61.433594 237.472656 60.605469 237.308594 C 59.777344 237.144531 58.960938 236.941406 58.15625 236.695312 C 57.351562 236.449219 56.558594 236.167969 55.777344 235.84375 C 55 235.523438 54.238281 235.164062 53.496094 234.765625 C 52.753906 234.371094 52.03125 233.9375 51.332031 233.46875 C 50.628906 233 49.953125 232.5 49.300781 231.964844 C 48.652344 231.433594 48.027344 230.867188 47.433594 230.273438 C 46.835938 229.675781 46.269531 229.054688 45.734375 228.402344 C 45.203125 227.753906 44.699219 227.078125 44.230469 226.375 C 43.765625 225.675781 43.332031 224.957031 42.933594 224.210938 C 42.535156 223.46875 42.175781 222.710938 41.855469 221.933594 C 41.53125 221.152344 41.25 220.363281 41.003906 219.554688 C 40.757812 218.75 40.554688 217.933594 40.390625 217.109375 C 40.226562 216.285156 40.101562 215.453125 40.019531 214.613281 C 39.9375 213.777344 39.894531 212.9375 39.894531 212.09375 C 39.894531 211.25 39.9375 210.410156 40.019531 209.574219 C 40.101562 208.734375 40.226562 207.902344 40.390625 207.078125 C 40.554688 206.253906 40.757812 205.4375 41.003906 204.632812 C 41.25 203.824219 41.53125 203.035156 41.855469 202.253906 C 42.175781 201.476562 42.535156 200.71875 42.933594 199.976562 C 43.332031 199.234375 43.765625 198.511719 44.230469 197.8125 C 44.699219 197.109375 45.203125 196.4375 45.734375 195.785156 C 46.269531 195.132812 46.835938 194.511719 47.433594 193.914062 C 48.027344 193.320312 48.652344 192.753906 49.300781 192.222656 C 49.953125 191.6875 50.628906 191.1875 51.332031 190.71875 C 52.03125 190.25 52.753906 189.816406 53.496094 189.421875 C 54.238281 189.023438 55 188.664062 55.777344 188.34375 C 56.558594 188.019531 57.351562 187.738281 58.15625 187.492188 C 58.960938 187.25 59.777344 187.042969 60.605469 186.878906 C 61.433594 186.714844 62.265625 186.59375 63.101562 186.507812 C 63.941406 186.425781 64.78125 186.386719 65.625 186.386719 Z M 65.625 186.386719 " fill-opacity="1" fill-rule="nonzero"/><path fill="#000000" d="M 309.621094 239.730469 L 65.625 239.730469 C 50.378906 239.730469 37.964844 227.328125 37.964844 212.09375 C 37.964844 196.859375 50.378906 184.457031 65.625 184.457031 L 309.621094 184.457031 C 324.867188 184.457031 337.28125 196.859375 337.28125 212.09375 C 337.28125 227.328125 324.867188 239.730469 309.621094 239.730469 Z M 65.625 188.316406 C 52.503906 188.316406 41.828125 198.980469 41.828125 212.09375 C 41.828125 225.207031 52.503906 235.871094 65.625 235.871094 L 309.621094 235.871094 C 322.742188 235.871094 333.417969 225.207031 333.417969 212.09375 C 333.417969 198.980469 322.742188 188.316406 309.621094 188.316406 Z M 65.625 188.316406 " fill-opacity="1" fill-rule="nonzero"/><path fill="#ffffff" d="M 70.800781 137.285156 L 70.800781 207.695312 C 70.800781 271.898438 123.367188 324.421875 187.621094 324.421875 C 251.878906 324.421875 304.445312 271.898438 304.445312 207.695312 L 304.445312 137.285156 Z M 70.800781 137.285156 " fill-opacity="1" fill-rule="nonzero"/><path fill="#000000" d="M 187.621094 326.351562 C 122.140625 326.351562 68.871094 273.121094 68.871094 207.695312 L 68.871094 135.355469 L 306.375 135.355469 L 306.375 207.695312 C 306.375 273.121094 253.101562 326.351562 187.621094 326.351562 Z M 72.734375 139.214844 L 72.734375 207.695312 C 72.734375 271 124.265625 322.492188 187.621094 322.492188 C 250.976562 322.492188 302.511719 271 302.511719 207.695312 L 302.511719 139.214844 Z M 72.734375 139.214844 " fill-opacity="1" fill-rule="nonzero"/><path fill="#000000" d="M 130.835938 210.9375 C 131.382812 210.9375 131.925781 210.988281 132.460938 211.097656 C 133 211.203125 133.519531 211.359375 134.027344 211.570312 C 134.535156 211.78125 135.015625 212.035156 135.46875 212.339844 C 135.925781 212.644531 136.347656 212.992188 136.734375 213.378906 C 137.121094 213.765625 137.46875 214.1875 137.773438 214.640625 C 138.078125 215.097656 138.332031 215.578125 138.542969 216.082031 C 138.753906 216.589844 138.910156 217.109375 139.019531 217.648438 C 139.125 218.183594 139.179688 218.726562 139.179688 219.273438 L 139.179688 229.464844 C 139.179688 230.011719 139.125 230.554688 139.019531 231.089844 C 138.910156 231.628906 138.753906 232.148438 138.542969 232.65625 C 138.332031 233.160156 138.078125 233.640625 137.773438 234.097656 C 137.46875 234.550781 137.121094 234.972656 136.734375 235.359375 C 136.347656 235.746094 135.925781 236.09375 135.46875 236.398438 C 135.015625 236.699219 134.535156 236.957031 134.027344 237.167969 C 133.519531 237.375 133 237.535156 132.460938 237.640625 C 131.925781 237.75 131.382812 237.800781 130.835938 237.800781 C 130.285156 237.800781 129.742188 237.75 129.207031 237.640625 C 128.667969 237.535156 128.148438 237.375 127.640625 237.167969 C 127.136719 236.957031 126.652344 236.699219 126.199219 236.398438 C 125.742188 236.09375 125.320312 235.746094 124.933594 235.359375 C 124.546875 234.972656 124.199219 234.550781 123.894531 234.097656 C 123.59375 233.640625 123.335938 233.160156 123.125 232.65625 C 122.914062 232.148438 122.757812 231.628906 122.648438 231.089844 C 122.542969 230.554688 122.488281 230.011719 122.488281 229.464844 L 122.488281 219.273438 C 122.488281 218.726562 122.542969 218.183594 122.648438 217.648438 C 122.757812 217.109375 122.914062 216.589844 123.125 216.082031 C 123.335938 215.578125 123.59375 215.097656 123.894531 214.640625 C 124.199219 214.1875 124.546875 213.765625 124.933594 213.378906 C 125.320312 212.992188 125.742188 212.644531 126.199219 212.339844 C 126.652344 212.035156 127.136719 211.78125 127.640625 211.570312 C 128.148438 211.359375 128.667969 211.203125 129.207031 211.097656 C 129.742188 210.988281 130.285156 210.9375 130.835938 210.9375 Z M 130.835938 210.9375 " fill-opacity="1" fill-rule="nonzero"/><path fill="#000000" d="M 244.410156 210.9375 C 244.957031 210.9375 245.5 210.988281 246.039062 211.097656 C 246.574219 211.203125 247.097656 211.359375 247.605469 211.570312 C 248.109375 211.78125 248.589844 212.035156 249.046875 212.339844 C 249.503906 212.644531 249.921875 212.992188 250.3125 213.378906 C 250.699219 213.765625 251.042969 214.1875 251.347656 214.640625 C 251.652344 215.097656 251.910156 215.578125 252.121094 216.082031 C 252.328125 216.589844 252.488281 217.109375 252.59375 217.648438 C 252.703125 218.183594 252.753906 218.726562 252.753906 219.273438 L 252.753906 229.464844 C 252.753906 230.011719 252.703125 230.554688 252.59375 231.089844 C 252.488281 231.628906 252.328125 232.148438 252.121094 232.65625 C 251.910156 233.160156 251.652344 233.640625 251.347656 234.097656 C 251.042969 234.550781 250.699219 234.972656 250.3125 235.359375 C 249.921875 235.746094 249.5 236.09375 249.046875 236.398438 C 248.589844 236.699219 248.109375 236.957031 247.605469 237.167969 C 247.097656 237.375 246.574219 237.535156 246.039062 237.640625 C 245.5 237.75 244.957031 237.800781 244.410156 237.800781 C 243.863281 237.800781 243.320312 237.75 242.78125 237.640625 C 242.246094 237.535156 241.722656 237.375 241.21875 237.167969 C 240.710938 236.957031 240.230469 236.699219 239.773438 236.398438 C 239.320312 236.09375 238.898438 235.746094 238.511719 235.359375 C 238.121094 234.972656 237.777344 234.550781 237.472656 234.097656 C 237.167969 233.640625 236.910156 233.160156 236.703125 232.65625 C 236.492188 232.148438 236.332031 231.628906 236.226562 231.089844 C 236.121094 230.554688 236.066406 230.011719 236.066406 229.464844 L 236.066406 219.273438 C 236.066406 218.726562 236.121094 218.183594 236.226562 217.648438 C 236.332031 217.109375 236.492188 216.589844 236.703125 216.082031 C 236.910156 215.578125 237.167969 215.097656 237.472656 214.640625 C 237.777344 214.1875 238.121094 213.765625 238.511719 213.378906 C 238.898438 212.992188 239.320312 212.644531 239.773438 212.339844 C 240.230469 212.035156 240.710938 211.78125 241.21875 211.570312 C 241.722656 211.359375 242.246094 211.203125 242.78125 211.097656 C 243.320312 210.988281 243.863281 210.9375 244.410156 210.9375 Z M 244.410156 210.9375 " fill-opacity="1" fill-rule="nonzero"/><path fill="#000000" d="M 187.621094 256.058594 C 180.554688 256.058594 173.894531 253.308594 168.886719 248.300781 C 168.125 247.542969 168.125 246.320312 168.886719 245.574219 C 169.644531 244.816406 170.871094 244.816406 171.617188 245.574219 C 175.890625 249.84375 181.582031 252.199219 187.621094 252.199219 C 193.660156 252.199219 199.339844 249.84375 203.628906 245.574219 C 204.386719 244.816406 205.613281 244.816406 206.359375 245.574219 C 207.117188 246.332031 207.117188 247.554688 206.359375 248.300781 C 201.347656 253.308594 194.691406 256.058594 187.621094 256.058594 Z M 187.621094 256.058594 " fill-opacity="1" fill-rule="nonzero"/><path fill="#000000" d="M 143.699219 196.332031 C 143.210938 196.332031 142.707031 196.140625 142.332031 195.765625 C 136.320312 189.757812 126.519531 189.757812 120.507812 195.765625 C 119.746094 196.523438 118.523438 196.523438 117.777344 195.765625 C 117.015625 195.007812 117.015625 193.785156 117.777344 193.039062 C 125.296875 185.523438 137.542969 185.523438 145.0625 193.039062 C 145.824219 193.796875 145.824219 195.019531 145.0625 195.765625 C 144.691406 196.140625 144.1875 196.332031 143.699219 196.332031 Z M 143.699219 196.332031 " fill-opacity="1" fill-rule="nonzero"/><path fill="#000000" d="M 231.546875 198.867188 C 231.058594 198.867188 230.554688 198.671875 230.179688 198.300781 C 229.421875 197.542969 229.421875 196.320312 230.179688 195.574219 C 237.703125 188.058594 249.949219 188.058594 257.46875 195.574219 C 258.226562 196.332031 258.226562 197.554688 257.46875 198.300781 C 256.707031 199.046875 255.484375 199.058594 254.738281 198.300781 C 248.722656 192.292969 238.925781 192.292969 232.910156 198.300781 C 232.539062 198.671875 232.035156 198.867188 231.546875 198.867188 Z M 231.546875 198.867188 " fill-opacity="1" fill-rule="nonzero"/><path fill="#000000" d="M 315.519531 129 C 301.625 115.371094 281.03125 102.183594 257.53125 91.878906 C 213.429688 72.527344 172.53125 68.84375 157.707031 81.738281 C 145.589844 84.324219 132.804688 88.222656 120.019531 93.304688 C 96.167969 102.789062 75.128906 115.257812 60.769531 128.394531 C 45.949219 141.957031 39.921875 154.796875 43.8125 164.550781 C 47.582031 174.007812 60.125 179.179688 79.210938 179.179688 C 79.800781 179.179688 80.394531 179.179688 81 179.167969 C 100.46875 178.84375 124.320312 173.441406 148.167969 163.957031 C 163.96875 157.679688 178.519531 150.085938 190.714844 141.851562 C 201.195312 148.867188 213.402344 155.570312 226.921875 161.5 C 250.425781 171.808594 274.078125 178.035156 293.523438 179.039062 C 295.328125 179.128906 297.078125 179.179688 298.777344 179.179688 C 315.929688 179.179688 327.351562 174.484375 331.203125 165.734375 C 335.425781 156.121094 329.851562 143.074219 315.519531 129.011719 Z M 315.519531 129 " fill-opacity="1" fill-rule="nonzero"/></svg>