<svg xmlns="http://www.w3.org/2000/svg" xmlns:xlink="http://www.w3.org/1999/xlink" width="500" zoomAndPan="magnify" viewBox="0 0 375 374.999991" height="500" preserveAspectRatio="xMidYMid meet" version="1.0"><defs><clipPath id="f871bd4bda"><path d="M 0 0.46875 L 375 0.46875 L 375 374.71875 L 0 374.71875 Z M 0 0.46875 " clip-rule="nonzero"/></clipPath></defs><rect x="-37.5" width="450" fill="#ffffff" y="-37.499999" height="449.999989" fill-opacity="1"/><rect x="-37.5" width="450" fill="#000000" y="-37.499999" height="449.999989" fill-opacity="1"/><path fill="#fbb830" d="M 373.546875 187.605469 L 267.992188 209.226562 L 348.601562 280.675781 L 246.371094 246.5625 L 280.507812 348.71875 L 209.007812 268.167969 L 187.371094 373.644531 L 165.734375 268.167969 L 94.230469 348.71875 L 128.367188 246.5625 L 26.136719 280.675781 L 106.75 209.226562 L 1.191406 187.605469 L 106.75 165.984375 L 26.136719 94.535156 L 128.367188 128.648438 L 94.230469 26.492188 L 165.734375 107.046875 L 187.371094 1.566406 L 209.007812 107.046875 L 280.507812 26.492188 L 246.371094 128.648438 L 348.601562 94.535156 L 267.992188 165.984375 Z M 373.546875 187.605469 " fill-opacity="1" fill-rule="nonzero"/><g clip-path="url(#f871bd4bda)"><path fill="#000000" d="M 373.3125 186.75 C 361.390625 189.191406 349.46875 191.636719 337.546875 194.078125 C 318.628906 197.953125 299.707031 201.828125 280.785156 205.703125 C 276.441406 206.59375 272.097656 207.484375 267.753906 208.371094 C 267.117188 208.503906 266.878906 209.425781 267.363281 209.855469 C 276.46875 217.921875 285.570312 225.992188 294.675781 234.0625 C 309.125 246.871094 323.574219 259.675781 338.023438 272.484375 C 341.339844 275.421875 344.65625 278.363281 347.976562 281.304688 L 348.839844 279.820312 C 337.292969 275.96875 325.746094 272.117188 314.203125 268.265625 C 295.875 262.148438 277.550781 256.035156 259.226562 249.921875 C 255.019531 248.515625 250.8125 247.113281 246.605469 245.710938 C 245.980469 245.5 245.308594 246.171875 245.515625 246.800781 C 249.371094 258.335938 253.226562 269.875 257.082031 281.410156 C 263.203125 299.722656 269.320312 318.035156 275.441406 336.34375 C 276.84375 340.546875 278.25 344.75 279.652344 348.953125 L 281.136719 348.089844 C 273.0625 338.996094 264.984375 329.898438 256.910156 320.800781 C 244.09375 306.359375 231.277344 291.921875 218.460938 277.484375 C 215.519531 274.167969 212.578125 270.855469 209.632812 267.539062 C 209.207031 267.054688 208.28125 267.292969 208.152344 267.929688 C 205.707031 279.84375 203.265625 291.757812 200.820312 303.667969 C 196.941406 322.574219 193.0625 341.484375 189.1875 360.390625 C 188.296875 364.730469 187.40625 369.070312 186.515625 373.410156 L 188.226562 373.410156 C 185.78125 361.496094 183.339844 349.585938 180.894531 337.671875 C 177.015625 318.765625 173.136719 299.859375 169.257812 280.949219 C 168.371094 276.609375 167.480469 272.269531 166.589844 267.929688 C 166.457031 267.292969 165.535156 267.054688 165.105469 267.539062 C 157.03125 276.636719 148.957031 285.734375 140.878906 294.832031 C 128.0625 309.269531 115.246094 323.707031 102.429688 338.148438 C 99.488281 341.460938 96.546875 344.777344 93.601562 348.089844 L 95.085938 348.953125 C 98.941406 337.417969 102.796875 325.878906 106.652344 314.34375 C 112.769531 296.03125 118.890625 277.71875 125.011719 259.410156 C 126.414062 255.203125 127.820312 251.003906 129.222656 246.800781 C 129.433594 246.171875 128.757812 245.5 128.132812 245.707031 C 116.585938 249.5625 105.039062 253.414062 93.496094 257.265625 C 75.171875 263.382812 56.84375 269.496094 38.519531 275.609375 C 34.3125 277.015625 30.109375 278.417969 25.902344 279.820312 L 26.765625 281.304688 C 35.867188 273.234375 44.972656 265.164062 54.078125 257.09375 C 68.527344 244.289062 82.976562 231.480469 97.425781 218.671875 C 100.742188 215.734375 104.058594 212.792969 107.375 209.855469 C 107.859375 209.425781 107.625 208.503906 106.984375 208.371094 C 95.0625 205.929688 83.144531 203.488281 71.222656 201.046875 C 52.300781 197.171875 33.378906 193.296875 14.457031 189.421875 C 10.113281 188.53125 5.769531 187.640625 1.425781 186.753906 L 1.425781 188.460938 C 13.347656 186.019531 25.269531 183.578125 37.191406 181.136719 C 56.113281 177.261719 75.035156 173.386719 93.957031 169.507812 C 98.300781 168.621094 102.640625 167.730469 106.984375 166.839844 C 107.625 166.710938 107.859375 165.789062 107.375 165.359375 C 98.273438 157.289062 89.167969 149.222656 80.066406 141.152344 C 65.613281 128.34375 51.164062 115.535156 36.714844 102.730469 C 33.398438 99.789062 30.082031 96.851562 26.765625 93.910156 L 25.902344 95.390625 C 37.449219 99.242188 48.992188 103.097656 60.539062 106.949219 C 78.863281 113.0625 97.1875 119.179688 115.515625 125.292969 C 119.722656 126.695312 123.925781 128.101562 128.132812 129.503906 C 128.757812 129.714844 129.433594 129.039062 129.222656 128.414062 C 125.367188 116.875 121.511719 105.339844 117.65625 93.800781 C 111.539062 75.492188 105.417969 57.179688 99.300781 38.867188 C 97.894531 34.664062 96.492188 30.460938 95.085938 26.257812 L 93.605469 27.121094 C 101.679688 36.21875 109.753906 45.316406 117.828125 54.414062 C 130.644531 68.851562 143.464844 83.292969 156.28125 97.730469 C 159.222656 101.042969 162.164062 104.359375 165.105469 107.671875 C 165.535156 108.15625 166.457031 107.921875 166.589844 107.28125 C 169.03125 95.371094 171.476562 83.457031 173.917969 71.542969 C 177.796875 52.636719 181.675781 33.730469 185.554688 14.824219 C 186.445312 10.484375 187.335938 6.144531 188.226562 1.804688 L 186.515625 1.804688 C 188.957031 13.714844 191.402344 25.628906 193.847656 37.539062 C 197.722656 56.449219 201.601562 75.355469 205.480469 94.261719 C 206.371094 98.601562 207.261719 102.941406 208.152344 107.28125 C 208.28125 107.921875 209.207031 108.15625 209.632812 107.671875 C 217.710938 98.574219 225.785156 89.480469 233.859375 80.382812 C 246.679688 65.941406 259.496094 51.503906 272.3125 37.066406 C 275.253906 33.75 278.195312 30.4375 281.136719 27.121094 L 279.65625 26.257812 C 275.800781 37.796875 271.945312 49.332031 268.089844 60.871094 C 261.96875 79.183594 255.851562 97.492188 249.730469 115.804688 C 248.328125 120.007812 246.921875 124.210938 245.515625 128.414062 C 245.308594 129.039062 245.980469 129.714844 246.609375 129.503906 C 258.152344 125.652344 269.699219 121.800781 281.246094 117.945312 C 299.570312 111.832031 317.894531 105.71875 336.222656 99.601562 C 340.425781 98.199219 344.632812 96.796875 348.839844 95.390625 L 347.976562 93.910156 C 338.871094 101.980469 329.769531 110.050781 320.664062 118.117188 C 306.214844 130.925781 291.765625 143.734375 277.3125 156.539062 C 273.996094 159.480469 270.679688 162.417969 267.363281 165.359375 C 266.878906 165.789062 267.117188 166.710938 267.753906 166.839844 C 279.675781 169.28125 291.597656 171.722656 303.519531 174.167969 C 322.441406 178.042969 341.363281 181.917969 360.285156 185.792969 C 364.628906 186.683594 368.96875 187.570312 373.3125 188.460938 C 374.429688 188.691406 374.902344 186.980469 373.785156 186.753906 C 361.863281 184.308594 349.941406 181.867188 338.019531 179.425781 C 319.101562 175.550781 300.179688 171.675781 281.257812 167.800781 C 276.914062 166.910156 272.570312 166.019531 268.226562 165.132812 L 268.621094 166.613281 C 277.722656 158.542969 286.828125 150.472656 295.929688 142.40625 C 310.382812 129.597656 324.832031 116.789062 339.28125 103.984375 C 342.597656 101.042969 345.914062 98.105469 349.230469 95.164062 C 349.886719 94.582031 349.195312 93.40625 348.367188 93.683594 C 336.820312 97.535156 325.277344 101.386719 313.730469 105.242188 C 295.40625 111.355469 277.082031 117.46875 258.753906 123.585938 C 254.546875 124.988281 250.34375 126.390625 246.136719 127.792969 L 247.226562 128.886719 C 251.082031 117.347656 254.9375 105.8125 258.792969 94.273438 C 264.914062 75.960938 271.03125 57.652344 277.152344 39.339844 C 278.554688 35.136719 279.960938 30.933594 281.367188 26.730469 C 281.640625 25.902344 280.464844 25.210938 279.882812 25.867188 C 271.808594 34.964844 263.734375 44.0625 255.65625 53.160156 C 242.839844 67.597656 230.023438 82.035156 217.207031 96.476562 C 214.265625 99.789062 211.320312 103.105469 208.378906 106.417969 L 209.863281 106.808594 C 207.417969 94.898438 204.976562 82.984375 202.53125 71.074219 C 198.652344 52.164062 194.773438 33.257812 190.894531 14.351562 C 190.003906 10.011719 189.117188 5.671875 188.226562 1.332031 C 188.050781 0.484375 186.6875 0.484375 186.515625 1.332031 C 184.070312 13.242188 181.628906 25.15625 179.183594 37.070312 C 175.304688 55.976562 171.425781 74.882812 167.546875 93.789062 C 166.65625 98.128906 165.769531 102.46875 164.878906 106.808594 L 166.359375 106.417969 C 158.285156 97.320312 150.210938 88.222656 142.132812 79.125 C 129.316406 64.6875 116.5 50.25 103.683594 35.808594 C 100.742188 32.496094 97.800781 29.179688 94.859375 25.867188 C 94.273438 25.210938 93.097656 25.902344 93.375 26.730469 C 97.230469 38.265625 101.085938 49.804688 104.941406 61.339844 C 111.0625 79.652344 117.179688 97.964844 123.300781 116.273438 C 124.703125 120.476562 126.109375 124.679688 127.511719 128.882812 L 128.605469 127.792969 C 117.058594 123.941406 105.511719 120.089844 93.96875 116.238281 C 75.640625 110.121094 57.316406 104.007812 38.992188 97.890625 C 34.785156 96.488281 30.578125 95.085938 26.371094 93.683594 C 25.542969 93.40625 24.851562 94.582031 25.507812 95.164062 C 34.613281 103.234375 43.71875 111.300781 52.820312 119.371094 C 67.269531 132.179688 81.71875 144.984375 96.171875 157.792969 C 99.488281 160.734375 102.804688 163.671875 106.121094 166.613281 L 106.511719 165.132812 C 94.589844 167.574219 82.667969 170.015625 70.75 172.457031 C 51.828125 176.332031 32.90625 180.207031 13.984375 184.082031 C 9.640625 184.972656 5.296875 185.863281 0.953125 186.753906 C 0.109375 186.925781 0.109375 188.289062 0.953125 188.460938 C 12.875 190.902344 24.796875 193.34375 36.71875 195.785156 C 55.640625 199.664062 74.5625 203.539062 93.484375 207.414062 C 97.824219 208.304688 102.167969 209.191406 106.511719 210.082031 L 106.121094 208.601562 C 97.015625 216.667969 87.914062 224.738281 78.808594 232.808594 C 64.359375 245.617188 49.910156 258.421875 35.460938 271.230469 C 32.140625 274.167969 28.824219 277.109375 25.507812 280.050781 C 24.851562 280.632812 25.542969 281.808594 26.371094 281.53125 C 37.917969 277.679688 49.464844 273.824219 61.007812 269.972656 C 79.335938 263.859375 97.660156 257.742188 115.984375 251.628906 C 120.191406 250.226562 124.398438 248.820312 128.601562 247.417969 L 127.511719 246.328125 C 123.65625 257.867188 119.800781 269.402344 115.945312 280.9375 C 109.828125 299.25 103.707031 317.5625 97.589844 335.875 C 96.183594 340.078125 94.777344 344.277344 93.375 348.484375 C 93.097656 349.3125 94.273438 350 94.855469 349.34375 C 102.933594 340.25 111.007812 331.152344 119.082031 322.054688 C 131.898438 307.613281 144.714844 293.175781 157.535156 278.738281 C 160.476562 275.421875 163.417969 272.109375 166.359375 268.792969 L 164.878906 268.402344 C 167.320312 280.316406 169.765625 292.226562 172.207031 304.140625 C 176.085938 323.046875 179.964844 341.953125 183.84375 360.863281 C 184.734375 365.203125 185.625 369.542969 186.515625 373.882812 C 186.6875 374.726562 188.050781 374.726562 188.226562 373.882812 C 190.667969 361.96875 193.113281 350.058594 195.554688 338.144531 C 199.433594 319.238281 203.3125 300.332031 207.191406 281.421875 C 208.082031 277.082031 208.972656 272.742188 209.863281 268.402344 L 208.378906 268.792969 C 216.453125 277.890625 224.53125 286.988281 232.605469 296.085938 C 245.421875 310.527344 258.238281 324.964844 271.054688 339.402344 C 273.996094 342.71875 276.941406 346.03125 279.882812 349.347656 C 280.464844 350.003906 281.640625 349.3125 281.363281 348.484375 C 277.507812 336.945312 273.652344 325.410156 269.796875 313.871094 C 263.679688 295.558594 257.558594 277.25 251.441406 258.9375 C 250.035156 254.734375 248.628906 250.53125 247.226562 246.328125 L 246.136719 247.417969 C 257.679688 251.273438 269.226562 255.125 280.773438 258.976562 C 299.097656 265.089844 317.421875 271.207031 335.746094 277.320312 C 339.953125 278.722656 344.160156 280.128906 348.367188 281.53125 C 349.195312 281.808594 349.886719 280.632812 349.230469 280.050781 C 340.125 271.980469 331.023438 263.910156 321.917969 255.84375 C 307.46875 243.035156 293.019531 230.226562 278.570312 217.417969 C 275.253906 214.480469 271.933594 211.539062 268.617188 208.601562 L 268.226562 210.082031 C 280.148438 207.640625 292.070312 205.199219 303.992188 202.757812 C 322.914062 198.882812 341.832031 195.003906 360.753906 191.128906 C 365.097656 190.238281 369.441406 189.351562 373.785156 188.460938 C 374.902344 188.230469 374.429688 186.523438 373.3125 186.75 Z M 373.3125 186.75 " fill-opacity="1" fill-rule="nonzero"/></g><path fill="#f55842" d="M 173.160156 240.460938 L 126.308594 293.242188 L 148.695312 226.25 L 81.65625 248.621094 L 134.472656 201.808594 L 65.144531 187.605469 L 134.472656 173.40625 L 81.65625 126.589844 L 148.695312 148.960938 L 126.308594 81.972656 L 173.160156 134.75 L 187.371094 65.472656 L 201.578125 134.75 L 248.433594 81.96875 L 226.042969 148.960938 L 293.085938 126.589844 L 240.265625 173.40625 L 309.59375 187.605469 L 240.265625 201.808594 L 293.082031 248.621094 L 226.042969 226.25 L 248.429688 293.242188 L 201.582031 240.460938 L 187.371094 309.738281 Z M 173.160156 240.460938 " fill-opacity="1" fill-rule="nonzero"/><path fill="#000000" d="M 172.53125 239.835938 C 167.257812 245.777344 161.988281 251.714844 156.714844 257.65625 C 148.304688 267.128906 139.894531 276.601562 131.488281 286.074219 C 129.550781 288.253906 127.617188 290.433594 125.679688 292.613281 L 127.164062 293.476562 C 129.683594 285.9375 132.203125 278.398438 134.722656 270.859375 C 138.738281 258.835938 142.757812 246.8125 146.773438 234.792969 L 149.550781 226.488281 C 149.757812 225.859375 149.085938 225.1875 148.457031 225.398438 C 140.914062 227.914062 133.367188 230.429688 125.824219 232.949219 C 113.792969 236.964844 101.761719 240.980469 89.730469 244.992188 C 86.960938 245.917969 84.1875 246.84375 81.417969 247.765625 L 82.28125 249.246094 C 88.226562 243.980469 94.171875 238.710938 100.117188 233.441406 C 109.59375 225.039062 119.074219 216.640625 128.554688 208.238281 C 130.734375 206.304688 132.917969 204.367188 135.101562 202.433594 C 135.585938 202.003906 135.347656 201.082031 134.710938 200.953125 C 126.90625 199.355469 119.105469 197.757812 111.300781 196.15625 C 98.859375 193.609375 86.417969 191.058594 73.972656 188.511719 C 71.109375 187.925781 68.246094 187.335938 65.378906 186.75 L 65.378906 188.460938 C 73.183594 186.863281 80.984375 185.265625 88.785156 183.667969 C 101.230469 181.117188 113.671875 178.570312 126.113281 176.019531 C 128.980469 175.433594 131.84375 174.847656 134.710938 174.261719 C 135.347656 174.128906 135.585938 173.207031 135.101562 172.78125 C 129.15625 167.511719 123.210938 162.242188 117.269531 156.972656 C 107.789062 148.570312 98.308594 140.167969 88.828125 131.769531 C 86.648438 129.832031 84.464844 127.898438 82.28125 125.964844 L 81.417969 127.445312 C 88.964844 129.964844 96.507812 132.480469 104.054688 134.996094 C 116.085938 139.011719 128.117188 143.027344 140.148438 147.042969 C 142.917969 147.964844 145.6875 148.890625 148.460938 149.816406 C 149.085938 150.023438 149.761719 149.351562 149.550781 148.726562 C 147.03125 141.1875 144.511719 133.648438 141.992188 126.109375 C 137.976562 114.085938 133.957031 102.0625 129.9375 90.039062 C 129.015625 87.273438 128.089844 84.503906 127.164062 81.734375 L 125.679688 82.597656 C 130.953125 88.539062 136.226562 94.480469 141.5 100.417969 C 149.90625 109.890625 158.316406 119.363281 166.722656 128.835938 C 168.660156 131.015625 170.59375 133.195312 172.53125 135.378906 C 172.960938 135.863281 173.882812 135.625 174.015625 134.988281 C 175.613281 127.191406 177.210938 119.394531 178.8125 111.597656 C 181.363281 99.164062 183.914062 86.730469 186.460938 74.296875 C 187.050781 71.433594 187.636719 68.574219 188.222656 65.710938 L 186.511719 65.710938 C 188.113281 73.507812 189.710938 81.304688 191.3125 89.101562 C 193.859375 101.53125 196.410156 113.964844 198.960938 126.398438 C 199.550781 129.261719 200.136719 132.125 200.722656 134.988281 C 200.855469 135.625 201.777344 135.863281 202.207031 135.378906 C 207.480469 129.4375 212.75 123.496094 218.023438 117.558594 C 226.433594 108.085938 234.839844 98.613281 243.25 89.140625 C 245.1875 86.957031 247.121094 84.777344 249.058594 82.597656 L 247.574219 81.734375 C 245.054688 89.273438 242.535156 96.8125 240.015625 104.351562 C 236 116.375 231.980469 128.398438 227.964844 140.421875 C 227.039062 143.1875 226.113281 145.957031 225.1875 148.726562 C 224.980469 149.351562 225.652344 150.023438 226.28125 149.816406 C 233.824219 147.296875 241.367188 144.78125 248.914062 142.261719 C 260.945312 138.25 272.976562 134.234375 285.007812 130.21875 C 287.777344 129.292969 290.550781 128.371094 293.320312 127.445312 L 292.457031 125.964844 C 286.511719 131.234375 280.566406 136.5 274.621094 141.769531 C 265.144531 150.171875 255.664062 158.574219 246.183594 166.976562 C 244.003906 168.910156 241.820312 170.84375 239.636719 172.777344 C 239.152344 173.207031 239.390625 174.128906 240.027344 174.261719 C 247.832031 175.859375 255.632812 177.457031 263.4375 179.054688 C 275.878906 181.601562 288.320312 184.152344 300.765625 186.699219 C 303.628906 187.285156 306.492188 187.875 309.359375 188.460938 L 309.359375 186.75 C 301.554688 188.347656 293.753906 189.945312 285.949219 191.546875 L 248.625 199.191406 C 245.757812 199.777344 242.894531 200.363281 240.027344 200.953125 C 239.390625 201.082031 239.152344 202.003906 239.636719 202.433594 C 245.582031 207.703125 251.527344 212.96875 257.46875 218.238281 C 266.949219 226.640625 276.429688 235.042969 285.90625 243.445312 C 288.089844 245.378906 290.273438 247.3125 292.453125 249.246094 L 293.316406 247.765625 C 285.773438 245.25 278.230469 242.730469 270.683594 240.214844 C 258.652344 236.199219 246.621094 232.183594 234.589844 228.167969 C 231.820312 227.246094 229.050781 226.320312 226.28125 225.394531 C 225.652344 225.1875 224.980469 225.859375 225.1875 226.488281 C 227.707031 234.027344 230.226562 241.5625 232.746094 249.101562 C 236.765625 261.125 240.78125 273.148438 244.800781 285.171875 C 245.722656 287.9375 246.648438 290.707031 247.574219 293.476562 L 249.058594 292.613281 C 243.785156 286.671875 238.511719 280.734375 233.238281 274.792969 C 224.832031 265.320312 216.421875 255.847656 208.015625 246.378906 C 206.078125 244.195312 204.144531 242.015625 202.207031 239.835938 C 201.777344 239.351562 200.855469 239.585938 200.726562 240.226562 C 199.125 248.023438 197.527344 255.820312 195.925781 263.613281 C 193.375 276.046875 190.828125 288.480469 188.277344 300.914062 C 187.6875 303.777344 187.101562 306.636719 186.515625 309.5 L 188.226562 309.5 C 186.625 301.703125 185.027344 293.90625 183.425781 286.113281 C 180.878906 273.679688 178.328125 261.246094 175.777344 248.8125 C 175.1875 245.949219 174.601562 243.089844 174.015625 240.226562 C 173.785156 239.109375 172.074219 239.582031 172.304688 240.699219 C 173.902344 248.492188 175.503906 256.289062 177.101562 264.085938 C 179.652344 276.519531 182.203125 288.953125 184.753906 301.386719 C 185.339844 304.246094 185.925781 307.109375 186.515625 309.972656 C 186.6875 310.816406 188.050781 310.820312 188.226562 309.972656 C 189.824219 302.175781 191.425781 294.378906 193.023438 286.582031 C 195.574219 274.152344 198.125 261.71875 200.675781 249.285156 C 201.261719 246.421875 201.847656 243.558594 202.4375 240.699219 L 200.953125 241.089844 C 206.226562 247.027344 211.496094 252.96875 216.769531 258.90625 C 225.179688 268.378906 233.585938 277.851562 241.996094 287.324219 C 243.929688 289.503906 245.867188 291.6875 247.804688 293.867188 C 248.386719 294.523438 249.5625 293.832031 249.285156 293.003906 C 246.765625 285.464844 244.246094 277.925781 241.726562 270.386719 C 237.710938 258.363281 233.691406 246.339844 229.675781 234.320312 C 228.75 231.550781 227.824219 228.78125 226.898438 226.015625 L 225.808594 227.105469 C 233.351562 229.621094 240.898438 232.140625 248.441406 234.65625 C 260.472656 238.671875 272.503906 242.6875 284.535156 246.703125 C 287.308594 247.625 290.078125 248.550781 292.847656 249.476562 C 293.675781 249.75 294.367188 248.574219 293.710938 247.992188 C 287.765625 242.726562 281.820312 237.457031 275.878906 232.1875 C 266.398438 223.785156 256.917969 215.382812 247.441406 206.984375 C 245.257812 205.046875 243.074219 203.113281 240.894531 201.179688 L 240.5 202.660156 C 248.304688 201.0625 256.105469 199.464844 263.910156 197.867188 C 276.351562 195.316406 288.792969 192.769531 301.238281 190.21875 C 304.101562 189.632812 306.964844 189.046875 309.832031 188.460938 C 310.675781 188.285156 310.675781 186.921875 309.832031 186.75 C 302.027344 185.152344 294.226562 183.554688 286.421875 181.957031 C 273.980469 179.40625 261.539062 176.859375 249.09375 174.3125 C 246.230469 173.722656 243.367188 173.136719 240.5 172.550781 L 240.890625 174.03125 C 246.835938 168.761719 252.78125 163.496094 258.726562 158.226562 C 268.203125 149.824219 277.683594 141.421875 287.164062 133.019531 C 289.347656 131.085938 291.527344 129.152344 293.710938 127.21875 C 294.367188 126.636719 293.675781 125.457031 292.847656 125.734375 C 285.300781 128.253906 277.757812 130.769531 270.214844 133.289062 C 258.183594 137.300781 246.148438 141.316406 234.117188 145.332031 C 231.347656 146.257812 228.578125 147.179688 225.808594 148.105469 L 226.898438 149.195312 C 229.417969 141.65625 231.9375 134.117188 234.457031 126.578125 C 238.476562 114.554688 242.492188 102.53125 246.511719 90.507812 C 247.4375 87.742188 248.363281 84.972656 249.285156 82.203125 C 249.5625 81.375 248.386719 80.683594 247.804688 81.339844 C 242.53125 87.28125 237.257812 93.222656 231.984375 99.160156 C 223.578125 108.632812 215.167969 118.105469 206.757812 127.578125 C 204.824219 129.761719 202.886719 131.941406 200.953125 134.121094 L 202.433594 134.515625 C 200.835938 126.71875 199.234375 118.921875 197.636719 111.125 C 195.085938 98.691406 192.535156 86.257812 189.984375 73.824219 C 189.398438 70.960938 188.8125 68.101562 188.222656 65.238281 C 188.050781 64.390625 186.6875 64.390625 186.511719 65.238281 C 184.914062 73.035156 183.316406 80.832031 181.714844 88.628906 C 179.164062 101.058594 176.613281 113.492188 174.066406 125.925781 C 173.476562 128.789062 172.890625 131.652344 172.304688 134.515625 L 173.785156 134.121094 C 168.511719 128.183594 163.242188 122.242188 157.96875 116.304688 C 149.558594 106.832031 141.152344 97.359375 132.742188 87.886719 C 130.808594 85.707031 128.871094 83.523438 126.9375 81.34375 C 126.351562 80.6875 125.175781 81.378906 125.453125 82.207031 C 127.972656 89.746094 130.492188 97.285156 133.011719 104.824219 C 137.027344 116.847656 141.046875 128.867188 145.0625 140.890625 C 145.988281 143.660156 146.914062 146.425781 147.839844 149.195312 L 148.929688 148.105469 C 141.386719 145.585938 133.839844 143.070312 126.296875 140.554688 L 90.199219 128.507812 C 87.429688 127.585938 84.660156 126.660156 81.890625 125.734375 C 81.0625 125.460938 80.371094 126.636719 81.027344 127.21875 C 86.96875 132.484375 92.914062 137.753906 98.859375 143.023438 C 108.339844 151.425781 117.820312 159.828125 127.296875 168.230469 C 129.480469 170.164062 131.664062 172.097656 133.84375 174.03125 L 134.238281 172.550781 C 126.433594 174.148438 118.632812 175.746094 110.828125 177.34375 C 98.386719 179.894531 85.945312 182.441406 73.5 184.988281 C 70.636719 185.578125 67.773438 186.164062 64.90625 186.75 C 64.0625 186.921875 64.058594 188.285156 64.90625 188.460938 C 72.710938 190.058594 80.511719 191.65625 88.316406 193.253906 C 100.757812 195.804688 113.199219 198.351562 125.644531 200.902344 C 128.507812 201.488281 131.371094 202.074219 134.238281 202.660156 L 133.84375 201.179688 C 127.902344 206.449219 121.957031 211.714844 116.011719 216.984375 C 106.53125 225.386719 97.054688 233.789062 87.574219 242.191406 C 85.390625 244.125 83.210938 246.058594 81.027344 247.992188 C 80.371094 248.574219 81.0625 249.753906 81.890625 249.476562 C 89.433594 246.957031 96.980469 244.441406 104.523438 241.921875 C 116.554688 237.910156 128.585938 233.894531 140.621094 229.878906 C 143.390625 228.953125 146.160156 228.03125 148.929688 227.105469 L 147.839844 226.015625 C 145.320312 233.554688 142.800781 241.09375 140.28125 248.632812 C 136.261719 260.65625 132.246094 272.679688 128.226562 284.703125 L 125.453125 293.007812 C 125.175781 293.835938 126.351562 294.523438 126.933594 293.867188 C 132.207031 287.929688 137.480469 281.988281 142.753906 276.050781 C 151.160156 266.578125 159.570312 257.105469 167.976562 247.632812 C 169.914062 245.453125 171.851562 243.269531 173.785156 241.089844 C 174.542969 240.238281 173.292969 238.980469 172.53125 239.835938 Z M 172.53125 239.835938 " fill-opacity="1" fill-rule="nonzero"/><path fill="#5285fb" d="M 180.585938 212.757812 L 158.386719 237.765625 L 169.023438 205.941406 L 137.175781 216.566406 L 162.199219 194.386719 L 129.097656 187.605469 L 162.199219 180.828125 L 137.171875 158.644531 L 169.023438 169.273438 L 158.386719 137.449219 L 180.585938 162.457031 L 187.371094 129.382812 L 194.152344 162.457031 L 216.355469 137.445312 L 205.71875 169.273438 L 237.566406 158.644531 L 212.539062 180.828125 L 245.640625 187.605469 L 212.542969 194.386719 L 237.566406 216.566406 L 205.71875 205.941406 L 216.351562 237.765625 L 194.152344 212.757812 L 187.371094 245.832031 Z M 180.585938 212.757812 " fill-opacity="1" fill-rule="nonzero"/><path fill="#000000" d="M 179.957031 212.132812 C 173.480469 219.429688 167 226.726562 160.523438 234.027344 C 159.601562 235.0625 158.679688 236.101562 157.757812 237.140625 L 159.242188 238.003906 C 162.339844 228.734375 165.4375 219.460938 168.535156 210.191406 C 168.980469 208.855469 169.429688 207.515625 169.878906 206.175781 C 170.085938 205.550781 169.414062 204.875 168.785156 205.085938 C 159.511719 208.179688 150.234375 211.273438 140.957031 214.371094 C 139.617188 214.816406 138.277344 215.265625 136.9375 215.710938 L 137.800781 217.191406 C 145.105469 210.71875 152.410156 204.25 159.710938 197.777344 C 160.75 196.855469 161.789062 195.933594 162.828125 195.015625 C 163.3125 194.585938 163.074219 193.664062 162.4375 193.53125 C 152.78125 191.554688 143.125 189.578125 133.46875 187.597656 C 132.089844 187.316406 130.714844 187.035156 129.335938 186.75 L 129.335938 188.460938 C 138.992188 186.484375 148.648438 184.507812 158.304688 182.527344 C 159.679688 182.246094 161.058594 181.964844 162.4375 181.679688 C 163.074219 181.550781 163.3125 180.628906 162.828125 180.199219 C 155.523438 173.726562 148.222656 167.253906 140.917969 160.78125 C 139.878906 159.859375 138.839844 158.9375 137.800781 158.019531 L 136.9375 159.5 C 146.214844 162.59375 155.492188 165.691406 164.765625 168.785156 C 166.105469 169.230469 167.445312 169.679688 168.785156 170.125 C 169.414062 170.335938 170.085938 169.660156 169.878906 169.035156 C 166.78125 159.765625 163.683594 150.496094 160.585938 141.226562 C 160.136719 139.890625 159.691406 138.550781 159.242188 137.210938 L 157.761719 138.074219 C 164.238281 145.371094 170.714844 152.671875 177.195312 159.96875 L 179.957031 163.082031 C 180.386719 163.566406 181.308594 163.328125 181.441406 162.691406 C 183.417969 153.042969 185.398438 143.394531 187.378906 133.746094 C 187.660156 132.371094 187.941406 130.992188 188.226562 129.617188 L 186.515625 129.617188 C 188.492188 139.265625 190.472656 148.914062 192.449219 158.5625 C 192.734375 159.9375 193.015625 161.3125 193.296875 162.691406 C 193.429688 163.328125 194.351562 163.566406 194.78125 163.082031 C 201.257812 155.785156 207.738281 148.484375 214.214844 141.1875 L 216.980469 138.074219 L 215.496094 137.210938 C 212.398438 146.480469 209.300781 155.75 206.203125 165.019531 C 205.757812 166.359375 205.308594 167.699219 204.863281 169.035156 C 204.652344 169.664062 205.328125 170.335938 205.953125 170.128906 C 215.230469 167.03125 224.503906 163.9375 233.78125 160.84375 C 235.121094 160.394531 236.460938 159.949219 237.800781 159.5 L 236.9375 158.019531 C 229.632812 164.492188 222.332031 170.964844 215.027344 177.4375 C 213.988281 178.359375 212.949219 179.277344 211.910156 180.199219 C 211.425781 180.628906 211.664062 181.550781 212.304688 181.679688 C 221.960938 183.660156 231.613281 185.636719 241.269531 187.613281 C 242.648438 187.898438 244.027344 188.179688 245.40625 188.460938 L 245.40625 186.753906 C 235.75 188.730469 226.09375 190.707031 216.4375 192.6875 C 215.058594 192.96875 213.683594 193.25 212.304688 193.53125 C 211.667969 193.664062 211.429688 194.585938 211.914062 195.015625 C 219.214844 201.488281 226.519531 207.960938 233.820312 214.433594 C 234.859375 215.351562 235.898438 216.273438 236.9375 217.195312 L 237.800781 215.714844 C 228.527344 212.617188 219.25 209.523438 209.972656 206.425781 C 208.632812 205.980469 207.292969 205.53125 205.953125 205.085938 C 205.328125 204.875 204.652344 205.550781 204.863281 206.175781 C 207.960938 215.445312 211.058594 224.714844 214.15625 233.984375 C 214.601562 235.324219 215.050781 236.664062 215.496094 238.003906 L 216.980469 237.140625 C 210.503906 229.839844 204.023438 222.542969 197.546875 215.246094 C 196.625 214.207031 195.703125 213.167969 194.78125 212.132812 C 194.351562 211.648438 193.429688 211.886719 193.300781 212.523438 C 191.320312 222.171875 189.339844 231.816406 187.363281 241.464844 C 187.078125 242.84375 186.796875 244.21875 186.515625 245.597656 L 188.226562 245.597656 C 186.246094 235.949219 184.269531 226.300781 182.289062 216.652344 C 182.007812 215.277344 181.722656 213.898438 181.441406 212.523438 C 181.214844 211.40625 179.503906 211.878906 179.730469 212.996094 C 181.710938 222.644531 183.6875 232.289062 185.667969 241.9375 C 185.949219 243.3125 186.234375 244.691406 186.515625 246.066406 C 186.6875 246.914062 188.050781 246.914062 188.226562 246.066406 C 190.203125 236.417969 192.183594 226.773438 194.164062 217.125 C 194.445312 215.746094 194.726562 214.371094 195.011719 212.996094 L 193.527344 213.386719 C 200.003906 220.683594 206.484375 227.980469 212.960938 235.277344 C 213.882812 236.316406 214.804688 237.355469 215.726562 238.394531 C 216.308594 239.050781 217.484375 238.359375 217.207031 237.53125 C 214.109375 228.261719 211.011719 218.992188 207.914062 209.722656 C 207.46875 208.382812 207.019531 207.042969 206.574219 205.703125 L 205.480469 206.796875 C 214.757812 209.890625 224.035156 212.984375 233.3125 216.082031 C 234.652344 216.527344 235.992188 216.976562 237.332031 217.421875 C 238.160156 217.699219 238.851562 216.523438 238.195312 215.941406 C 230.890625 209.46875 223.589844 202.996094 216.285156 196.523438 C 215.246094 195.601562 214.207031 194.679688 213.167969 193.761719 L 212.777344 195.242188 C 222.433594 193.265625 232.089844 191.285156 241.746094 189.308594 C 243.121094 189.027344 244.5 188.742188 245.878906 188.460938 C 246.722656 188.289062 246.722656 186.925781 245.878906 186.75 C 236.222656 184.773438 226.566406 182.796875 216.910156 180.816406 C 215.53125 180.535156 214.152344 180.253906 212.777344 179.972656 L 213.167969 181.453125 C 220.46875 174.980469 227.773438 168.507812 235.078125 162.035156 C 236.113281 161.113281 237.152344 160.191406 238.191406 159.273438 C 238.847656 158.691406 238.160156 157.511719 237.328125 157.789062 C 228.054688 160.886719 218.777344 163.980469 209.5 167.074219 C 208.160156 167.523438 206.820312 167.96875 205.480469 168.417969 L 206.574219 169.507812 C 209.671875 160.238281 212.769531 150.96875 215.867188 141.695312 C 216.3125 140.359375 216.761719 139.019531 217.207031 137.679688 C 217.484375 136.851562 216.308594 136.160156 215.726562 136.816406 C 209.246094 144.117188 202.769531 151.414062 196.289062 158.710938 C 195.367188 159.75 194.449219 160.789062 193.527344 161.828125 L 195.007812 162.21875 C 193.03125 152.570312 191.050781 142.921875 189.070312 133.273438 C 188.789062 131.898438 188.507812 130.519531 188.226562 129.144531 C 188.050781 128.300781 186.6875 128.296875 186.515625 129.144531 C 184.535156 138.792969 182.554688 148.441406 180.578125 158.089844 C 180.292969 159.464844 180.011719 160.839844 179.730469 162.21875 L 181.210938 161.828125 C 174.734375 154.53125 168.257812 147.230469 161.78125 139.933594 L 159.015625 136.820312 C 158.433594 136.164062 157.253906 136.855469 157.53125 137.683594 C 160.628906 146.953125 163.726562 156.222656 166.824219 165.488281 C 167.273438 166.828125 167.71875 168.167969 168.167969 169.507812 L 169.257812 168.414062 C 159.980469 165.320312 150.703125 162.226562 141.429688 159.128906 C 140.089844 158.683594 138.75 158.234375 137.410156 157.789062 C 136.578125 157.511719 135.886719 158.6875 136.546875 159.269531 C 143.847656 165.742188 151.152344 172.21875 158.457031 178.691406 C 159.496094 179.609375 160.535156 180.53125 161.570312 181.453125 L 161.964844 179.972656 C 152.308594 181.949219 142.652344 183.925781 132.996094 185.902344 L 128.863281 186.75 C 128.015625 186.925781 128.015625 188.289062 128.863281 188.460938 C 138.519531 190.4375 148.175781 192.417969 157.832031 194.394531 C 159.207031 194.675781 160.585938 194.960938 161.964844 195.242188 L 161.570312 193.761719 C 154.269531 200.230469 146.964844 206.703125 139.664062 213.175781 C 138.625 214.097656 137.585938 215.019531 136.546875 215.9375 C 135.890625 216.519531 136.582031 217.699219 137.410156 217.421875 C 146.6875 214.324219 155.960938 211.230469 165.238281 208.136719 C 166.578125 207.6875 167.917969 207.242188 169.257812 206.792969 L 168.167969 205.703125 C 165.070312 214.972656 161.96875 224.246094 158.871094 233.515625 C 158.425781 234.855469 157.976562 236.191406 157.53125 237.53125 C 157.253906 238.359375 158.429688 239.050781 159.011719 238.394531 C 165.492188 231.097656 171.96875 223.796875 178.449219 216.5 C 179.371094 215.460938 180.292969 214.421875 181.214844 213.386719 C 181.96875 212.535156 180.71875 211.277344 179.957031 212.132812 Z M 179.957031 212.132812 " fill-opacity="1" fill-rule="nonzero"/><path fill="#ffffff" d="M 60.667969 178.324219 C 78.699219 159.742188 97.648438 135.964844 126.339844 138.808594 C 140.46875 140.210938 147.496094 154.503906 140.382812 167.082031 C 140.742188 166.449219 148.078125 169.75 148.914062 170.210938 C 151.691406 171.746094 154.734375 174.085938 155.972656 177.125 C 158.5 183.316406 156.269531 192.933594 152.585938 198.261719 C 157.5625 197.03125 162.945312 199.984375 165.566406 204.386719 C 168.191406 208.789062 168.421875 214.28125 167.367188 219.296875 C 162.625 241.878906 128.585938 256.820312 108.621094 260.988281 C 96.679688 263.484375 78.65625 268.285156 68.804688 258.613281 C 55.714844 245.761719 46.710938 224.753906 39.039062 208.339844 " fill-opacity="1" fill-rule="nonzero"/><path fill="#000000" d="M 61.296875 178.949219 C 71.96875 167.9375 82.125 155.890625 95.242188 147.65625 C 101.707031 143.597656 108.914062 140.621094 116.542969 139.753906 C 123.820312 138.925781 132.019531 139.332031 137.464844 144.84375 C 143.28125 150.730469 143.488281 159.640625 139.617188 166.632812 C 139.136719 167.5 140.292969 168.441406 141.011719 167.707031 C 140.734375 167.988281 140.539062 167.808594 140.875 167.921875 C 141.0625 167.984375 141.265625 168.019531 141.460938 168.074219 C 142.011719 168.238281 142.554688 168.4375 143.09375 168.640625 C 144.375 169.128906 145.640625 169.667969 146.890625 170.230469 C 149.746094 171.519531 152.621094 173.316406 154.363281 175.984375 C 156.453125 179.175781 156.429688 183.492188 155.863281 187.128906 C 155.273438 190.902344 153.964844 194.640625 151.816406 197.816406 C 151.359375 198.496094 152.113281 199.277344 152.820312 199.117188 C 156.472656 198.300781 160.195312 199.753906 162.816406 202.324219 C 165.75 205.203125 166.976562 209.328125 167.0625 213.351562 C 167.195312 219.554688 164.890625 225.445312 161.335938 230.441406 C 154.339844 240.28125 143.292969 247 132.519531 251.988281 C 122.023438 256.847656 111.039062 259.757812 99.722656 261.945312 C 93.3125 263.183594 86.539062 264.191406 80.039062 263.0625 C 76.9375 262.527344 73.914062 261.457031 71.347656 259.609375 C 68.542969 257.589844 66.210938 254.695312 64.0625 252.015625 C 53.519531 238.882812 46.871094 223.027344 39.804688 207.890625 C 39.324219 206.855469 37.792969 207.757812 38.273438 208.785156 C 45.007812 223.207031 51.371094 238.113281 60.984375 250.917969 C 65.128906 256.4375 69.675781 261.988281 76.519531 264.058594 C 83.035156 266.027344 90.113281 265.363281 96.726562 264.277344 C 108.921875 262.273438 120.886719 259.15625 132.175781 254.082031 C 143.652344 248.929688 155.308594 241.863281 162.765625 231.480469 C 166.410156 226.402344 168.773438 220.398438 168.839844 214.097656 C 168.917969 206.726562 165.003906 198.871094 157.199219 197.332031 C 155.574219 197.011719 153.960938 197.046875 152.347656 197.40625 L 153.351562 198.710938 C 155.785156 195.105469 157.199219 190.785156 157.730469 186.492188 C 158.25 182.335938 157.957031 177.679688 155.296875 174.257812 C 153.101562 171.433594 149.992188 169.652344 146.769531 168.25 C 145.332031 167.625 143.878906 167 142.386719 166.511719 C 141.632812 166.265625 140.421875 165.769531 139.753906 166.453125 L 141.148438 167.527344 C 144.652344 161.203125 145.21875 153.425781 141.425781 147.082031 C 139.671875 144.152344 137.09375 141.734375 134.0625 140.160156 C 130.546875 138.332031 126.6875 137.796875 122.765625 137.703125 C 105.921875 137.304688 91.59375 146.601562 79.6875 157.640625 C 72.820312 164.007812 66.554688 170.976562 60.039062 177.695312 C 59.246094 178.515625 60.5 179.773438 61.296875 178.949219 Z M 61.296875 178.949219 " fill-opacity="1" fill-rule="nonzero"/><path fill="#ffffff" d="M 34.496094 213.460938 C 20.789062 192.648438 36.261719 162.75 55.410156 150.753906 C 56.339844 150.171875 57.273438 149.632812 58.21875 149.140625 C 86.289062 134.417969 103.109375 166.613281 109.050781 189.753906 C 110.101562 193.835938 110.953125 198.046875 110.546875 202.242188 C 110.136719 206.4375 108.304688 210.660156 104.886719 213.125 C 92.761719 221.867188 81.074219 206.886719 75.367188 198.035156 " fill-opacity="1" fill-rule="nonzero"/><path fill="#000000" d="M 35.261719 213.015625 C 27.292969 200.746094 29.667969 185.355469 36.277344 173.046875 C 39.671875 166.730469 44.171875 160.976562 49.5625 156.238281 C 54.832031 151.601562 61.214844 147.734375 68.234375 146.597656 C 80.597656 144.601562 90.472656 153.277344 96.773438 162.957031 C 100.265625 168.324219 102.992188 174.179688 105.167969 180.191406 C 106.183594 182.988281 107.082031 185.828125 107.859375 188.703125 C 109.042969 193.085938 110.125 197.667969 109.660156 202.242188 C 109.242188 206.339844 107.394531 210.414062 103.882812 212.742188 C 100.941406 214.6875 97.523438 215.382812 94.097656 214.4375 C 87.550781 212.628906 82.527344 206.644531 78.707031 201.363281 C 77.8125 200.128906 76.960938 198.867188 76.132812 197.585938 C 75.515625 196.632812 73.976562 197.519531 74.601562 198.484375 C 78.414062 204.375 82.933594 210.433594 89.035156 214.121094 C 91.859375 215.824219 95.132812 216.921875 98.464844 216.59375 C 102.101562 216.234375 105.652344 214.28125 107.921875 211.425781 C 113.585938 204.296875 111.410156 194.578125 109.113281 186.597656 C 107.257812 180.15625 104.828125 173.84375 101.710938 167.90625 C 96.046875 157.109375 86.980469 145.734375 73.910156 144.621094 C 59.144531 143.363281 45.824219 155.261719 38.089844 166.636719 C 29.886719 178.703125 25.0625 194.90625 31.0625 208.929688 C 31.804688 210.667969 32.699219 212.324219 33.730469 213.910156 C 34.347656 214.863281 35.886719 213.976562 35.261719 213.015625 Z M 35.261719 213.015625 " fill-opacity="1" fill-rule="nonzero"/><path fill="#ffffff" d="M 40.613281 190.832031 C 39.628906 189.914062 38.628906 189.019531 37.609375 188.148438 C 33.757812 184.867188 29.511719 182.28125 24.273438 182.992188 C 12.957031 184.53125 1.558594 197.074219 5.382812 208.785156 C 8.769531 219.160156 31.410156 267.148438 40.964844 278.246094 C 42.367188 279.878906 43.859375 281.464844 45.660156 282.644531 C 55.898438 289.359375 73.257812 281.300781 75.921875 269.992188 C 77.269531 264.257812 76.304688 258.242188 74.917969 252.515625 C 69.460938 230.03125 57.800781 206.855469 40.613281 190.832031 Z M 40.613281 190.832031 " fill-opacity="1" fill-rule="nonzero"/><path fill="#000000" d="M 41.242188 190.203125 C 37.367188 186.613281 33.046875 182.726562 27.574219 182.085938 C 22.828125 181.527344 17.882812 183.542969 14.066406 186.238281 C 6.761719 191.394531 1.628906 200.546875 4.6875 209.503906 C 6.429688 214.59375 8.730469 219.527344 10.945312 224.421875 C 14.304688 231.839844 17.824219 239.1875 21.476562 246.460938 C 25.054688 253.589844 28.746094 260.675781 32.777344 267.5625 C 35.957031 273.003906 39.410156 279.191406 44.601562 282.980469 C 51.425781 287.964844 61.121094 286.164062 67.792969 281.851562 C 71.128906 279.695312 74.101562 276.734375 75.773438 273.089844 C 78.0625 268.089844 77.683594 262.171875 76.753906 256.894531 C 74.785156 245.726562 70.742188 234.695312 65.839844 224.5 C 60.894531 214.222656 54.644531 204.507812 46.980469 196.035156 C 45.148438 194.011719 43.234375 192.070312 41.242188 190.203125 C 40.410156 189.421875 39.152344 190.671875 39.984375 191.457031 C 55.664062 206.152344 66.308594 225.839844 72.332031 246.316406 C 75.058594 255.570312 78.746094 267.925781 71.707031 276.148438 C 66.679688 282.019531 57.773438 285.714844 50.105469 283.65625 C 43.671875 281.929688 39.746094 275.570312 36.441406 270.222656 C 32.726562 264.210938 29.382812 257.972656 26.132812 251.699219 C 19.667969 239.21875 13.441406 226.511719 8.113281 213.496094 C 7.34375 211.613281 6.523438 209.707031 5.996094 207.738281 C 4.78125 203.203125 6.003906 198.46875 8.460938 194.574219 C 10.953125 190.625 14.6875 187.402344 18.9375 185.472656 C 23.824219 183.257812 28.796875 183.25 33.414062 186.121094 C 35.8125 187.613281 37.921875 189.542969 39.984375 191.457031 C 40.820312 192.230469 42.078125 190.980469 41.238281 190.203125 Z M 41.242188 190.203125 " fill-opacity="1" fill-rule="nonzero"/><path fill="#000000" d="M 153.074219 197.34375 C 145.617188 199.019531 138.515625 201.875 131.644531 205.175781 C 128.105469 206.875 124.617188 208.683594 121.15625 210.535156 C 118.257812 212.082031 115.371094 213.742188 112.9375 215.976562 C 108.78125 219.792969 106.078125 226.226562 108.976562 231.597656 C 111.910156 237.039062 118.847656 237.097656 124.148438 236.015625 C 132.375 234.339844 140.339844 230.84375 147.414062 226.375 C 148.375 225.765625 147.488281 224.230469 146.519531 224.84375 C 140.757812 228.480469 134.535156 231.324219 127.988281 233.214844 C 122.992188 234.660156 115.65625 236.5625 111.546875 232.160156 C 107.199219 227.503906 110.519531 220.449219 114.546875 216.914062 C 116.914062 214.835938 119.710938 213.308594 122.480469 211.835938 C 125.484375 210.238281 128.507812 208.667969 131.566406 207.175781 C 138.605469 203.742188 145.882812 200.773438 153.542969 199.054688 C 154.65625 198.800781 154.1875 197.09375 153.074219 197.34375 Z M 153.074219 197.34375 " fill-opacity="1" fill-rule="nonzero"/><path fill="#000000" d="M 140.695312 166.242188 C 131.105469 167.003906 121.820312 169.957031 113.574219 174.917969 C 112.597656 175.503906 113.488281 177.039062 114.46875 176.445312 C 122.4375 171.652344 131.421875 168.75 140.695312 168.015625 C 141.828125 167.925781 141.835938 166.152344 140.695312 166.242188 Z M 140.695312 166.242188 " fill-opacity="1" fill-rule="nonzero"/><path fill="#000000" d="M 98.574219 216.238281 C 100.363281 220.8125 105.480469 223.578125 110.292969 222.492188 C 111.40625 222.242188 110.933594 220.53125 109.820312 220.785156 C 106.019531 221.640625 101.710938 219.410156 100.285156 215.769531 C 100.109375 215.324219 99.6875 215.011719 99.191406 215.148438 C 98.765625 215.265625 98.398438 215.792969 98.574219 216.238281 Z M 98.574219 216.238281 " fill-opacity="1" fill-rule="nonzero"/><path fill="#ffffff" d="M 323.511719 208.554688 C 313.484375 222.367188 301.402344 240.1875 287.003906 249.738281 C 276.164062 256.925781 260.355469 249.269531 249.757812 244.832031 C 232.039062 237.414062 203.226562 217.523438 202.875 195.792969 C 202.796875 190.96875 203.992188 185.929688 207.207031 182.328125 C 211.117188 177.941406 213.984375 179.164062 219.472656 178.503906 C 198.574219 163.472656 162.121094 138.804688 160.878906 127.09375 C 158.6875 106.40625 177.917969 110.878906 190.269531 116.574219 C 203.445312 122.652344 245.5 152.605469 249.121094 154.925781 C 243.710938 146.738281 232.042969 129.046875 226.636719 120.859375 C 220.777344 111.992188 198.742188 77.539062 212.46875 67.777344 C 215.394531 65.695312 219.378906 65.574219 222.796875 66.675781 C 226.214844 67.777344 229.171875 69.960938 231.941406 72.242188 C 247.71875 85.25 260.820312 107.796875 271.796875 124.660156 C 272.636719 125.945312 273.5 127.261719 274.742188 128.167969 C 276.28125 129.285156 278.222656 129.648438 280.058594 130.148438 C 286.605469 131.921875 297.515625 138.648438 301.804688 143.898438 " fill-opacity="1" fill-rule="nonzero"/><path fill="#000000" d="M 322.746094 208.105469 C 314.632812 219.289062 306.753906 230.8125 296.832031 240.507812 C 292.316406 244.917969 286.964844 250.117188 280.570312 251.410156 C 274.199219 252.699219 267.492188 250.808594 261.519531 248.664062 C 250.9375 244.863281 240.671875 240.027344 231.382812 233.667969 C 221.847656 227.136719 212.457031 218.929688 207.152344 208.480469 C 204.265625 202.800781 202.867188 196.261719 204.359375 189.96875 C 205.203125 186.414062 207.152344 182.601562 210.449219 180.738281 C 213.105469 179.238281 216.546875 179.722656 219.476562 179.390625 C 220.363281 179.292969 220.664062 178.273438 219.921875 177.738281 C 206.636719 168.191406 193.097656 158.9375 180.464844 148.519531 C 175.195312 144.171875 169.871094 139.621094 165.585938 134.273438 C 164.199219 132.546875 162.8125 130.621094 162.109375 128.5 C 161.203125 125.773438 161.378906 122.265625 162.128906 119.523438 C 165.464844 107.339844 183.363281 114.140625 190.769531 117.796875 C 195.417969 120.085938 199.828125 122.890625 204.203125 125.65625 C 210.042969 129.351562 215.800781 133.175781 221.527344 137.042969 C 230.300781 142.964844 238.9375 149.074219 247.6875 155.03125 C 248.011719 155.253906 248.339844 155.476562 248.671875 155.691406 C 249.410156 156.164062 250.375 155.214844 249.886719 154.476562 C 242.253906 142.921875 234.601562 131.378906 227 119.804688 C 220.871094 110.46875 215.042969 100.597656 211.386719 90.007812 C 209.675781 85.046875 208.035156 79.21875 209.371094 73.972656 C 209.910156 71.851562 211.042969 69.925781 212.820312 68.613281 C 216.941406 65.570312 222.476562 66.953125 226.511719 69.375 C 230.363281 71.6875 233.777344 74.839844 236.945312 78.003906 C 240.0625 81.113281 242.960938 84.433594 245.71875 87.863281 C 251.535156 95.101562 256.710938 102.835938 261.742188 110.625 C 264.101562 114.273438 266.421875 117.945312 268.769531 121.601562 C 270.945312 124.988281 272.789062 128.777344 276.828125 130.167969 C 278.660156 130.800781 280.5625 131.152344 282.375 131.855469 C 284.164062 132.546875 285.894531 133.390625 287.582031 134.300781 C 291.132812 136.214844 294.574219 138.4375 297.660156 141.046875 C 298.921875 142.113281 300.117188 143.253906 301.175781 144.527344 C 301.90625 145.40625 303.15625 144.144531 302.433594 143.273438 C 300.042969 140.402344 296.964844 138.089844 293.875 136.023438 C 290.566406 133.808594 287.054688 131.839844 283.359375 130.347656 C 281.601562 129.636719 279.796875 129.21875 277.980469 128.675781 C 275.25 127.859375 273.832031 126.160156 272.332031 123.851562 C 269.933594 120.160156 267.582031 116.441406 265.210938 112.738281 C 260.085938 104.742188 254.871094 96.789062 249.0625 89.265625 C 243.582031 82.164062 237.558594 75.308594 230.375 69.875 C 226.722656 67.113281 222.402344 64.820312 217.683594 65.128906 C 214.449219 65.339844 211.464844 66.820312 209.535156 69.4375 C 206.480469 73.582031 206.875 79.273438 207.863281 84.042969 C 209.164062 90.292969 211.753906 96.277344 214.582031 101.972656 C 217.214844 107.269531 220.183594 112.394531 223.339844 117.394531 C 230.632812 128.933594 238.347656 140.214844 245.867188 151.605469 C 246.695312 152.859375 247.527344 154.117188 248.355469 155.371094 L 249.570312 154.160156 C 241.324219 148.851562 233.417969 142.972656 225.308594 137.464844 C 219.34375 133.414062 213.351562 129.402344 207.277344 125.511719 C 202.492188 122.445312 197.667969 119.359375 192.613281 116.742188 C 187.558594 114.128906 181.984375 112.050781 176.335938 111.230469 C 171.25 110.496094 165.257812 110.886719 162.042969 115.472656 C 160.273438 118 159.792969 121.234375 159.820312 124.253906 C 159.847656 126.878906 160.230469 129.136719 161.503906 131.441406 C 164.453125 136.78125 169.324219 141.164062 173.828125 145.171875 C 186.53125 156.476562 200.652344 166.160156 214.480469 176.019531 C 216 177.101562 217.515625 178.183594 219.027344 179.269531 L 219.476562 177.617188 C 216.742188 177.925781 213.761719 177.617188 211.125 178.511719 C 208.25 179.484375 206.011719 181.933594 204.5625 184.519531 C 201.515625 189.964844 201.378906 196.777344 202.996094 202.691406 C 206.167969 214.292969 215.398438 223.671875 224.613281 230.890625 C 229.4375 234.671875 234.566406 238.058594 239.929688 241.019531 C 244.984375 243.808594 250.28125 246.054688 255.609375 248.257812 C 261.871094 250.839844 268.476562 253.289062 275.316406 253.554688 C 278.488281 253.675781 281.691406 253.25 284.625 252.007812 C 287.601562 250.75 290.21875 248.636719 292.699219 246.601562 C 305.410156 236.183594 314.714844 222.183594 324.277344 209 C 324.949219 208.078125 323.410156 207.191406 322.746094 208.105469 Z M 322.746094 208.105469 " fill-opacity="1" fill-rule="nonzero"/><path fill="#ffffff" d="M 326.625 213.820312 C 343.023438 197.015625 334.054688 166.605469 318.488281 152.09375 C 317.734375 151.390625 316.964844 150.726562 316.183594 150.101562 C 292.851562 131.480469 271.542969 158.25 261.910156 178.59375 C 260.214844 182.179688 258.671875 185.921875 258.300781 189.875 C 257.929688 193.824219 258.867188 198.058594 261.589844 200.949219 C 271.242188 211.195312 284.726562 199.429688 291.585938 192.261719 " fill-opacity="1" fill-rule="nonzero"/><path fill="#000000" d="M 327.253906 214.445312 C 336.679688 204.65625 337.855469 190.382812 334.464844 177.757812 C 331.023438 164.929688 322.71875 151.179688 310.308594 145.335938 C 304.585938 142.640625 298.203125 142.214844 292.210938 144.289062 C 286.023438 146.425781 280.730469 150.648438 276.289062 155.363281 C 271.523438 160.421875 267.535156 166.222656 264.160156 172.285156 C 260.476562 178.90625 256.300781 186.660156 257.589844 194.472656 C 258.726562 201.375 264.941406 206.582031 272.011719 205.746094 C 278.527344 204.972656 284.246094 200.488281 288.898438 196.164062 C 290.039062 195.105469 291.136719 194.007812 292.214844 192.886719 C 293.003906 192.0625 291.75 190.808594 290.960938 191.632812 C 286.714844 196.050781 281.894531 200.5 276.140625 202.828125 C 273.4375 203.921875 270.429688 204.492188 267.566406 203.703125 C 264.050781 202.738281 261.101562 199.867188 259.914062 196.445312 C 257.351562 189.089844 261.347656 181.316406 264.746094 174.925781 C 267.792969 169.1875 271.367188 163.683594 275.613281 158.757812 C 283.277344 149.875 294.523438 141.757812 306.792969 145.824219 C 313.203125 147.945312 318.527344 152.71875 322.648438 157.9375 C 326.476562 162.792969 329.464844 168.359375 331.507812 174.1875 C 336.042969 187.148438 336.054688 202.75 326 213.191406 C 325.207031 214.015625 326.460938 215.269531 327.253906 214.445312 Z M 327.253906 214.445312 " fill-opacity="1" fill-rule="nonzero"/><path fill="#ffffff" d="M 325.011719 191.796875 C 326.085938 191.125 327.171875 190.476562 328.269531 189.855469 C 332.417969 187.507812 336.804688 185.871094 341.523438 187.464844 C 351.714844 190.90625 360.015625 204.539062 354.386719 214.6875 C 349.398438 223.675781 319.886719 264.019531 309.070312 272.578125 C 307.480469 273.835938 305.816406 275.035156 303.941406 275.804688 C 293.273438 280.191406 278.660156 269.640625 278.21875 258.707031 C 277.992188 253.164062 279.960938 247.769531 282.269531 242.726562 C 291.332031 222.902344 306.257812 203.550781 325.011719 191.796875 Z M 325.011719 191.796875 " fill-opacity="1" fill-rule="nonzero"/><path fill="#000000" d="M 325.460938 192.5625 C 330.078125 189.6875 335.402344 186.484375 341.027344 188.238281 C 344.910156 189.445312 348.292969 192.179688 350.777344 195.34375 C 353.347656 198.628906 355.160156 202.71875 355.308594 206.921875 C 355.421875 210.089844 354.460938 212.902344 352.839844 215.578125 C 346.566406 225.925781 339.066406 235.648438 331.707031 245.230469 C 327.394531 250.84375 322.988281 256.390625 318.363281 261.75 C 314.957031 265.695312 311.457031 269.816406 307.207031 272.886719 C 303.558594 275.527344 299.492188 276.527344 295.070312 275.53125 C 291.09375 274.636719 287.421875 272.476562 284.535156 269.625 C 281.785156 266.902344 279.542969 263.332031 279.152344 259.410156 C 278.589844 253.8125 280.75 248.167969 283.03125 243.171875 C 291.242188 225.195312 303.582031 208.476562 319.523438 196.625 C 321.449219 195.191406 323.429688 193.84375 325.460938 192.5625 C 326.421875 191.957031 325.535156 190.421875 324.5625 191.03125 C 306.703125 202.292969 292.816406 219.460938 283.441406 238.222656 C 279.175781 246.761719 274.328125 257.421875 279.804688 266.496094 C 283.898438 273.273438 292.28125 278.535156 300.386719 277.605469 C 306.96875 276.851562 311.960938 271.484375 316.214844 266.839844 C 321.09375 261.511719 325.636719 255.871094 330.089844 250.1875 C 338.390625 239.585938 346.6875 228.765625 353.835938 217.339844 C 355.347656 214.917969 356.59375 212.457031 356.960938 209.574219 C 357.484375 205.425781 356.367188 201.21875 354.371094 197.585938 C 352.34375 193.894531 349.328125 190.660156 345.722656 188.464844 C 341.355469 185.804688 336.578125 185.277344 331.789062 187.164062 C 329.242188 188.167969 326.878906 189.589844 324.5625 191.03125 C 323.597656 191.632812 324.484375 193.167969 325.460938 192.5625 Z M 325.460938 192.5625 " fill-opacity="1" fill-rule="nonzero"/><path fill="#000000" d="M 261.347656 201.644531 C 259.929688 208.277344 252.578125 209.011719 246.925781 209.074219 C 237.605469 209.179688 228.246094 208.578125 218.980469 207.625 C 217.84375 207.507812 217.851562 209.28125 218.980469 209.398438 C 228.757812 210.40625 238.761719 211.203125 248.601562 210.808594 C 254.667969 210.5625 261.601562 208.933594 263.058594 202.117188 C 263.296875 201.003906 261.585938 200.527344 261.347656 201.644531 Z M 261.347656 201.644531 " fill-opacity="1" fill-rule="nonzero"/><path fill="#000000" d="M 218.058594 178.984375 C 225.671875 180.171875 233.226562 181.59375 240.679688 183.566406 C 246.730469 185.167969 253.125 186.570312 257.433594 191.480469 C 258.1875 192.339844 259.441406 191.082031 258.691406 190.226562 C 254.390625 185.332031 248.109375 183.671875 242.035156 182.089844 C 234.273438 180.0625 226.457031 178.511719 218.53125 177.273438 C 217.414062 177.097656 216.929688 178.804688 218.058594 178.980469 Z M 218.058594 178.984375 " fill-opacity="1" fill-rule="nonzero"/></svg>