<svg xmlns="http://www.w3.org/2000/svg" xmlns:xlink="http://www.w3.org/1999/xlink" width="500" zoomAndPan="magnify" viewBox="0 0 375 374.999991" height="500" preserveAspectRatio="xMidYMid meet" version="1.0"><defs><clipPath id="15408b2abb"><path d="M 0 0 L 375 0 L 375 374.25 L 0 374.25 Z M 0 0 " clip-rule="nonzero"/></clipPath></defs><path fill="#fbb830" d="M 373.546875 187.136719 L 267.992188 208.757812 L 348.601562 280.207031 L 246.371094 246.09375 L 280.507812 348.25 L 209.007812 267.699219 L 187.371094 373.175781 L 165.734375 267.699219 L 94.230469 348.25 L 128.367188 246.09375 L 26.136719 280.207031 L 106.75 208.757812 L 1.191406 187.136719 L 106.75 165.515625 L 26.136719 94.066406 L 128.367188 128.179688 L 94.230469 26.023438 L 165.734375 106.578125 L 187.371094 1.097656 L 209.007812 106.578125 L 280.507812 26.023438 L 246.371094 128.179688 L 348.601562 94.066406 L 267.992188 165.515625 Z M 373.546875 187.136719 " fill-opacity="1" fill-rule="nonzero"/><g clip-path="url(#15408b2abb)"><path fill="#000000" d="M 373.3125 186.28125 C 361.390625 188.722656 349.46875 191.167969 337.546875 193.609375 C 318.628906 197.484375 299.707031 201.359375 280.785156 205.234375 C 276.441406 206.125 272.097656 207.015625 267.753906 207.902344 C 267.117188 208.035156 266.878906 208.957031 267.363281 209.386719 C 276.46875 217.453125 285.570312 225.523438 294.675781 233.59375 C 309.125 246.402344 323.574219 259.207031 338.023438 272.015625 C 341.339844 274.953125 344.65625 277.894531 347.976562 280.835938 L 348.839844 279.351562 C 337.292969 275.5 325.746094 271.648438 314.203125 267.796875 C 295.875 261.679688 277.550781 255.566406 259.226562 249.453125 C 255.019531 248.046875 250.8125 246.644531 246.605469 245.242188 C 245.980469 245.03125 245.308594 245.703125 245.515625 246.332031 C 249.371094 257.867188 253.226562 269.40625 257.082031 280.941406 C 263.203125 299.253906 269.320312 317.566406 275.441406 335.875 C 276.84375 340.078125 278.25 344.28125 279.652344 348.484375 L 281.136719 347.621094 C 273.0625 338.527344 264.984375 329.429688 256.910156 320.332031 C 244.09375 305.890625 231.277344 291.453125 218.460938 277.015625 C 215.519531 273.699219 212.578125 270.386719 209.632812 267.070312 C 209.207031 266.585938 208.28125 266.824219 208.152344 267.460938 C 205.707031 279.375 203.265625 291.289062 200.820312 303.199219 C 196.941406 322.105469 193.0625 341.015625 189.1875 359.921875 C 188.296875 364.261719 187.40625 368.601562 186.515625 372.941406 L 188.226562 372.941406 C 185.78125 361.027344 183.339844 349.117188 180.894531 337.203125 C 177.015625 318.296875 173.136719 299.390625 169.257812 280.480469 C 168.371094 276.140625 167.480469 271.800781 166.589844 267.460938 C 166.457031 266.824219 165.535156 266.585938 165.105469 267.070312 C 157.03125 276.167969 148.957031 285.265625 140.878906 294.363281 C 128.0625 308.800781 115.246094 323.238281 102.429688 337.679688 C 99.488281 340.992188 96.546875 344.308594 93.601562 347.621094 L 95.085938 348.484375 C 98.941406 336.949219 102.796875 325.410156 106.652344 313.875 C 112.769531 295.5625 118.890625 277.25 125.011719 258.941406 C 126.414062 254.734375 127.820312 250.535156 129.222656 246.332031 C 129.433594 245.703125 128.757812 245.03125 128.132812 245.238281 C 116.585938 249.09375 105.039062 252.945312 93.496094 256.796875 C 75.171875 262.914062 56.84375 269.027344 38.519531 275.140625 C 34.3125 276.546875 30.109375 277.949219 25.902344 279.351562 L 26.765625 280.835938 C 35.867188 272.765625 44.972656 264.695312 54.078125 256.625 C 68.527344 243.820312 82.976562 231.011719 97.425781 218.203125 C 100.742188 215.265625 104.058594 212.324219 107.375 209.386719 C 107.859375 208.957031 107.625 208.035156 106.984375 207.902344 C 95.0625 205.460938 83.144531 203.019531 71.222656 200.578125 C 52.300781 196.703125 33.378906 192.828125 14.457031 188.953125 C 10.113281 188.0625 5.769531 187.171875 1.425781 186.285156 L 1.425781 187.992188 C 13.347656 185.550781 25.269531 183.109375 37.191406 180.667969 C 56.113281 176.792969 75.035156 172.917969 93.957031 169.039062 C 98.300781 168.152344 102.640625 167.261719 106.984375 166.371094 C 107.625 166.242188 107.859375 165.320312 107.375 164.890625 C 98.273438 156.820312 89.167969 148.753906 80.066406 140.683594 C 65.613281 127.875 51.164062 115.066406 36.714844 102.261719 C 33.398438 99.320312 30.082031 96.382812 26.765625 93.441406 L 25.902344 94.921875 C 37.449219 98.773438 48.992188 102.628906 60.539062 106.480469 C 78.863281 112.59375 97.1875 118.710938 115.515625 124.824219 C 119.722656 126.226562 123.925781 127.632812 128.132812 129.035156 C 128.757812 129.246094 129.433594 128.570312 129.222656 127.945312 C 125.367188 116.40625 121.511719 104.871094 117.65625 93.332031 C 111.539062 75.023438 105.417969 56.710938 99.300781 38.398438 C 97.894531 34.195312 96.492188 29.992188 95.085938 25.789062 L 93.605469 26.652344 C 101.679688 35.75 109.753906 44.847656 117.828125 53.945312 C 130.644531 68.382812 143.464844 82.824219 156.28125 97.261719 C 159.222656 100.574219 162.164062 103.890625 165.105469 107.203125 C 165.535156 107.6875 166.457031 107.453125 166.589844 106.8125 C 169.03125 94.902344 171.476562 82.988281 173.917969 71.074219 C 177.796875 52.167969 181.675781 33.261719 185.554688 14.355469 C 186.445312 10.015625 187.335938 5.675781 188.226562 1.335938 L 186.515625 1.335938 C 188.957031 13.246094 191.402344 25.160156 193.847656 37.070312 C 197.722656 55.980469 201.601562 74.886719 205.480469 93.792969 C 206.371094 98.132812 207.261719 102.472656 208.152344 106.8125 C 208.28125 107.453125 209.207031 107.6875 209.632812 107.203125 C 217.710938 98.105469 225.785156 89.011719 233.859375 79.914062 C 246.679688 65.472656 259.496094 51.035156 272.3125 36.597656 C 275.253906 33.28125 278.195312 29.96875 281.136719 26.652344 L 279.65625 25.789062 C 275.800781 37.328125 271.945312 48.863281 268.089844 60.402344 C 261.96875 78.714844 255.851562 97.023438 249.730469 115.335938 C 248.328125 119.539062 246.921875 123.742188 245.515625 127.945312 C 245.308594 128.570312 245.980469 129.246094 246.609375 129.035156 C 258.152344 125.183594 269.699219 121.332031 281.246094 117.476562 C 299.570312 111.363281 317.894531 105.25 336.222656 99.132812 C 340.425781 97.730469 344.632812 96.328125 348.839844 94.921875 L 347.976562 93.441406 C 338.871094 101.511719 329.769531 109.582031 320.664062 117.648438 C 306.214844 130.457031 291.765625 143.265625 277.3125 156.070312 C 273.996094 159.011719 270.679688 161.949219 267.363281 164.890625 C 266.878906 165.320312 267.117188 166.242188 267.753906 166.371094 C 279.675781 168.8125 291.597656 171.253906 303.519531 173.699219 C 322.441406 177.574219 341.363281 181.449219 360.285156 185.324219 C 364.628906 186.214844 368.96875 187.101562 373.3125 187.992188 C 374.429688 188.222656 374.902344 186.511719 373.785156 186.285156 C 361.863281 183.839844 349.941406 181.398438 338.019531 178.957031 C 319.101562 175.082031 300.179688 171.207031 281.257812 167.332031 C 276.914062 166.441406 272.570312 165.550781 268.226562 164.664062 L 268.621094 166.144531 C 277.722656 158.074219 286.828125 150.003906 295.929688 141.9375 C 310.382812 129.128906 324.832031 116.320312 339.28125 103.515625 C 342.597656 100.574219 345.914062 97.636719 349.230469 94.695312 C 349.886719 94.113281 349.195312 92.9375 348.367188 93.214844 C 336.820312 97.066406 325.277344 100.917969 313.730469 104.773438 C 295.40625 110.886719 277.082031 117 258.753906 123.117188 C 254.546875 124.519531 250.34375 125.921875 246.136719 127.324219 L 247.226562 128.417969 C 251.082031 116.878906 254.9375 105.34375 258.792969 93.804688 C 264.914062 75.492188 271.03125 57.183594 277.152344 38.871094 C 278.554688 34.667969 279.960938 30.464844 281.367188 26.261719 C 281.640625 25.433594 280.464844 24.742188 279.882812 25.398438 C 271.808594 34.496094 263.734375 43.59375 255.65625 52.691406 C 242.839844 67.128906 230.023438 81.566406 217.207031 96.007812 C 214.265625 99.320312 211.320312 102.636719 208.378906 105.949219 L 209.863281 106.339844 C 207.417969 94.429688 204.976562 82.515625 202.53125 70.605469 C 198.652344 51.695312 194.773438 32.789062 190.894531 13.882812 C 190.003906 9.542969 189.117188 5.203125 188.226562 0.863281 C 188.050781 0.015625 186.6875 0.015625 186.515625 0.863281 C 184.070312 12.773438 181.628906 24.6875 179.183594 36.601562 C 175.304688 55.507812 171.425781 74.414062 167.546875 93.320312 C 166.65625 97.660156 165.769531 102 164.878906 106.339844 L 166.359375 105.949219 C 158.285156 96.851562 150.210938 87.753906 142.132812 78.65625 C 129.316406 64.21875 116.5 49.78125 103.683594 35.339844 C 100.742188 32.027344 97.800781 28.710938 94.859375 25.398438 C 94.273438 24.742188 93.097656 25.433594 93.375 26.261719 C 97.230469 37.796875 101.085938 49.335938 104.941406 60.871094 C 111.0625 79.183594 117.179688 97.496094 123.300781 115.804688 C 124.703125 120.007812 126.109375 124.210938 127.511719 128.414062 L 128.605469 127.324219 C 117.058594 123.472656 105.511719 119.621094 93.96875 115.769531 C 75.640625 109.652344 57.316406 103.539062 38.992188 97.421875 C 34.785156 96.019531 30.578125 94.617188 26.371094 93.214844 C 25.542969 92.9375 24.851562 94.113281 25.507812 94.695312 C 34.613281 102.765625 43.71875 110.832031 52.820312 118.902344 C 67.269531 131.710938 81.71875 144.515625 96.171875 157.324219 C 99.488281 160.265625 102.804688 163.203125 106.121094 166.144531 L 106.511719 164.664062 C 94.589844 167.105469 82.667969 169.546875 70.75 171.988281 C 51.828125 175.863281 32.90625 179.738281 13.984375 183.613281 C 9.640625 184.503906 5.296875 185.394531 0.953125 186.285156 C 0.109375 186.457031 0.109375 187.820312 0.953125 187.992188 C 12.875 190.433594 24.796875 192.875 36.71875 195.316406 C 55.640625 199.195312 74.5625 203.070312 93.484375 206.945312 C 97.824219 207.835938 102.167969 208.722656 106.511719 209.613281 L 106.121094 208.132812 C 97.015625 216.199219 87.914062 224.269531 78.808594 232.339844 C 64.359375 245.148438 49.910156 257.953125 35.460938 270.761719 C 32.140625 273.699219 28.824219 276.640625 25.507812 279.582031 C 24.851562 280.164062 25.542969 281.339844 26.371094 281.0625 C 37.917969 277.210938 49.464844 273.355469 61.007812 269.503906 C 79.335938 263.390625 97.660156 257.273438 115.984375 251.160156 C 120.191406 249.757812 124.398438 248.351562 128.601562 246.949219 L 127.511719 245.859375 C 123.65625 257.398438 119.800781 268.933594 115.945312 280.46875 C 109.828125 298.78125 103.707031 317.09375 97.589844 335.40625 C 96.183594 339.609375 94.777344 343.808594 93.375 348.015625 C 93.097656 348.84375 94.273438 349.53125 94.855469 348.875 C 102.933594 339.78125 111.007812 330.683594 119.082031 321.585938 C 131.898438 307.144531 144.714844 292.707031 157.535156 278.269531 C 160.476562 274.953125 163.417969 271.640625 166.359375 268.324219 L 164.878906 267.933594 C 167.320312 279.847656 169.765625 291.757812 172.207031 303.671875 C 176.085938 322.578125 179.964844 341.484375 183.84375 360.394531 C 184.734375 364.734375 185.625 369.074219 186.515625 373.414062 C 186.6875 374.257812 188.050781 374.257812 188.226562 373.414062 C 190.667969 361.5 193.113281 349.589844 195.554688 337.675781 C 199.433594 318.769531 203.3125 299.863281 207.191406 280.953125 C 208.082031 276.613281 208.972656 272.273438 209.863281 267.933594 L 208.378906 268.324219 C 216.453125 277.421875 224.53125 286.519531 232.605469 295.617188 C 245.421875 310.058594 258.238281 324.496094 271.054688 338.933594 C 273.996094 342.25 276.941406 345.5625 279.882812 348.878906 C 280.464844 349.535156 281.640625 348.84375 281.363281 348.015625 C 277.507812 336.476562 273.652344 324.941406 269.796875 313.402344 C 263.679688 295.089844 257.558594 276.78125 251.441406 258.46875 C 250.035156 254.265625 248.628906 250.0625 247.226562 245.859375 L 246.136719 246.949219 C 257.679688 250.804688 269.226562 254.65625 280.773438 258.507812 C 299.097656 264.621094 317.421875 270.738281 335.746094 276.851562 C 339.953125 278.253906 344.160156 279.660156 348.367188 281.0625 C 349.195312 281.339844 349.886719 280.164062 349.230469 279.582031 C 340.125 271.511719 331.023438 263.441406 321.917969 255.375 C 307.46875 242.566406 293.019531 229.757812 278.570312 216.949219 C 275.253906 214.011719 271.933594 211.070312 268.617188 208.132812 L 268.226562 209.613281 C 280.148438 207.171875 292.070312 204.730469 303.992188 202.289062 C 322.914062 198.414062 341.832031 194.535156 360.753906 190.660156 C 365.097656 189.769531 369.441406 188.882812 373.785156 187.992188 C 374.902344 187.761719 374.429688 186.054688 373.3125 186.28125 Z M 373.3125 186.28125 " fill-opacity="1" fill-rule="nonzero"/></g><path fill="#f55842" d="M 173.160156 239.992188 L 126.308594 292.773438 L 148.695312 225.78125 L 81.65625 248.152344 L 134.472656 201.339844 L 65.144531 187.136719 L 134.472656 172.9375 L 81.65625 126.121094 L 148.695312 148.492188 L 126.308594 81.503906 L 173.160156 134.28125 L 187.371094 65.003906 L 201.578125 134.28125 L 248.433594 81.5 L 226.042969 148.492188 L 293.085938 126.121094 L 240.265625 172.9375 L 309.59375 187.136719 L 240.265625 201.339844 L 293.082031 248.152344 L 226.042969 225.78125 L 248.429688 292.773438 L 201.582031 239.992188 L 187.371094 309.269531 Z M 173.160156 239.992188 " fill-opacity="1" fill-rule="nonzero"/><path fill="#000000" d="M 172.53125 239.367188 C 167.257812 245.308594 161.988281 251.246094 156.714844 257.1875 C 148.304688 266.660156 139.894531 276.132812 131.488281 285.605469 C 129.550781 287.785156 127.617188 289.964844 125.679688 292.144531 L 127.164062 293.007812 C 129.683594 285.46875 132.203125 277.929688 134.722656 270.390625 C 138.738281 258.367188 142.757812 246.34375 146.773438 234.324219 L 149.550781 226.019531 C 149.757812 225.390625 149.085938 224.71875 148.457031 224.929688 C 140.914062 227.445312 133.367188 229.960938 125.824219 232.480469 C 113.792969 236.496094 101.761719 240.511719 89.730469 244.523438 C 86.960938 245.449219 84.1875 246.375 81.417969 247.296875 L 82.28125 248.777344 C 88.226562 243.511719 94.171875 238.242188 100.117188 232.972656 C 109.59375 224.570312 119.074219 216.171875 128.554688 207.769531 C 130.734375 205.835938 132.917969 203.898438 135.101562 201.964844 C 135.585938 201.535156 135.347656 200.613281 134.710938 200.484375 C 126.90625 198.886719 119.105469 197.289062 111.300781 195.6875 C 98.859375 193.140625 86.417969 190.589844 73.972656 188.042969 C 71.109375 187.457031 68.246094 186.867188 65.378906 186.28125 L 65.378906 187.992188 C 73.183594 186.394531 80.984375 184.796875 88.785156 183.199219 C 101.230469 180.648438 113.671875 178.101562 126.113281 175.550781 C 128.980469 174.964844 131.84375 174.378906 134.710938 173.792969 C 135.347656 173.660156 135.585938 172.738281 135.101562 172.3125 C 129.15625 167.042969 123.210938 161.773438 117.269531 156.503906 C 107.789062 148.101562 98.308594 139.699219 88.828125 131.300781 C 86.648438 129.363281 84.464844 127.429688 82.28125 125.496094 L 81.417969 126.976562 C 88.964844 129.496094 96.507812 132.011719 104.054688 134.527344 C 116.085938 138.542969 128.117188 142.558594 140.148438 146.574219 C 142.917969 147.496094 145.6875 148.421875 148.460938 149.347656 C 149.085938 149.554688 149.761719 148.882812 149.550781 148.257812 C 147.03125 140.71875 144.511719 133.179688 141.992188 125.640625 C 137.976562 113.617188 133.957031 101.59375 129.9375 89.570312 C 129.015625 86.804688 128.089844 84.035156 127.164062 81.265625 L 125.679688 82.128906 C 130.953125 88.070312 136.226562 94.011719 141.5 99.949219 C 149.90625 109.421875 158.316406 118.894531 166.722656 128.367188 C 168.660156 130.546875 170.59375 132.726562 172.53125 134.910156 C 172.960938 135.394531 173.882812 135.15625 174.015625 134.519531 C 175.613281 126.722656 177.210938 118.925781 178.8125 111.128906 C 181.363281 98.695312 183.914062 86.261719 186.460938 73.828125 C 187.050781 70.964844 187.636719 68.105469 188.222656 65.242188 L 186.511719 65.242188 C 188.113281 73.039062 189.710938 80.835938 191.3125 88.632812 C 193.859375 101.0625 196.410156 113.496094 198.960938 125.929688 C 199.550781 128.792969 200.136719 131.65625 200.722656 134.519531 C 200.855469 135.15625 201.777344 135.394531 202.207031 134.910156 C 207.480469 128.96875 212.75 123.027344 218.023438 117.089844 C 226.433594 107.617188 234.839844 98.144531 243.25 88.671875 C 245.1875 86.488281 247.121094 84.308594 249.058594 82.128906 L 247.574219 81.265625 C 245.054688 88.804688 242.535156 96.34375 240.015625 103.882812 C 236 115.90625 231.980469 127.929688 227.964844 139.953125 C 227.039062 142.71875 226.113281 145.488281 225.1875 148.257812 C 224.980469 148.882812 225.652344 149.554688 226.28125 149.347656 C 233.824219 146.828125 241.367188 144.3125 248.914062 141.792969 C 260.945312 137.78125 272.976562 133.765625 285.007812 129.75 C 287.777344 128.824219 290.550781 127.902344 293.320312 126.976562 L 292.457031 125.496094 C 286.511719 130.765625 280.566406 136.03125 274.621094 141.300781 C 265.144531 149.703125 255.664062 158.105469 246.183594 166.507812 C 244.003906 168.441406 241.820312 170.375 239.636719 172.308594 C 239.152344 172.738281 239.390625 173.660156 240.027344 173.792969 C 247.832031 175.390625 255.632812 176.988281 263.4375 178.585938 C 275.878906 181.132812 288.320312 183.683594 300.765625 186.230469 C 303.628906 186.816406 306.492188 187.40625 309.359375 187.992188 L 309.359375 186.28125 C 301.554688 187.878906 293.753906 189.476562 285.949219 191.078125 L 248.625 198.722656 C 245.757812 199.308594 242.894531 199.894531 240.027344 200.484375 C 239.390625 200.613281 239.152344 201.535156 239.636719 201.964844 C 245.582031 207.234375 251.527344 212.5 257.46875 217.769531 C 266.949219 226.171875 276.429688 234.574219 285.90625 242.976562 C 288.089844 244.910156 290.273438 246.84375 292.453125 248.777344 L 293.316406 247.296875 C 285.773438 244.78125 278.230469 242.261719 270.683594 239.746094 C 258.652344 235.730469 246.621094 231.714844 234.589844 227.699219 C 231.820312 226.777344 229.050781 225.851562 226.28125 224.925781 C 225.652344 224.71875 224.980469 225.390625 225.1875 226.019531 C 227.707031 233.558594 230.226562 241.09375 232.746094 248.632812 C 236.765625 260.65625 240.78125 272.679688 244.800781 284.703125 C 245.722656 287.46875 246.648438 290.238281 247.574219 293.007812 L 249.058594 292.144531 C 243.785156 286.203125 238.511719 280.265625 233.238281 274.324219 C 224.832031 264.851562 216.421875 255.378906 208.015625 245.910156 C 206.078125 243.726562 204.144531 241.546875 202.207031 239.367188 C 201.777344 238.882812 200.855469 239.117188 200.726562 239.757812 C 199.125 247.554688 197.527344 255.351562 195.925781 263.144531 C 193.375 275.578125 190.828125 288.011719 188.277344 300.445312 C 187.6875 303.308594 187.101562 306.167969 186.515625 309.03125 L 188.226562 309.03125 C 186.625 301.234375 185.027344 293.4375 183.425781 285.644531 C 180.878906 273.210938 178.328125 260.777344 175.777344 248.34375 C 175.1875 245.480469 174.601562 242.621094 174.015625 239.757812 C 173.785156 238.640625 172.074219 239.113281 172.304688 240.230469 C 173.902344 248.023438 175.503906 255.820312 177.101562 263.617188 C 179.652344 276.050781 182.203125 288.484375 184.753906 300.917969 C 185.339844 303.777344 185.925781 306.640625 186.515625 309.503906 C 186.6875 310.347656 188.050781 310.351562 188.226562 309.503906 C 189.824219 301.707031 191.425781 293.910156 193.023438 286.113281 C 195.574219 273.683594 198.125 261.25 200.675781 248.816406 C 201.261719 245.953125 201.847656 243.089844 202.4375 240.230469 L 200.953125 240.621094 C 206.226562 246.558594 211.496094 252.5 216.769531 258.4375 C 225.179688 267.910156 233.585938 277.382812 241.996094 286.855469 C 243.929688 289.035156 245.867188 291.21875 247.804688 293.398438 C 248.386719 294.054688 249.5625 293.363281 249.285156 292.535156 C 246.765625 284.996094 244.246094 277.457031 241.726562 269.917969 C 237.710938 257.894531 233.691406 245.871094 229.675781 233.851562 C 228.75 231.082031 227.824219 228.3125 226.898438 225.546875 L 225.808594 226.636719 C 233.351562 229.152344 240.898438 231.671875 248.441406 234.1875 C 260.472656 238.203125 272.503906 242.21875 284.535156 246.234375 C 287.308594 247.15625 290.078125 248.082031 292.847656 249.007812 C 293.675781 249.28125 294.367188 248.105469 293.710938 247.523438 C 287.765625 242.257812 281.820312 236.988281 275.878906 231.71875 C 266.398438 223.316406 256.917969 214.914062 247.441406 206.515625 C 245.257812 204.578125 243.074219 202.644531 240.894531 200.710938 L 240.5 202.191406 C 248.304688 200.59375 256.105469 198.996094 263.910156 197.398438 C 276.351562 194.847656 288.792969 192.300781 301.238281 189.75 C 304.101562 189.164062 306.964844 188.578125 309.832031 187.992188 C 310.675781 187.816406 310.675781 186.453125 309.832031 186.28125 C 302.027344 184.683594 294.226562 183.085938 286.421875 181.488281 C 273.980469 178.9375 261.539062 176.390625 249.09375 173.84375 C 246.230469 173.253906 243.367188 172.667969 240.5 172.082031 L 240.890625 173.5625 C 246.835938 168.292969 252.78125 163.027344 258.726562 157.757812 C 268.203125 149.355469 277.683594 140.953125 287.164062 132.550781 C 289.347656 130.617188 291.527344 128.683594 293.710938 126.75 C 294.367188 126.167969 293.675781 124.988281 292.847656 125.265625 C 285.300781 127.785156 277.757812 130.300781 270.214844 132.820312 C 258.183594 136.832031 246.148438 140.847656 234.117188 144.863281 C 231.347656 145.789062 228.578125 146.710938 225.808594 147.636719 L 226.898438 148.726562 C 229.417969 141.1875 231.9375 133.648438 234.457031 126.109375 C 238.476562 114.085938 242.492188 102.0625 246.511719 90.039062 C 247.4375 87.273438 248.363281 84.503906 249.285156 81.734375 C 249.5625 80.90625 248.386719 80.214844 247.804688 80.871094 C 242.53125 86.8125 237.257812 92.753906 231.984375 98.691406 C 223.578125 108.164062 215.167969 117.636719 206.757812 127.109375 C 204.824219 129.292969 202.886719 131.472656 200.953125 133.652344 L 202.433594 134.046875 C 200.835938 126.25 199.234375 118.453125 197.636719 110.65625 C 195.085938 98.222656 192.535156 85.789062 189.984375 73.355469 C 189.398438 70.492188 188.8125 67.632812 188.222656 64.769531 C 188.050781 63.921875 186.6875 63.921875 186.511719 64.769531 C 184.914062 72.566406 183.316406 80.363281 181.714844 88.160156 C 179.164062 100.589844 176.613281 113.023438 174.066406 125.457031 C 173.476562 128.320312 172.890625 131.183594 172.304688 134.046875 L 173.785156 133.652344 C 168.511719 127.714844 163.242188 121.773438 157.96875 115.835938 C 149.558594 106.363281 141.152344 96.890625 132.742188 87.417969 C 130.808594 85.238281 128.871094 83.054688 126.9375 80.875 C 126.351562 80.21875 125.175781 80.910156 125.453125 81.738281 C 127.972656 89.277344 130.492188 96.816406 133.011719 104.355469 C 137.027344 116.378906 141.046875 128.398438 145.0625 140.421875 C 145.988281 143.191406 146.914062 145.957031 147.839844 148.726562 L 148.929688 147.636719 C 141.386719 145.117188 133.839844 142.601562 126.296875 140.085938 L 90.199219 128.039062 C 87.429688 127.117188 84.660156 126.191406 81.890625 125.265625 C 81.0625 124.992188 80.371094 126.167969 81.027344 126.75 C 86.96875 132.015625 92.914062 137.285156 98.859375 142.554688 C 108.339844 150.957031 117.820312 159.359375 127.296875 167.761719 C 129.480469 169.695312 131.664062 171.628906 133.84375 173.5625 L 134.238281 172.082031 C 126.433594 173.679688 118.632812 175.277344 110.828125 176.875 C 98.386719 179.425781 85.945312 181.972656 73.5 184.519531 C 70.636719 185.109375 67.773438 185.695312 64.90625 186.28125 C 64.0625 186.453125 64.058594 187.816406 64.90625 187.992188 C 72.710938 189.589844 80.511719 191.1875 88.316406 192.785156 C 100.757812 195.335938 113.199219 197.882812 125.644531 200.433594 C 128.507812 201.019531 131.371094 201.605469 134.238281 202.191406 L 133.84375 200.710938 C 127.902344 205.980469 121.957031 211.246094 116.011719 216.515625 C 106.53125 224.917969 97.054688 233.320312 87.574219 241.722656 C 85.390625 243.65625 83.210938 245.589844 81.027344 247.523438 C 80.371094 248.105469 81.0625 249.285156 81.890625 249.007812 C 89.433594 246.488281 96.980469 243.972656 104.523438 241.453125 C 116.554688 237.441406 128.585938 233.425781 140.621094 229.410156 C 143.390625 228.484375 146.160156 227.5625 148.929688 226.636719 L 147.839844 225.546875 C 145.320312 233.085938 142.800781 240.625 140.28125 248.164062 C 136.261719 260.1875 132.246094 272.210938 128.226562 284.234375 L 125.453125 292.539062 C 125.175781 293.367188 126.351562 294.054688 126.933594 293.398438 C 132.207031 287.460938 137.480469 281.519531 142.753906 275.582031 C 151.160156 266.109375 159.570312 256.636719 167.976562 247.164062 C 169.914062 244.984375 171.851562 242.800781 173.785156 240.621094 C 174.542969 239.769531 173.292969 238.511719 172.53125 239.367188 Z M 172.53125 239.367188 " fill-opacity="1" fill-rule="nonzero"/><path fill="#5285fb" d="M 180.585938 212.289062 L 158.386719 237.296875 L 169.023438 205.472656 L 137.175781 216.097656 L 162.199219 193.917969 L 129.097656 187.136719 L 162.199219 180.359375 L 137.171875 158.175781 L 169.023438 168.804688 L 158.386719 136.980469 L 180.585938 161.988281 L 187.371094 128.914062 L 194.152344 161.988281 L 216.355469 136.976562 L 205.71875 168.804688 L 237.566406 158.175781 L 212.539062 180.359375 L 245.640625 187.136719 L 212.542969 193.917969 L 237.566406 216.097656 L 205.71875 205.472656 L 216.351562 237.296875 L 194.152344 212.289062 L 187.371094 245.363281 Z M 180.585938 212.289062 " fill-opacity="1" fill-rule="nonzero"/><path fill="#000000" d="M 179.957031 211.664062 C 173.480469 218.960938 167 226.257812 160.523438 233.558594 C 159.601562 234.59375 158.679688 235.632812 157.757812 236.671875 L 159.242188 237.535156 C 162.339844 228.265625 165.4375 218.992188 168.535156 209.722656 C 168.980469 208.386719 169.429688 207.046875 169.878906 205.707031 C 170.085938 205.082031 169.414062 204.40625 168.785156 204.617188 C 159.511719 207.710938 150.234375 210.804688 140.957031 213.902344 C 139.617188 214.347656 138.277344 214.796875 136.9375 215.242188 L 137.800781 216.722656 C 145.105469 210.25 152.410156 203.78125 159.710938 197.308594 C 160.75 196.386719 161.789062 195.464844 162.828125 194.546875 C 163.3125 194.117188 163.074219 193.195312 162.4375 193.0625 C 152.78125 191.085938 143.125 189.109375 133.46875 187.128906 C 132.089844 186.847656 130.714844 186.566406 129.335938 186.28125 L 129.335938 187.992188 C 138.992188 186.015625 148.648438 184.039062 158.304688 182.058594 C 159.679688 181.777344 161.058594 181.496094 162.4375 181.210938 C 163.074219 181.082031 163.3125 180.160156 162.828125 179.730469 C 155.523438 173.257812 148.222656 166.785156 140.917969 160.3125 C 139.878906 159.390625 138.839844 158.46875 137.800781 157.550781 L 136.9375 159.03125 C 146.214844 162.125 155.492188 165.222656 164.765625 168.316406 C 166.105469 168.761719 167.445312 169.210938 168.785156 169.65625 C 169.414062 169.867188 170.085938 169.191406 169.878906 168.566406 C 166.78125 159.296875 163.683594 150.027344 160.585938 140.757812 C 160.136719 139.421875 159.691406 138.082031 159.242188 136.742188 L 157.761719 137.605469 C 164.238281 144.902344 170.714844 152.203125 177.195312 159.5 L 179.957031 162.613281 C 180.386719 163.097656 181.308594 162.859375 181.441406 162.222656 C 183.417969 152.574219 185.398438 142.925781 187.378906 133.277344 C 187.660156 131.902344 187.941406 130.523438 188.226562 129.148438 L 186.515625 129.148438 C 188.492188 138.796875 190.472656 148.445312 192.449219 158.09375 C 192.734375 159.46875 193.015625 160.84375 193.296875 162.222656 C 193.429688 162.859375 194.351562 163.097656 194.78125 162.613281 C 201.257812 155.316406 207.738281 148.015625 214.214844 140.71875 L 216.980469 137.605469 L 215.496094 136.742188 C 212.398438 146.011719 209.300781 155.28125 206.203125 164.550781 C 205.757812 165.890625 205.308594 167.230469 204.863281 168.566406 C 204.652344 169.195312 205.328125 169.867188 205.953125 169.660156 C 215.230469 166.5625 224.503906 163.46875 233.78125 160.375 C 235.121094 159.925781 236.460938 159.480469 237.800781 159.03125 L 236.9375 157.550781 C 229.632812 164.023438 222.332031 170.496094 215.027344 176.96875 C 213.988281 177.890625 212.949219 178.808594 211.910156 179.730469 C 211.425781 180.160156 211.664062 181.082031 212.304688 181.210938 C 221.960938 183.191406 231.613281 185.167969 241.269531 187.144531 C 242.648438 187.429688 244.027344 187.710938 245.40625 187.992188 L 245.40625 186.285156 C 235.75 188.261719 226.09375 190.238281 216.4375 192.21875 C 215.058594 192.5 213.683594 192.78125 212.304688 193.0625 C 211.667969 193.195312 211.429688 194.117188 211.914062 194.546875 C 219.214844 201.019531 226.519531 207.492188 233.820312 213.964844 C 234.859375 214.882812 235.898438 215.804688 236.9375 216.726562 L 237.800781 215.246094 C 228.527344 212.148438 219.25 209.054688 209.972656 205.957031 C 208.632812 205.511719 207.292969 205.0625 205.953125 204.617188 C 205.328125 204.40625 204.652344 205.082031 204.863281 205.707031 C 207.960938 214.976562 211.058594 224.246094 214.15625 233.515625 C 214.601562 234.855469 215.050781 236.195312 215.496094 237.535156 L 216.980469 236.671875 C 210.503906 229.371094 204.023438 222.074219 197.546875 214.777344 C 196.625 213.738281 195.703125 212.699219 194.78125 211.664062 C 194.351562 211.179688 193.429688 211.417969 193.300781 212.054688 C 191.320312 221.703125 189.339844 231.347656 187.363281 240.996094 C 187.078125 242.375 186.796875 243.75 186.515625 245.128906 L 188.226562 245.128906 C 186.246094 235.480469 184.269531 225.832031 182.289062 216.183594 C 182.007812 214.808594 181.722656 213.429688 181.441406 212.054688 C 181.214844 210.9375 179.503906 211.410156 179.730469 212.527344 C 181.710938 222.175781 183.6875 231.820312 185.667969 241.46875 C 185.949219 242.84375 186.234375 244.222656 186.515625 245.597656 C 186.6875 246.445312 188.050781 246.445312 188.226562 245.597656 C 190.203125 235.949219 192.183594 226.304688 194.164062 216.65625 C 194.445312 215.277344 194.726562 213.902344 195.011719 212.527344 L 193.527344 212.917969 C 200.003906 220.214844 206.484375 227.511719 212.960938 234.808594 C 213.882812 235.847656 214.804688 236.886719 215.726562 237.925781 C 216.308594 238.582031 217.484375 237.890625 217.207031 237.0625 C 214.109375 227.792969 211.011719 218.523438 207.914062 209.253906 C 207.46875 207.914062 207.019531 206.574219 206.574219 205.234375 L 205.480469 206.328125 C 214.757812 209.421875 224.035156 212.515625 233.3125 215.613281 C 234.652344 216.058594 235.992188 216.507812 237.332031 216.953125 C 238.160156 217.230469 238.851562 216.054688 238.195312 215.472656 C 230.890625 209 223.589844 202.527344 216.285156 196.054688 C 215.246094 195.132812 214.207031 194.210938 213.167969 193.292969 L 212.777344 194.773438 C 222.433594 192.796875 232.089844 190.816406 241.746094 188.839844 C 243.121094 188.558594 244.5 188.273438 245.878906 187.992188 C 246.722656 187.820312 246.722656 186.457031 245.878906 186.28125 C 236.222656 184.304688 226.566406 182.328125 216.910156 180.347656 C 215.53125 180.066406 214.152344 179.785156 212.777344 179.503906 L 213.167969 180.984375 C 220.46875 174.511719 227.773438 168.039062 235.078125 161.566406 C 236.113281 160.644531 237.152344 159.722656 238.191406 158.804688 C 238.847656 158.222656 238.160156 157.042969 237.328125 157.320312 C 228.054688 160.417969 218.777344 163.511719 209.5 166.605469 C 208.160156 167.054688 206.820312 167.5 205.480469 167.949219 L 206.574219 169.039062 C 209.671875 159.769531 212.769531 150.5 215.867188 141.226562 C 216.3125 139.890625 216.761719 138.550781 217.207031 137.210938 C 217.484375 136.382812 216.308594 135.691406 215.726562 136.347656 C 209.246094 143.648438 202.769531 150.945312 196.289062 158.242188 C 195.367188 159.28125 194.449219 160.320312 193.527344 161.359375 L 195.007812 161.75 C 193.03125 152.101562 191.050781 142.453125 189.070312 132.804688 C 188.789062 131.429688 188.507812 130.050781 188.226562 128.675781 C 188.050781 127.832031 186.6875 127.828125 186.515625 128.675781 C 184.535156 138.324219 182.554688 147.972656 180.578125 157.621094 C 180.292969 158.996094 180.011719 160.371094 179.730469 161.75 L 181.210938 161.359375 C 174.734375 154.0625 168.257812 146.761719 161.78125 139.464844 L 159.015625 136.351562 C 158.433594 135.695312 157.253906 136.386719 157.53125 137.214844 C 160.628906 146.484375 163.726562 155.753906 166.824219 165.019531 C 167.273438 166.359375 167.71875 167.699219 168.167969 169.039062 L 169.257812 167.945312 C 159.980469 164.851562 150.703125 161.757812 141.429688 158.660156 C 140.089844 158.214844 138.75 157.765625 137.410156 157.320312 C 136.578125 157.042969 135.886719 158.21875 136.546875 158.800781 C 143.847656 165.273438 151.152344 171.75 158.457031 178.222656 C 159.496094 179.140625 160.535156 180.0625 161.570312 180.984375 L 161.964844 179.503906 C 152.308594 181.480469 142.652344 183.457031 132.996094 185.433594 L 128.863281 186.28125 C 128.015625 186.457031 128.015625 187.820312 128.863281 187.992188 C 138.519531 189.96875 148.175781 191.949219 157.832031 193.925781 C 159.207031 194.207031 160.585938 194.492188 161.964844 194.773438 L 161.570312 193.292969 C 154.269531 199.761719 146.964844 206.234375 139.664062 212.707031 C 138.625 213.628906 137.585938 214.550781 136.546875 215.46875 C 135.890625 216.050781 136.582031 217.230469 137.410156 216.953125 C 146.6875 213.855469 155.960938 210.761719 165.238281 207.667969 C 166.578125 207.21875 167.917969 206.773438 169.257812 206.324219 L 168.167969 205.234375 C 165.070312 214.503906 161.96875 223.777344 158.871094 233.046875 C 158.425781 234.386719 157.976562 235.722656 157.53125 237.0625 C 157.253906 237.890625 158.429688 238.582031 159.011719 237.925781 C 165.492188 230.628906 171.96875 223.328125 178.449219 216.03125 C 179.371094 214.992188 180.292969 213.953125 181.214844 212.917969 C 181.96875 212.066406 180.71875 210.808594 179.957031 211.664062 Z M 179.957031 211.664062 " fill-opacity="1" fill-rule="nonzero"/><path fill="#ffffff" d="M 60.667969 177.855469 C 78.699219 159.273438 97.648438 135.496094 126.339844 138.339844 C 140.46875 139.742188 147.496094 154.035156 140.382812 166.613281 C 140.742188 165.980469 148.078125 169.28125 148.914062 169.742188 C 151.691406 171.277344 154.734375 173.617188 155.972656 176.65625 C 158.5 182.847656 156.269531 192.464844 152.585938 197.792969 C 157.5625 196.5625 162.945312 199.515625 165.566406 203.917969 C 168.191406 208.320312 168.421875 213.8125 167.367188 218.828125 C 162.625 241.410156 128.585938 256.351562 108.621094 260.519531 C 96.679688 263.015625 78.65625 267.816406 68.804688 258.144531 C 55.714844 245.292969 46.710938 224.285156 39.039062 207.871094 " fill-opacity="1" fill-rule="nonzero"/><path fill="#000000" d="M 61.296875 178.480469 C 71.96875 167.46875 82.125 155.421875 95.242188 147.1875 C 101.707031 143.128906 108.914062 140.152344 116.542969 139.285156 C 123.820312 138.457031 132.019531 138.863281 137.464844 144.375 C 143.28125 150.261719 143.488281 159.171875 139.617188 166.164062 C 139.136719 167.03125 140.292969 167.972656 141.011719 167.238281 C 140.734375 167.519531 140.539062 167.339844 140.875 167.453125 C 141.0625 167.515625 141.265625 167.550781 141.460938 167.605469 C 142.011719 167.769531 142.554688 167.96875 143.09375 168.171875 C 144.375 168.660156 145.640625 169.199219 146.890625 169.761719 C 149.746094 171.050781 152.621094 172.847656 154.363281 175.515625 C 156.453125 178.707031 156.429688 183.023438 155.863281 186.660156 C 155.273438 190.433594 153.964844 194.171875 151.816406 197.347656 C 151.359375 198.027344 152.113281 198.808594 152.820312 198.648438 C 156.472656 197.832031 160.195312 199.285156 162.816406 201.855469 C 165.75 204.734375 166.976562 208.859375 167.0625 212.882812 C 167.195312 219.085938 164.890625 224.976562 161.335938 229.972656 C 154.339844 239.8125 143.292969 246.53125 132.519531 251.519531 C 122.023438 256.378906 111.039062 259.289062 99.722656 261.476562 C 93.3125 262.714844 86.539062 263.722656 80.039062 262.59375 C 76.9375 262.058594 73.914062 260.988281 71.347656 259.140625 C 68.542969 257.121094 66.210938 254.226562 64.0625 251.546875 C 53.519531 238.414062 46.871094 222.558594 39.804688 207.421875 C 39.324219 206.386719 37.792969 207.289062 38.273438 208.316406 C 45.007812 222.738281 51.371094 237.644531 60.984375 250.449219 C 65.128906 255.96875 69.675781 261.519531 76.519531 263.589844 C 83.035156 265.558594 90.113281 264.894531 96.726562 263.808594 C 108.921875 261.804688 120.886719 258.6875 132.175781 253.613281 C 143.652344 248.460938 155.308594 241.394531 162.765625 231.011719 C 166.410156 225.933594 168.773438 219.929688 168.839844 213.628906 C 168.917969 206.257812 165.003906 198.402344 157.199219 196.863281 C 155.574219 196.542969 153.960938 196.578125 152.347656 196.9375 L 153.351562 198.242188 C 155.785156 194.636719 157.199219 190.316406 157.730469 186.023438 C 158.25 181.867188 157.957031 177.210938 155.296875 173.789062 C 153.101562 170.964844 149.992188 169.183594 146.769531 167.78125 C 145.332031 167.15625 143.878906 166.53125 142.386719 166.042969 C 141.632812 165.796875 140.421875 165.300781 139.753906 165.984375 L 141.148438 167.058594 C 144.652344 160.734375 145.21875 152.957031 141.425781 146.613281 C 139.671875 143.683594 137.09375 141.265625 134.0625 139.691406 C 130.546875 137.863281 126.6875 137.328125 122.765625 137.234375 C 105.921875 136.835938 91.59375 146.132812 79.6875 157.171875 C 72.820312 163.539062 66.554688 170.507812 60.039062 177.226562 C 59.246094 178.046875 60.5 179.304688 61.296875 178.480469 Z M 61.296875 178.480469 " fill-opacity="1" fill-rule="nonzero"/><path fill="#ffffff" d="M 34.496094 212.992188 C 20.789062 192.179688 36.261719 162.28125 55.410156 150.285156 C 56.339844 149.703125 57.273438 149.164062 58.21875 148.671875 C 86.289062 133.949219 103.109375 166.144531 109.050781 189.285156 C 110.101562 193.367188 110.953125 197.578125 110.546875 201.773438 C 110.136719 205.96875 108.304688 210.191406 104.886719 212.65625 C 92.761719 221.398438 81.074219 206.417969 75.367188 197.566406 " fill-opacity="1" fill-rule="nonzero"/><path fill="#000000" d="M 35.261719 212.546875 C 27.292969 200.277344 29.667969 184.886719 36.277344 172.578125 C 39.671875 166.261719 44.171875 160.507812 49.5625 155.769531 C 54.832031 151.132812 61.214844 147.265625 68.234375 146.128906 C 80.597656 144.132812 90.472656 152.808594 96.773438 162.488281 C 100.265625 167.855469 102.992188 173.710938 105.167969 179.722656 C 106.183594 182.519531 107.082031 185.359375 107.859375 188.234375 C 109.042969 192.617188 110.125 197.199219 109.660156 201.773438 C 109.242188 205.871094 107.394531 209.945312 103.882812 212.273438 C 100.941406 214.21875 97.523438 214.914062 94.097656 213.96875 C 87.550781 212.160156 82.527344 206.175781 78.707031 200.894531 C 77.8125 199.660156 76.960938 198.398438 76.132812 197.117188 C 75.515625 196.164062 73.976562 197.050781 74.601562 198.015625 C 78.414062 203.90625 82.933594 209.964844 89.035156 213.652344 C 91.859375 215.355469 95.132812 216.453125 98.464844 216.125 C 102.101562 215.765625 105.652344 213.8125 107.921875 210.957031 C 113.585938 203.828125 111.410156 194.109375 109.113281 186.128906 C 107.257812 179.6875 104.828125 173.375 101.710938 167.4375 C 96.046875 156.640625 86.980469 145.265625 73.910156 144.152344 C 59.144531 142.894531 45.824219 154.792969 38.089844 166.167969 C 29.886719 178.234375 25.0625 194.4375 31.0625 208.460938 C 31.804688 210.199219 32.699219 211.855469 33.730469 213.441406 C 34.347656 214.394531 35.886719 213.507812 35.261719 212.546875 Z M 35.261719 212.546875 " fill-opacity="1" fill-rule="nonzero"/><path fill="#ffffff" d="M 40.613281 190.363281 C 39.628906 189.445312 38.628906 188.550781 37.609375 187.679688 C 33.757812 184.398438 29.511719 181.8125 24.273438 182.523438 C 12.957031 184.0625 1.558594 196.605469 5.382812 208.316406 C 8.769531 218.691406 31.410156 266.679688 40.964844 277.777344 C 42.367188 279.410156 43.859375 280.996094 45.660156 282.175781 C 55.898438 288.890625 73.257812 280.832031 75.921875 269.523438 C 77.269531 263.789062 76.304688 257.773438 74.917969 252.046875 C 69.460938 229.5625 57.800781 206.386719 40.613281 190.363281 Z M 40.613281 190.363281 " fill-opacity="1" fill-rule="nonzero"/><path fill="#000000" d="M 41.242188 189.734375 C 37.367188 186.144531 33.046875 182.257812 27.574219 181.617188 C 22.828125 181.058594 17.882812 183.074219 14.066406 185.769531 C 6.761719 190.925781 1.628906 200.078125 4.6875 209.035156 C 6.429688 214.125 8.730469 219.058594 10.945312 223.953125 C 14.304688 231.371094 17.824219 238.71875 21.476562 245.992188 C 25.054688 253.121094 28.746094 260.207031 32.777344 267.09375 C 35.957031 272.535156 39.410156 278.722656 44.601562 282.511719 C 51.425781 287.496094 61.121094 285.695312 67.792969 281.382812 C 71.128906 279.226562 74.101562 276.265625 75.773438 272.621094 C 78.0625 267.621094 77.683594 261.703125 76.753906 256.425781 C 74.785156 245.257812 70.742188 234.226562 65.839844 224.03125 C 60.894531 213.753906 54.644531 204.039062 46.980469 195.566406 C 45.148438 193.542969 43.234375 191.601562 41.242188 189.734375 C 40.410156 188.953125 39.152344 190.203125 39.984375 190.988281 C 55.664062 205.683594 66.308594 225.371094 72.332031 245.847656 C 75.058594 255.101562 78.746094 267.457031 71.707031 275.679688 C 66.679688 281.550781 57.773438 285.246094 50.105469 283.1875 C 43.671875 281.460938 39.746094 275.101562 36.441406 269.753906 C 32.726562 263.742188 29.382812 257.503906 26.132812 251.230469 C 19.667969 238.75 13.441406 226.042969 8.113281 213.027344 C 7.34375 211.144531 6.523438 209.238281 5.996094 207.269531 C 4.78125 202.734375 6.003906 198 8.460938 194.105469 C 10.953125 190.15625 14.6875 186.933594 18.9375 185.003906 C 23.824219 182.789062 28.796875 182.78125 33.414062 185.652344 C 35.8125 187.144531 37.921875 189.074219 39.984375 190.988281 C 40.820312 191.761719 42.078125 190.511719 41.238281 189.734375 Z M 41.242188 189.734375 " fill-opacity="1" fill-rule="nonzero"/><path fill="#000000" d="M 153.074219 196.875 C 145.617188 198.550781 138.515625 201.40625 131.644531 204.707031 C 128.105469 206.40625 124.617188 208.214844 121.15625 210.066406 C 118.257812 211.613281 115.371094 213.273438 112.9375 215.507812 C 108.78125 219.324219 106.078125 225.757812 108.976562 231.128906 C 111.910156 236.570312 118.847656 236.628906 124.148438 235.546875 C 132.375 233.871094 140.339844 230.375 147.414062 225.90625 C 148.375 225.296875 147.488281 223.761719 146.519531 224.375 C 140.757812 228.011719 134.535156 230.855469 127.988281 232.746094 C 122.992188 234.191406 115.65625 236.09375 111.546875 231.691406 C 107.199219 227.035156 110.519531 219.980469 114.546875 216.445312 C 116.914062 214.367188 119.710938 212.839844 122.480469 211.367188 C 125.484375 209.769531 128.507812 208.199219 131.566406 206.707031 C 138.605469 203.273438 145.882812 200.304688 153.542969 198.585938 C 154.65625 198.332031 154.1875 196.625 153.074219 196.875 Z M 153.074219 196.875 " fill-opacity="1" fill-rule="nonzero"/><path fill="#000000" d="M 140.695312 165.773438 C 131.105469 166.535156 121.820312 169.488281 113.574219 174.449219 C 112.597656 175.035156 113.488281 176.570312 114.46875 175.976562 C 122.4375 171.183594 131.421875 168.28125 140.695312 167.546875 C 141.828125 167.457031 141.835938 165.683594 140.695312 165.773438 Z M 140.695312 165.773438 " fill-opacity="1" fill-rule="nonzero"/><path fill="#000000" d="M 98.574219 215.769531 C 100.363281 220.34375 105.480469 223.109375 110.292969 222.023438 C 111.40625 221.773438 110.933594 220.0625 109.820312 220.316406 C 106.019531 221.171875 101.710938 218.941406 100.285156 215.300781 C 100.109375 214.855469 99.6875 214.542969 99.191406 214.679688 C 98.765625 214.796875 98.398438 215.324219 98.574219 215.769531 Z M 98.574219 215.769531 " fill-opacity="1" fill-rule="nonzero"/><path fill="#ffffff" d="M 323.511719 208.085938 C 313.484375 221.898438 301.402344 239.71875 287.003906 249.269531 C 276.164062 256.457031 260.355469 248.800781 249.757812 244.363281 C 232.039062 236.945312 203.226562 217.054688 202.875 195.324219 C 202.796875 190.5 203.992188 185.460938 207.207031 181.859375 C 211.117188 177.472656 213.984375 178.695312 219.472656 178.035156 C 198.574219 163.003906 162.121094 138.335938 160.878906 126.625 C 158.6875 105.9375 177.917969 110.410156 190.269531 116.105469 C 203.445312 122.183594 245.5 152.136719 249.121094 154.457031 C 243.710938 146.269531 232.042969 128.578125 226.636719 120.390625 C 220.777344 111.523438 198.742188 77.070312 212.46875 67.308594 C 215.394531 65.226562 219.378906 65.105469 222.796875 66.207031 C 226.214844 67.308594 229.171875 69.492188 231.941406 71.773438 C 247.71875 84.78125 260.820312 107.328125 271.796875 124.191406 C 272.636719 125.476562 273.5 126.792969 274.742188 127.699219 C 276.28125 128.816406 278.222656 129.179688 280.058594 129.679688 C 286.605469 131.453125 297.515625 138.179688 301.804688 143.429688 " fill-opacity="1" fill-rule="nonzero"/><path fill="#000000" d="M 322.746094 207.636719 C 314.632812 218.820312 306.753906 230.34375 296.832031 240.039062 C 292.316406 244.449219 286.964844 249.648438 280.570312 250.941406 C 274.199219 252.230469 267.492188 250.339844 261.519531 248.195312 C 250.9375 244.394531 240.671875 239.558594 231.382812 233.199219 C 221.847656 226.667969 212.457031 218.460938 207.152344 208.011719 C 204.265625 202.332031 202.867188 195.792969 204.359375 189.5 C 205.203125 185.945312 207.152344 182.132812 210.449219 180.269531 C 213.105469 178.769531 216.546875 179.253906 219.476562 178.921875 C 220.363281 178.824219 220.664062 177.804688 219.921875 177.269531 C 206.636719 167.722656 193.097656 158.46875 180.464844 148.050781 C 175.195312 143.703125 169.871094 139.152344 165.585938 133.804688 C 164.199219 132.078125 162.8125 130.152344 162.109375 128.03125 C 161.203125 125.304688 161.378906 121.796875 162.128906 119.054688 C 165.464844 106.871094 183.363281 113.671875 190.769531 117.328125 C 195.417969 119.617188 199.828125 122.421875 204.203125 125.1875 C 210.042969 128.882812 215.800781 132.707031 221.527344 136.574219 C 230.300781 142.496094 238.9375 148.605469 247.6875 154.5625 C 248.011719 154.785156 248.339844 155.007812 248.671875 155.222656 C 249.410156 155.695312 250.375 154.746094 249.886719 154.007812 C 242.253906 142.453125 234.601562 130.910156 227 119.335938 C 220.871094 110 215.042969 100.128906 211.386719 89.539062 C 209.675781 84.578125 208.035156 78.75 209.371094 73.503906 C 209.910156 71.382812 211.042969 69.457031 212.820312 68.144531 C 216.941406 65.101562 222.476562 66.484375 226.511719 68.90625 C 230.363281 71.21875 233.777344 74.371094 236.945312 77.535156 C 240.0625 80.644531 242.960938 83.964844 245.71875 87.394531 C 251.535156 94.632812 256.710938 102.367188 261.742188 110.15625 C 264.101562 113.804688 266.421875 117.476562 268.769531 121.132812 C 270.945312 124.519531 272.789062 128.308594 276.828125 129.699219 C 278.660156 130.332031 280.5625 130.683594 282.375 131.386719 C 284.164062 132.078125 285.894531 132.921875 287.582031 133.832031 C 291.132812 135.746094 294.574219 137.96875 297.660156 140.578125 C 298.921875 141.644531 300.117188 142.785156 301.175781 144.058594 C 301.90625 144.9375 303.15625 143.675781 302.433594 142.804688 C 300.042969 139.933594 296.964844 137.621094 293.875 135.554688 C 290.566406 133.339844 287.054688 131.371094 283.359375 129.878906 C 281.601562 129.167969 279.796875 128.75 277.980469 128.207031 C 275.25 127.390625 273.832031 125.691406 272.332031 123.382812 C 269.933594 119.691406 267.582031 115.972656 265.210938 112.269531 C 260.085938 104.273438 254.871094 96.320312 249.0625 88.796875 C 243.582031 81.695312 237.558594 74.839844 230.375 69.40625 C 226.722656 66.644531 222.402344 64.351562 217.683594 64.660156 C 214.449219 64.871094 211.464844 66.351562 209.535156 68.96875 C 206.480469 73.113281 206.875 78.804688 207.863281 83.574219 C 209.164062 89.824219 211.753906 95.808594 214.582031 101.503906 C 217.214844 106.800781 220.183594 111.925781 223.339844 116.925781 C 230.632812 128.464844 238.347656 139.746094 245.867188 151.136719 C 246.695312 152.390625 247.527344 153.648438 248.355469 154.902344 L 249.570312 153.691406 C 241.324219 148.382812 233.417969 142.503906 225.308594 136.996094 C 219.34375 132.945312 213.351562 128.933594 207.277344 125.042969 C 202.492188 121.976562 197.667969 118.890625 192.613281 116.273438 C 187.558594 113.660156 181.984375 111.582031 176.335938 110.761719 C 171.25 110.027344 165.257812 110.417969 162.042969 115.003906 C 160.273438 117.53125 159.792969 120.765625 159.820312 123.785156 C 159.847656 126.410156 160.230469 128.667969 161.503906 130.972656 C 164.453125 136.3125 169.324219 140.695312 173.828125 144.703125 C 186.53125 156.007812 200.652344 165.691406 214.480469 175.550781 C 216 176.632812 217.515625 177.714844 219.027344 178.800781 L 219.476562 177.148438 C 216.742188 177.457031 213.761719 177.148438 211.125 178.042969 C 208.25 179.015625 206.011719 181.464844 204.5625 184.050781 C 201.515625 189.496094 201.378906 196.308594 202.996094 202.222656 C 206.167969 213.824219 215.398438 223.203125 224.613281 230.421875 C 229.4375 234.203125 234.566406 237.589844 239.929688 240.550781 C 244.984375 243.339844 250.28125 245.585938 255.609375 247.789062 C 261.871094 250.371094 268.476562 252.820312 275.316406 253.085938 C 278.488281 253.207031 281.691406 252.78125 284.625 251.539062 C 287.601562 250.28125 290.21875 248.167969 292.699219 246.132812 C 305.410156 235.714844 314.714844 221.714844 324.277344 208.53125 C 324.949219 207.609375 323.410156 206.722656 322.746094 207.636719 Z M 322.746094 207.636719 " fill-opacity="1" fill-rule="nonzero"/><path fill="#ffffff" d="M 326.625 213.351562 C 343.023438 196.546875 334.054688 166.136719 318.488281 151.625 C 317.734375 150.921875 316.964844 150.257812 316.183594 149.632812 C 292.851562 131.011719 271.542969 157.78125 261.910156 178.125 C 260.214844 181.710938 258.671875 185.453125 258.300781 189.40625 C 257.929688 193.355469 258.867188 197.589844 261.589844 200.480469 C 271.242188 210.726562 284.726562 198.960938 291.585938 191.792969 " fill-opacity="1" fill-rule="nonzero"/><path fill="#000000" d="M 327.253906 213.976562 C 336.679688 204.1875 337.855469 189.914062 334.464844 177.289062 C 331.023438 164.460938 322.71875 150.710938 310.308594 144.867188 C 304.585938 142.171875 298.203125 141.746094 292.210938 143.820312 C 286.023438 145.957031 280.730469 150.179688 276.289062 154.894531 C 271.523438 159.953125 267.535156 165.753906 264.160156 171.816406 C 260.476562 178.4375 256.300781 186.191406 257.589844 194.003906 C 258.726562 200.90625 264.941406 206.113281 272.011719 205.277344 C 278.527344 204.503906 284.246094 200.019531 288.898438 195.695312 C 290.039062 194.636719 291.136719 193.539062 292.214844 192.417969 C 293.003906 191.59375 291.75 190.339844 290.960938 191.164062 C 286.714844 195.582031 281.894531 200.03125 276.140625 202.359375 C 273.4375 203.453125 270.429688 204.023438 267.566406 203.234375 C 264.050781 202.269531 261.101562 199.398438 259.914062 195.976562 C 257.351562 188.621094 261.347656 180.847656 264.746094 174.457031 C 267.792969 168.71875 271.367188 163.214844 275.613281 158.289062 C 283.277344 149.40625 294.523438 141.289062 306.792969 145.355469 C 313.203125 147.476562 318.527344 152.25 322.648438 157.46875 C 326.476562 162.324219 329.464844 167.890625 331.507812 173.71875 C 336.042969 186.679688 336.054688 202.28125 326 212.722656 C 325.207031 213.546875 326.460938 214.800781 327.253906 213.976562 Z M 327.253906 213.976562 " fill-opacity="1" fill-rule="nonzero"/><path fill="#ffffff" d="M 325.011719 191.328125 C 326.085938 190.65625 327.171875 190.007812 328.269531 189.386719 C 332.417969 187.039062 336.804688 185.402344 341.523438 186.996094 C 351.714844 190.4375 360.015625 204.070312 354.386719 214.21875 C 349.398438 223.207031 319.886719 263.550781 309.070312 272.109375 C 307.480469 273.367188 305.816406 274.566406 303.941406 275.335938 C 293.273438 279.722656 278.660156 269.171875 278.21875 258.238281 C 277.992188 252.695312 279.960938 247.300781 282.269531 242.257812 C 291.332031 222.433594 306.257812 203.082031 325.011719 191.328125 Z M 325.011719 191.328125 " fill-opacity="1" fill-rule="nonzero"/><path fill="#000000" d="M 325.460938 192.09375 C 330.078125 189.21875 335.402344 186.015625 341.027344 187.769531 C 344.910156 188.976562 348.292969 191.710938 350.777344 194.875 C 353.347656 198.160156 355.160156 202.25 355.308594 206.453125 C 355.421875 209.621094 354.460938 212.433594 352.839844 215.109375 C 346.566406 225.457031 339.066406 235.179688 331.707031 244.761719 C 327.394531 250.375 322.988281 255.921875 318.363281 261.28125 C 314.957031 265.226562 311.457031 269.347656 307.207031 272.417969 C 303.558594 275.058594 299.492188 276.058594 295.070312 275.0625 C 291.09375 274.167969 287.421875 272.007812 284.535156 269.15625 C 281.785156 266.433594 279.542969 262.863281 279.152344 258.941406 C 278.589844 253.34375 280.75 247.699219 283.03125 242.703125 C 291.242188 224.726562 303.582031 208.007812 319.523438 196.15625 C 321.449219 194.722656 323.429688 193.375 325.460938 192.09375 C 326.421875 191.488281 325.535156 189.953125 324.5625 190.5625 C 306.703125 201.824219 292.816406 218.992188 283.441406 237.753906 C 279.175781 246.292969 274.328125 256.953125 279.804688 266.027344 C 283.898438 272.804688 292.28125 278.066406 300.386719 277.136719 C 306.96875 276.382812 311.960938 271.015625 316.214844 266.371094 C 321.09375 261.042969 325.636719 255.402344 330.089844 249.71875 C 338.390625 239.117188 346.6875 228.296875 353.835938 216.871094 C 355.347656 214.449219 356.59375 211.988281 356.960938 209.105469 C 357.484375 204.957031 356.367188 200.75 354.371094 197.117188 C 352.34375 193.425781 349.328125 190.191406 345.722656 187.996094 C 341.355469 185.335938 336.578125 184.808594 331.789062 186.695312 C 329.242188 187.699219 326.878906 189.121094 324.5625 190.5625 C 323.597656 191.164062 324.484375 192.699219 325.460938 192.09375 Z M 325.460938 192.09375 " fill-opacity="1" fill-rule="nonzero"/><path fill="#000000" d="M 261.347656 201.175781 C 259.929688 207.808594 252.578125 208.542969 246.925781 208.605469 C 237.605469 208.710938 228.246094 208.109375 218.980469 207.15625 C 217.84375 207.039062 217.851562 208.8125 218.980469 208.929688 C 228.757812 209.9375 238.761719 210.734375 248.601562 210.339844 C 254.667969 210.09375 261.601562 208.464844 263.058594 201.648438 C 263.296875 200.535156 261.585938 200.058594 261.347656 201.175781 Z M 261.347656 201.175781 " fill-opacity="1" fill-rule="nonzero"/><path fill="#000000" d="M 218.058594 178.515625 C 225.671875 179.703125 233.226562 181.125 240.679688 183.097656 C 246.730469 184.699219 253.125 186.101562 257.433594 191.011719 C 258.1875 191.871094 259.441406 190.613281 258.691406 189.757812 C 254.390625 184.863281 248.109375 183.203125 242.035156 181.621094 C 234.273438 179.59375 226.457031 178.042969 218.53125 176.804688 C 217.414062 176.628906 216.929688 178.335938 218.058594 178.511719 Z M 218.058594 178.515625 " fill-opacity="1" fill-rule="nonzero"/></svg>