<svg xmlns="http://www.w3.org/2000/svg" xmlns:xlink="http://www.w3.org/1999/xlink" width="500" zoomAndPan="magnify" viewBox="0 0 375 374.999991" height="500" preserveAspectRatio="xMidYMid meet" version="1.0"><defs><clipPath id="df8597a3cd"><path d="M 9 12.585938 L 359 12.585938 L 359 362.085938 L 9 362.085938 Z M 9 12.585938 " clip-rule="nonzero"/></clipPath></defs><g clip-path="url(#df8597a3cd)"><path fill="#82cd47" d="M 355.882812 155.449219 C 354.425781 147.375 346.320312 141.84375 338.210938 143.304688 C 330.105469 144.796875 324.609375 152.902344 326.070312 160.976562 C 327.527344 169.453125 328.648438 178.304688 328.648438 187.125 C 328.648438 267.035156 263.832031 331.851562 183.921875 331.851562 C 104.011719 331.851562 39.195312 267.410156 39.195312 187.5 C 39.195312 107.589844 104.011719 42.773438 183.921875 42.773438 C 203.457031 42.773438 222.585938 46.46875 240.257812 54.203125 C 247.992188 57.523438 256.8125 53.828125 260.167969 46.097656 C 263.457031 38.363281 259.761719 29.542969 252.058594 26.21875 C 230.320312 17.367188 207.492188 12.585938 183.921875 12.585938 C 87.425781 12.585938 9.007812 91.003906 9.007812 187.5 C 9.007812 283.992188 87.425781 362.414062 183.921875 362.414062 C 280.414062 362.414062 358.835938 283.992188 358.835938 187.5 C 358.835938 176.441406 357.714844 165.789062 355.882812 155.449219 " fill-opacity="1" fill-rule="nonzero"/></g><path fill="#82cd47" d="M 143.050781 143.675781 C 125.003906 117.527344 81.929688 142.558594 100.316406 168.710938 C 122.425781 200.386719 142.675781 233.527344 164.757812 265.203125 C 175.441406 280.296875 197.183594 281.757812 207.492188 265.203125 C 247.992188 199.644531 289.980469 135.945312 343.742188 80.351562 C 365.824219 57.523438 330.851562 22.152344 308.769531 45.351562 C 261.253906 94.699219 221.839844 149.949219 185.378906 207.375 C 171.40625 186.039062 157.769531 164.671875 143.050781 143.675781 " fill-opacity="1" fill-rule="nonzero"/></svg>